NobotoHangeul.glyphspackage
{
color = 0;
glyphname = uni3131;
layers = (
{
layerId = "99E75090-8A73-42EE-982D-99D4C12EA1BB";
paths = (
{
closed = 1;
nodes = (
"328 1311 LINE",
"328 1051 LINE",
"1231 1051 LINE",
"1231 260 LINE",
"1556 260 LINE",
"1556 1311 LINE"
);
}
);
width = 1884;
},
{
layerId = "35A15426-DDB1-4AC4-90C4-1762146010E5";
paths = (
{
closed = 1;
nodes = (
"391 1204 LINE",
"391 1143 LINE",
"1425 1143 LINE",
"1425 291 LINE",
"1493 291 LINE",
"1493 1204 LINE"
);
}
);
width = 1884;
}
);
unicode = "3131,FFA1";
}
{
color = 0;
glyphname = uni3132;
layers = (
{
layerId = "99E75090-8A73-42EE-982D-99D4C12EA1BB";
paths = (
{
closed = 1;
nodes = (
"184 1311 LINE",
"184 1051 LINE",
"590 1051 LINE",
"590 260 LINE",
"913 260 LINE",
"913 1311 LINE"
);
},
{
closed = 1;
nodes = (
"993 1311 LINE",
"993 1051 LINE",
"1350 1051 LINE",
"1350 260 LINE",
"1675 260 LINE",
"1675 1311 LINE"
);
}
);
width = 1884;
},
{
layerId = "35A15426-DDB1-4AC4-90C4-1762146010E5";
paths = (
{
closed = 1;
nodes = (
"348 1204 LINE",
"348 1143 LINE",
"864 1143 LINE",
"864 291 LINE",
"930 291 LINE",
"930 1204 LINE"
);
},
{
closed = 1;
nodes = (
"1053 1208 LINE",
"1053 1147 LINE",
"1583 1147 LINE",
"1583 295 LINE",
"1651 295 LINE",
"1651 1208 LINE"
);
}
);
width = 1884;
}
);
unicode = "3132,FFA2";
}
{
color = 0;
glyphname = uni3133;
layers = (
{
layerId = "99E75090-8A73-42EE-982D-99D4C12EA1BB";
paths = (
{
closed = 1;
nodes = (
"199 1305 LINE",
"199 1042 LINE",
"549 1042 LINE",
"549 260 LINE",
"874 260 LINE",
"874 1305 LINE"
);
},
{
closed = 1;
nodes = (
"1128 1319 LINE",
"1128 989 LINE SMOOTH",
"1128 760 OFFCURVE",
"1053 559 OFFCURVE",
"793 473 CURVE",
"958 238 LINE",
"1274 354 OFFCURVE",
"1372 637 OFFCURVE",
"1372 989 CURVE SMOOTH",
"1372 1319 LINE"
);
},
{
closed = 1;
nodes = (
"1196 1319 LINE",
"1196 989 LINE SMOOTH",
"1196 637 OFFCURVE",
"1294 354 OFFCURVE",
"1610 238 CURVE",
"1776 473 LINE",
"1516 559 OFFCURVE",
"1440 760 OFFCURVE",
"1440 989 CURVE SMOOTH",
"1440 1319 LINE"
);
}
);
width = 1884;
},
{
layerId = "35A15426-DDB1-4AC4-90C4-1762146010E5";
paths = (
{
closed = 1;
nodes = (
"319 1204 LINE",
"319 1143 LINE",
"778 1143 LINE",
"778 291 LINE",
"846 291 LINE",
"846 1204 LINE"
);
},
{
closed = 1;
nodes = (
"1282 1227 LINE",
"1282 870 LINE SMOOTH",
"1282 672 OFFCURVE",
"1163 436 OFFCURVE",
"948 336 CURVE",
"991 283 LINE",
"1219 393 OFFCURVE",
"1341 645 OFFCURVE",
"1341 870 CURVE SMOOTH",
"1341 1227 LINE"
);
},
{
closed = 1;
nodes = (
"1292 1227 LINE",
"1292 870 LINE SMOOTH",
"1292 645 OFFCURVE",
"1413 393 OFFCURVE",
"1642 283 CURVE",
"1686 336 LINE",
"1470 436 OFFCURVE",
"1352 672 OFFCURVE",
"1352 870 CURVE SMOOTH",
"1352 1227 LINE"
);
}
);
width = 1884;
}
);
unicode = "3133,FFA3";
}
{
color = 0;
glyphname = uni3134;
layers = (
{
layerId = "99E75090-8A73-42EE-982D-99D4C12EA1BB";
paths = (
{
closed = 1;
nodes = (
"324 557 LINE",
"324 297 LINE",
"1569 297 LINE",
"1569 557 LINE"
);
},
{
closed = 1;
nodes = (
"324 1311 LINE",
"324 459 LINE",
"655 459 LINE",
"655 1311 LINE"
);
}
);
width = 1884;
},
{
layerId = "35A15426-DDB1-4AC4-90C4-1762146010E5";
paths = (
{
closed = 1;
nodes = (
"412 354 LINE",
"412 293 LINE",
"1538 293 LINE",
"1538 354 LINE"
);
},
{
closed = 1;
nodes = (
"412 1204 LINE",
"412 332 LINE",
"477 332 LINE",
"477 1204 LINE"
);
}
);
width = 1884;
}
);
unicode = "3134,FFA4";
}
{
color = 0;
glyphname = uni3135;
layers = (
{
layerId = "99E75090-8A73-42EE-982D-99D4C12EA1BB";
paths = (
{
closed = 1;
nodes = (
"203 1311 LINE",
"203 457 LINE",
"535 457 LINE",
"535 1311 LINE"
);
},
{
closed = 1;
nodes = (
"1083 1255 LINE",
"1083 1061 LINE SMOOTH",
"1083 797 OFFCURVE",
"1016 561 OFFCURVE",
"760 457 CURVE",
"940 221 LINE",
"1241 358 OFFCURVE",
"1325 674 OFFCURVE",
"1325 1061 CURVE SMOOTH",
"1325 1255 LINE"
);
},
{
closed = 1;
nodes = (
"1149 1255 LINE",
"1149 1061 LINE SMOOTH",
"1149 672 OFFCURVE",
"1239 356 OFFCURVE",
"1552 219 CURVE",
"1729 457 LINE",
"1464 561 OFFCURVE",
"1395 797 OFFCURVE",
"1395 1061 CURVE SMOOTH",
"1395 1255 LINE"
);
},
{
closed = 1;
nodes = (
"838 1311 LINE",
"838 1051 LINE",
"1645 1051 LINE",
"1645 1311 LINE"
);
},
{
closed = 1;
nodes = (
"203 492 LINE",
"203 229 LINE",
"322 229 LINE SMOOTH",
"549 229 OFFCURVE",
"692 233 OFFCURVE",
"858 268 CURVE",
"829 526 LINE",
"672 496 OFFCURVE",
"537 492 OFFCURVE",
"322 492 CURVE SMOOTH"
);
}
);
width = 1884;
},
{
layerId = "35A15426-DDB1-4AC4-90C4-1762146010E5";
paths = (
{
closed = 1;
nodes = (
"397 1217 LINE",
"397 315 LINE",
"465 315 LINE",
"465 1217 LINE"
);
},
{
closed = 1;
nodes = (
"1214 1157 LINE",
"1214 872 LINE SMOOTH",
"1214 672 OFFCURVE",
"1102 430 OFFCURVE",
"889 326 CURVE",
"932 270 LINE",
"1159 387 OFFCURVE",
"1272 647 OFFCURVE",
"1272 872 CURVE SMOOTH",
"1272 1157 LINE"
);
},
{
closed = 1;
nodes = (
"1223 1157 LINE",
"1223 872 LINE SMOOTH",
"1223 647 OFFCURVE",
"1337 387 OFFCURVE",
"1563 270 CURVE",
"1608 326 LINE",
"1395 430 OFFCURVE",
"1282 672 OFFCURVE",
"1282 872 CURVE SMOOTH",
"1282 1157 LINE"
);
},
{
closed = 1;
nodes = (
"928 1198 LINE",
"928 1137 LINE",
"1569 1137 LINE",
"1569 1198 LINE"
);
},
{
closed = 1;
nodes = (
"397 342 LINE",
"397 283 LINE",
"467 283 LINE SMOOTH",
"588 283 OFFCURVE",
"739 287 OFFCURVE",
"897 342 CURVE",
"879 406 LINE",
"739 348 OFFCURVE",
"578 342 OFFCURVE",
"467 342 CURVE SMOOTH"
);
}
);
width = 1884;
}
);
unicode = "3135,FFA5";
}
{
color = 0;
glyphname = uni3136;
layers = (
{
layerId = "99E75090-8A73-42EE-982D-99D4C12EA1BB";
paths = (
{
closed = 1;
nodes = (
"199 1290 LINE",
"199 436 LINE",
"524 436 LINE",
"524 1290 LINE"
);
},
{
closed = 1;
nodes = (
"199 510 LINE",
"199 250 LINE",
"317 250 LINE SMOOTH",
"547 250 OFFCURVE",
"692 254 OFFCURVE",
"858 289 CURVE",
"829 547 LINE",
"670 514 OFFCURVE",
"537 510 OFFCURVE",
"317 510 CURVE SMOOTH"
);
},
{
closed = 1;
nodes = (
"807 1190 LINE",
"807 928 LINE",
"1671 928 LINE",
"1671 1190 LINE"
);
},
{
closed = 1;
nodes = (
"1038 893 OFFCURVE",
"879 743 OFFCURVE",
"879 543 CURVE SMOOTH",
"879 340 OFFCURVE",
"1038 193 OFFCURVE",
"1243 193 CURVE SMOOTH",
"1448 193 OFFCURVE",
"1608 340 OFFCURVE",
"1608 543 CURVE SMOOTH",
"1608 743 OFFCURVE",
"1448 893 OFFCURVE",
"1243 893 CURVE SMOOTH"
);
},
{
closed = 1;
nodes = (
"1294 641 OFFCURVE",
"1333 612 OFFCURVE",
"1333 543 CURVE SMOOTH",
"1333 471 OFFCURVE",
"1294 442 OFFCURVE",
"1243 442 CURVE SMOOTH",
"1194 442 OFFCURVE",
"1153 471 OFFCURVE",
"1153 543 CURVE SMOOTH",
"1153 612 OFFCURVE",
"1194 641 OFFCURVE",
"1243 641 CURVE SMOOTH"
);
},
{
closed = 1;
nodes = (
"1096 1337 LINE",
"1096 961 LINE",
"1415 961 LINE",
"1415 1337 LINE"
);
}
);
width = 1884;
},
{
layerId = "35A15426-DDB1-4AC4-90C4-1762146010E5";
paths = (
{
closed = 1;
nodes = (
"397 1169 LINE",
"397 313 LINE",
"465 313 LINE",
"465 1169 LINE"
);
},
{
closed = 1;
nodes = (
"397 346 LINE",
"397 287 LINE",
"467 287 LINE SMOOTH",
"588 287 OFFCURVE",
"739 289 OFFCURVE",
"897 346 CURVE",
"879 410 LINE",
"739 352 OFFCURVE",
"578 346 OFFCURVE",
"467 346 CURVE SMOOTH"
);
},
{
closed = 1;
nodes = (
"909 1030 LINE",
"909 969 LINE",
"1550 969 LINE",
"1550 1030 LINE"
);
},
{
closed = 1;
nodes = (
"1071 877 OFFCURVE",
"952 752 OFFCURVE",
"952 567 CURVE SMOOTH",
"952 383 OFFCURVE",
"1071 260 OFFCURVE",
"1229 260 CURVE SMOOTH",
"1386 260 OFFCURVE",
"1507 383 OFFCURVE",
"1507 567 CURVE SMOOTH",
"1507 752 OFFCURVE",
"1386 877 OFFCURVE",
"1229 877 CURVE SMOOTH"
);
},
{
closed = 1;
nodes = (
"1358 817 OFFCURVE",
"1446 709 OFFCURVE",
"1446 567 CURVE SMOOTH",
"1446 428 OFFCURVE",
"1358 317 OFFCURVE",
"1229 317 CURVE SMOOTH",
"1102 317 OFFCURVE",
"1014 428 OFFCURVE",
"1014 567 CURVE SMOOTH",
"1014 709 OFFCURVE",
"1102 817 OFFCURVE",
"1229 817 CURVE SMOOTH"
);
},
{
closed = 1;
nodes = (
"1200 1237 LINE",
"1200 989 LINE",
"1266 989 LINE",
"1266 1237 LINE"
);
}
);
width = 1884;
}
);
unicode = "3136,FFA6";
}
{
color = 0;
glyphname = uni3137;
layers = (
{
layerId = "99E75090-8A73-42EE-982D-99D4C12EA1BB";
paths = (
{
closed = 1;
nodes = (
"332 1315 LINE",
"332 440 LINE",
"664 440 LINE",
"664 1055 LINE",
"1544 1055 LINE",
"1544 1315 LINE"
);
},
{
closed = 1;
nodes = (
"332 518 LINE",
"332 258 LINE",
"1559 258 LINE",
"1559 518 LINE"
);
}
);
width = 1884;
},
{
layerId = "35A15426-DDB1-4AC4-90C4-1762146010E5";
paths = (
{
closed = 1;
nodes = (
"414 1217 LINE",
"414 328 LINE",
"479 328 LINE",
"479 1155 LINE",
"1491 1155 LINE",
"1491 1217 LINE"
);
},
{
closed = 1;
nodes = (
"414 358 LINE",
"414 297 LINE",
"1511 297 LINE",
"1511 358 LINE"
);
}
);
width = 1884;
}
);
unicode = "3137,FFA7";
}
{
color = 0;
glyphname = uni3138;
layers = (
{
layerId = "99E75090-8A73-42EE-982D-99D4C12EA1BB";
paths = (
{
closed = 1;
nodes = (
"238 1315 LINE",
"238 440 LINE",
"563 440 LINE",
"563 1055 LINE",
"881 1055 LINE",
"881 1315 LINE"
);
},
{
closed = 1;
nodes = (
"1001 1315 LINE",
"1001 440 LINE",
"1327 440 LINE",
"1327 1055 LINE",
"1636 1055 LINE",
"1636 1315 LINE"
);
},
{
closed = 1;
nodes = (
"1001 549 LINE",
"1001 289 LINE",
"1647 289 LINE",
"1647 549 LINE"
);
},
{
closed = 1;
nodes = (
"238 555 LINE",
"238 287 LINE",
"360 287 LINE SMOOTH",
"598 287 OFFCURVE",
"750 291 OFFCURVE",
"920 326 CURVE",
"893 594 LINE",
"727 559 OFFCURVE",
"588 555 OFFCURVE",
"360 555 CURVE SMOOTH"
);
}
);
width = 1884;
},
{
layerId = "35A15426-DDB1-4AC4-90C4-1762146010E5";
paths = (
{
closed = 1;
nodes = (
"375 1217 LINE",
"375 328 LINE",
"442 328 LINE",
"442 1155 LINE",
"926 1155 LINE",
"926 1217 LINE"
);
},
{
closed = 1;
nodes = (
"983 1217 LINE",
"983 328 LINE",
"1051 328 LINE",
"1051 1155 LINE",
"1534 1155 LINE",
"1534 1217 LINE"
);
},
{
closed = 1;
nodes = (
"983 358 LINE",
"983 297 LINE",
"1540 297 LINE",
"1540 358 LINE"
);
},
{
closed = 1;
nodes = (
"375 362 LINE",
"375 301 LINE",
"453 301 LINE SMOOTH",
"580 301 OFFCURVE",
"739 307 OFFCURVE",
"934 354 CURVE",
"920 416 LINE",
"739 369 OFFCURVE",
"573 362 OFFCURVE",
"453 362 CURVE SMOOTH"
);
}
);
width = 1884;
}
);
unicode = "3138,FFA8";
}
{
color = 0;
glyphname = uni3139;
layers = (
{
layerId = "99E75090-8A73-42EE-982D-99D4C12EA1BB";
paths = (
{
closed = 1;
nodes = (
"313 1335 LINE",
"313 1077 LINE",
"1231 1077 LINE",
"1231 940 LINE",
"315 940 LINE",
"315 391 LINE",
"629 391 LINE",
"629 684 LINE",
"1544 684 LINE",
"1544 1335 LINE"
);
},
{
closed = 1;
nodes = (
"315 535 LINE",
"315 268 LINE",
"1571 268 LINE",
"1571 535 LINE"
);
}
);
width = 1884;
},
{
layerId = "35A15426-DDB1-4AC4-90C4-1762146010E5";
paths = (
{
closed = 1;
nodes = (
"389 1237 LINE",
"389 1178 LINE",
"1440 1178 LINE",
"1440 782 LINE",
"395 782 LINE",
"395 289 LINE",
"461 289 LINE",
"461 723 LINE",
"1505 723 LINE",
"1505 1237 LINE"
);
},
{
closed = 1;
nodes = (
"395 328 LINE",
"395 266 LINE",
"1540 266 LINE",
"1540 328 LINE"
);
}
);
width = 1884;
}
);
unicode = "3139,FFA9";
}
{
color = 0;
glyphname = uni313A;
layers = (
{
layerId = "99E75090-8A73-42EE-982D-99D4C12EA1BB";
paths = (
{
closed = 1;
nodes = (
"209 1323 LINE",
"209 1063 LINE",
"561 1063 LINE",
"561 928 LINE",
"211 928 LINE",
"211 299 LINE",
"537 299 LINE",
"537 666 LINE",
"887 666 LINE",
"887 1323 LINE"
);
},
{
closed = 1;
nodes = (
"950 1323 LINE",
"950 1063 LINE",
"1315 1063 LINE",
"1315 264 LINE",
"1640 264 LINE",
"1640 1323 LINE"
);
},
{
closed = 1;
nodes = (
"211 520 LINE",
"211 260 LINE",
"348 260 LINE SMOOTH",
"635 260 OFFCURVE",
"809 264 OFFCURVE",
"1001 305 CURVE",
"975 563 LINE",
"788 526 OFFCURVE",
"623 520 OFFCURVE",
"348 520 CURVE SMOOTH"
);
}
);
width = 1884;
},
{
layerId = "35A15426-DDB1-4AC4-90C4-1762146010E5";
paths = (
{
closed = 1;
nodes = (
"362 1225 LINE",
"362 1163 LINE",
"866 1163 LINE",
"866 793 LINE",
"369 793 LINE",
"369 311 LINE",
"434 311 LINE",
"434 735 LINE",
"934 735 LINE",
"934 1225 LINE"
);
},
{
closed = 1;
nodes = (
"1001 1225 LINE",
"1001 1163 LINE",
"1501 1163 LINE",
"1501 295 LINE",
"1567 295 LINE",
"1567 1225 LINE"
);
},
{
closed = 1;
nodes = (
"369 348 LINE",
"369 289 LINE",
"459 289 LINE SMOOTH",
"614 289 OFFCURVE",
"801 295 OFFCURVE",
"1044 340 CURVE",
"1032 401 LINE",
"801 356 OFFCURVE",
"608 348 OFFCURVE",
"459 348 CURVE SMOOTH"
);
}
);
width = 1884;
}
);
unicode = "313A,FFAA";
}
{
color = 0;
glyphname = uni313B;
layers = (
{
layerId = "99E75090-8A73-42EE-982D-99D4C12EA1BB";
paths = (
{
closed = 1;
nodes = (
"201 1323 LINE",
"201 1063 LINE",
"553 1063 LINE",
"553 928 LINE",
"203 928 LINE",
"203 299 LINE",
"528 299 LINE",
"528 666 LINE",
"879 666 LINE",
"879 1323 LINE"
);
},
{
closed = 1;
nodes = (
"203 520 LINE",
"203 260 LINE",
"332 260 LINE SMOOTH",
"592 260 OFFCURVE",
"754 264 OFFCURVE",
"934 303 CURVE",
"905 561 LINE",
"731 524 OFFCURVE",
"582 520 OFFCURVE",
"332 520 CURVE SMOOTH"
);
},
{
closed = 1;
nodes = (
"979 1327 LINE",
"979 266 LINE",
"1698 266 LINE",
"1698 1327 LINE"
);
},
{
closed = 1;
nodes = (
"1411 1067 LINE",
"1411 524 LINE",
"1268 524 LINE",
"1268 1067 LINE"
);
}
);
width = 1884;
},
{
layerId = "35A15426-DDB1-4AC4-90C4-1762146010E5";
paths = (
{
closed = 1;
nodes = (
"362 1221 LINE",
"362 1159 LINE",
"852 1159 LINE",
"852 793 LINE",
"369 793 LINE",
"369 307 LINE",
"434 307 LINE",
"434 733 LINE",
"918 733 LINE",
"918 1221 LINE"
);
},
{
closed = 1;
nodes = (
"369 350 LINE",
"369 289 LINE",
"449 289 LINE SMOOTH",
"573 289 OFFCURVE",
"735 293 OFFCURVE",
"963 330 CURVE",
"954 391 LINE",
"735 354 OFFCURVE",
"569 350 OFFCURVE",
"449 350 CURVE SMOOTH"
);
},
{
closed = 1;
nodes = (
"1001 1221 LINE",
"1001 289 LINE",
"1571 289 LINE",
"1571 1221 LINE"
);
},
{
closed = 1;
nodes = (
"1507 1161 LINE",
"1507 348 LINE",
"1065 348 LINE",
"1065 1161 LINE"
);
}
);
width = 1884;
}
);
unicode = "313B,FFAB";
}
{
color = 0;
glyphname = uni313C;
layers = (
{
layerId = "99E75090-8A73-42EE-982D-99D4C12EA1BB";
paths = (
{
closed = 1;
nodes = (
"201 1323 LINE",
"201 1063 LINE",
"553 1063 LINE",
"553 928 LINE",
"203 928 LINE",
"203 299 LINE",
"528 299 LINE",
"528 666 LINE",
"879 666 LINE",
"879 1323 LINE"
);
},
{
closed = 1;
nodes = (
"963 1327 LINE",
"963 258 LINE",
"1694 258 LINE",
"1694 1327 LINE",
"1389 1327 LINE",
"1389 1051 LINE",
"1268 1051 LINE",
"1268 1327 LINE"
);
},
{
closed = 1;
nodes = (
"1268 786 LINE",
"1389 786 LINE",
"1389 522 LINE",
"1268 522 LINE"
);
},
{
closed = 1;
nodes = (
"203 518 LINE",
"203 258 LINE",
"330 258 LINE SMOOTH",
"590 258 OFFCURVE",
"745 262 OFFCURVE",
"926 301 CURVE",
"897 559 LINE",
"725 522 OFFCURVE",
"578 518 OFFCURVE",
"330 518 CURVE SMOOTH"
);
}
);
width = 1884;
},
{
layerId = "35A15426-DDB1-4AC4-90C4-1762146010E5";
paths = (
{
closed = 1;
nodes = (
"362 1221 LINE",
"362 1159 LINE",
"852 1159 LINE",
"852 793 LINE",
"369 793 LINE",
"369 307 LINE",
"434 307 LINE",
"434 733 LINE",
"918 733 LINE",
"918 1221 LINE"
);
},
{
closed = 1;
nodes = (
"1012 1223 LINE",
"1012 289 LINE",
"1579 289 LINE",
"1579 1223 LINE",
"1513 1223 LINE",
"1513 844 LINE",
"1077 844 LINE",
"1077 1223 LINE"
);
},
{
closed = 1;
nodes = (
"1077 784 LINE",
"1513 784 LINE",
"1513 350 LINE",
"1077 350 LINE"
);
},
{
closed = 1;
nodes = (
"369 348 LINE",
"369 289 LINE",
"453 289 LINE SMOOTH",
"590 289 OFFCURVE",
"762 293 OFFCURVE",
"985 338 CURVE",
"973 397 LINE",
"762 354 OFFCURVE",
"584 348 OFFCURVE",
"453 348 CURVE SMOOTH"
);
}
);
width = 1884;
}
);
unicode = "313C,FFAC";
}
{
color = 0;
glyphname = uni313D;
layers = (
{
layerId = "99E75090-8A73-42EE-982D-99D4C12EA1BB";
paths = (
{
closed = 1;
nodes = (
"193 1323 LINE",
"193 1063 LINE",
"545 1063 LINE",
"545 928 LINE",
"195 928 LINE",
"195 299 LINE",
"520 299 LINE",
"520 666 LINE",
"870 666 LINE",
"870 1323 LINE"
);
},
{
closed = 1;
nodes = (
"195 520 LINE",
"195 260 LINE",
"324 260 LINE SMOOTH",
"588 260 OFFCURVE",
"748 264 OFFCURVE",
"930 303 CURVE",
"901 561 LINE",
"725 524 OFFCURVE",
"575 520 OFFCURVE",
"324 520 CURVE SMOOTH"
);
},
{
closed = 1;
nodes = (
"1143 1333 LINE",
"1143 1004 LINE SMOOTH",
"1143 774 OFFCURVE",
"1073 575 OFFCURVE",
"829 487 CURVE",
"997 254 LINE",
"1294 373 OFFCURVE",
"1384 653 OFFCURVE",
"1384 1004 CURVE SMOOTH",
"1384 1333 LINE"
);
},
{
closed = 1;
nodes = (
"1212 1333 LINE",
"1212 1004 LINE SMOOTH",
"1212 653 OFFCURVE",
"1300 373 OFFCURVE",
"1597 254 CURVE",
"1767 487 LINE",
"1524 575 OFFCURVE",
"1454 774 OFFCURVE",
"1454 1004 CURVE SMOOTH",
"1454 1333 LINE"
);
}
);
width = 1884;
},
{
layerId = "35A15426-DDB1-4AC4-90C4-1762146010E5";
paths = (
{
closed = 1;
nodes = (
"365 1221 LINE",
"365 1159 LINE",
"854 1159 LINE",
"854 793 LINE",
"371 793 LINE",
"371 307 LINE",
"436 307 LINE",
"436 733 LINE",
"920 733 LINE",
"920 1221 LINE"
);
},
{
closed = 1;
nodes = (
"371 350 LINE",
"371 289 LINE",
"453 289 LINE SMOOTH",
"596 289 OFFCURVE",
"768 297 OFFCURVE",
"971 350 CURVE",
"958 412 LINE",
"768 358 OFFCURVE",
"590 350 OFFCURVE",
"453 350 CURVE SMOOTH"
);
},
{
closed = 1;
nodes = (
"1296 1227 LINE",
"1296 870 LINE SMOOTH",
"1296 672 OFFCURVE",
"1176 436 OFFCURVE",
"963 336 CURVE",
"1006 283 LINE",
"1233 393 OFFCURVE",
"1356 645 OFFCURVE",
"1356 870 CURVE SMOOTH",
"1356 1227 LINE"
);
},
{
closed = 1;
nodes = (
"1307 1227 LINE",
"1307 870 LINE SMOOTH",
"1307 645 OFFCURVE",
"1427 393 OFFCURVE",
"1657 283 CURVE",
"1700 336 LINE",
"1485 436 OFFCURVE",
"1364 672 OFFCURVE",
"1364 870 CURVE SMOOTH",
"1364 1227 LINE"
);
}
);
width = 1884;
}
);
unicode = "313D,FFAD";
}
{
color = 0;
glyphname = uni313E;
layers = (
{
layerId = "99E75090-8A73-42EE-982D-99D4C12EA1BB";
paths = (
{
closed = 1;
nodes = (
"201 1323 LINE",
"201 1063 LINE",
"553 1063 LINE",
"553 928 LINE",
"203 928 LINE",
"203 299 LINE",
"528 299 LINE",
"528 666 LINE",
"879 666 LINE",
"879 1323 LINE"
);
},
{
closed = 1;
nodes = (
"977 1325 LINE",
"977 387 LINE",
"1300 387 LINE",
"1300 1065 LINE",
"1651 1065 LINE",
"1651 1325 LINE"
);
},
{
closed = 1;
nodes = (
"977 518 LINE",
"977 258 LINE",
"1669 258 LINE",
"1669 518 LINE"
);
},
{
closed = 1;
nodes = (
"1061 922 LINE",
"1061 662 LINE",
"1628 662 LINE",
"1628 922 LINE"
);
},
{
closed = 1;
nodes = (
"203 520 LINE",
"203 260 LINE",
"332 260 LINE SMOOTH",
"594 260 OFFCURVE",
"756 264 OFFCURVE",
"938 303 CURVE",
"909 561 LINE",
"733 524 OFFCURVE",
"584 520 OFFCURVE",
"332 520 CURVE SMOOTH"
);
}
);
width = 1884;
},
{
layerId = "35A15426-DDB1-4AC4-90C4-1762146010E5";
paths = (
{
closed = 1;
nodes = (
"365 1221 LINE",
"365 1159 LINE",
"854 1159 LINE",
"854 793 LINE",
"371 793 LINE",
"371 307 LINE",
"436 307 LINE",
"436 733 LINE",
"920 733 LINE",
"920 1221 LINE"
);
},
{
closed = 1;
nodes = (
"1034 1221 LINE",
"1034 324 LINE",
"1102 324 LINE",
"1102 1159 LINE",
"1610 1159 LINE",
"1610 1221 LINE"
);
},
{
closed = 1;
nodes = (
"1034 354 LINE",
"1034 293 LINE",
"1618 293 LINE",
"1618 354 LINE"
);
},
{
closed = 1;
nodes = (
"1059 799 LINE",
"1059 737 LINE",
"1587 737 LINE",
"1587 799 LINE"
);
},
{
closed = 1;
nodes = (
"371 354 LINE",
"371 293 LINE",
"453 293 LINE SMOOTH",
"596 293 OFFCURVE",
"768 301 OFFCURVE",
"971 354 CURVE",
"958 416 LINE",
"768 362 OFFCURVE",
"590 354 OFFCURVE",
"453 354 CURVE SMOOTH"
);
}
);
width = 1884;
}
);
unicode = "313E,FFAE";
}
{
color = 0;
glyphname = uni313F;
layers = (
{
layerId = "99E75090-8A73-42EE-982D-99D4C12EA1BB";
paths = (
{
closed = 1;
nodes = (
"203 1323 LINE",
"203 1063 LINE",
"539 1063 LINE",
"539 928 LINE",
"205 928 LINE",
"205 299 LINE",
"530 299 LINE",
"530 666 LINE",
"864 666 LINE",
"864 1323 LINE"
);
},
{
closed = 1;
nodes = (
"934 1321 LINE",
"934 1061 LINE",
"1731 1061 LINE",
"1731 1321 LINE"
);
},
{
closed = 1;
nodes = (
"934 520 LINE",
"934 260 LINE",
"1731 260 LINE",
"1731 520 LINE"
);
},
{
closed = 1;
nodes = (
"1014 1110 LINE",
"1014 399 LINE",
"1296 399 LINE",
"1296 1110 LINE"
);
},
{
closed = 1;
nodes = (
"1368 1110 LINE",
"1368 399 LINE",
"1651 399 LINE",
"1651 1110 LINE"
);
},
{
closed = 1;
nodes = (
"205 520 LINE",
"205 260 LINE",
"332 260 LINE SMOOTH",
"588 260 OFFCURVE",
"745 264 OFFCURVE",
"924 301 CURVE",
"895 561 LINE",
"723 524 OFFCURVE",
"578 520 OFFCURVE",
"332 520 CURVE SMOOTH"
);
}
);
width = 1884;
},
{
layerId = "35A15426-DDB1-4AC4-90C4-1762146010E5";
paths = (
{
closed = 1;
nodes = (
"362 1221 LINE",
"362 1159 LINE",
"827 1159 LINE",
"827 793 LINE",
"369 793 LINE",
"369 307 LINE",
"434 307 LINE",
"434 733 LINE",
"895 733 LINE",
"895 1221 LINE"
);
},
{
closed = 1;
nodes = (
"995 1221 LINE",
"995 1159 LINE",
"1589 1159 LINE",
"1589 1221 LINE"
);
},
{
closed = 1;
nodes = (
"985 350 LINE",
"985 289 LINE",
"1608 289 LINE",
"1608 350 LINE"
);
},
{
closed = 1;
nodes = (
"1116 1178 LINE",
"1116 332 LINE",
"1184 332 LINE",
"1184 1178 LINE"
);
},
{
closed = 1;
nodes = (
"1403 1178 LINE",
"1403 332 LINE",
"1468 332 LINE",
"1468 1178 LINE"
);
},
{
closed = 1;
nodes = (
"369 350 LINE",
"369 289 LINE",
"449 289 LINE SMOOTH",
"592 289 OFFCURVE",
"762 297 OFFCURVE",
"963 348 CURVE",
"948 412 LINE",
"762 358 OFFCURVE",
"584 350 OFFCURVE",
"449 350 CURVE SMOOTH"
);
}
);
width = 1884;
}
);
unicode = "313F,FFAF";
}
{
color = 0;
glyphname = uni3140;
layers = (
{
layerId = "99E75090-8A73-42EE-982D-99D4C12EA1BB";
paths = (
{
closed = 1;
nodes = (
"221 1323 LINE",
"221 1077 LINE",
"524 1077 LINE",
"524 934 LINE",
"223 934 LINE",
"223 301 LINE",
"549 301 LINE",
"549 688 LINE",
"850 688 LINE",
"850 1323 LINE"
);
},
{
closed = 1;
nodes = (
"940 1233 LINE",
"940 973 LINE",
"1765 973 LINE",
"1765 1233 LINE"
);
},
{
closed = 1;
nodes = (
"1147 936 OFFCURVE",
"987 788 OFFCURVE",
"987 588 CURVE SMOOTH",
"987 385 OFFCURVE",
"1147 236 OFFCURVE",
"1352 236 CURVE SMOOTH",
"1556 236 OFFCURVE",
"1716 385 OFFCURVE",
"1716 588 CURVE SMOOTH",
"1716 788 OFFCURVE",
"1556 936 OFFCURVE",
"1352 936 CURVE SMOOTH"
);
},
{
closed = 1;
nodes = (
"1401 686 OFFCURVE",
"1442 657 OFFCURVE",
"1442 588 CURVE SMOOTH",
"1442 514 OFFCURVE",
"1401 487 OFFCURVE",
"1352 487 CURVE SMOOTH",
"1300 487 OFFCURVE",
"1262 514 OFFCURVE",
"1262 588 CURVE SMOOTH",
"1262 657 OFFCURVE",
"1300 686 OFFCURVE",
"1352 686 CURVE SMOOTH"
);
},
{
closed = 1;
nodes = (
"1204 1382 LINE",
"1204 1006 LINE",
"1524 1006 LINE",
"1524 1382 LINE"
);
},
{
closed = 1;
nodes = (
"223 520 LINE",
"223 260 LINE",
"350 260 LINE SMOOTH",
"600 260 OFFCURVE",
"758 264 OFFCURVE",
"934 301 CURVE",
"905 559 LINE",
"735 524 OFFCURVE",
"590 520 OFFCURVE",
"350 520 CURVE SMOOTH"
);
}
);
width = 1884;
},
{
layerId = "35A15426-DDB1-4AC4-90C4-1762146010E5";
paths = (
{
closed = 1;
nodes = (
"362 1221 LINE",
"362 1159 LINE",
"797 1159 LINE",
"797 793 LINE",
"369 793 LINE",
"369 307 LINE",
"434 307 LINE",
"434 733 LINE",
"864 733 LINE",
"864 1221 LINE"
);
},
{
closed = 1;
nodes = (
"922 1028 LINE",
"922 967 LINE",
"1563 967 LINE",
"1563 1028 LINE"
);
},
{
closed = 1;
nodes = (
"1085 874 OFFCURVE",
"967 756 OFFCURVE",
"967 578 CURVE SMOOTH",
"967 397 OFFCURVE",
"1085 281 OFFCURVE",
"1243 281 CURVE SMOOTH",
"1401 281 OFFCURVE",
"1520 397 OFFCURVE",
"1520 578 CURVE SMOOTH",
"1520 756 OFFCURVE",
"1401 874 OFFCURVE",
"1243 874 CURVE SMOOTH"
);
},
{
closed = 1;
nodes = (
"1370 815 OFFCURVE",
"1460 711 OFFCURVE",
"1460 578 CURVE SMOOTH",
"1460 440 OFFCURVE",
"1370 338 OFFCURVE",
"1243 338 CURVE SMOOTH",
"1114 338 OFFCURVE",
"1026 440 OFFCURVE",
"1026 578 CURVE SMOOTH",
"1026 711 OFFCURVE",
"1114 815 OFFCURVE",
"1243 815 CURVE SMOOTH"
);
},
{
closed = 1;
nodes = (
"1214 1260 LINE",
"1214 1012 LINE",
"1280 1012 LINE",
"1280 1260 LINE"
);
},
{
closed = 1;
nodes = (
"369 350 LINE",
"369 289 LINE",
"446 289 LINE SMOOTH",
"578 289 OFFCURVE",
"741 295 OFFCURVE",
"938 342 CURVE",
"924 406 LINE",
"739 356 OFFCURVE",
"571 350 OFFCURVE",
"446 350 CURVE SMOOTH"
);
}
);
width = 1884;
}
);
unicode = "3140,FFB0";
}
{
color = 0;
glyphname = uni3141;
layers = (
{
layerId = "99E75090-8A73-42EE-982D-99D4C12EA1BB";
paths = (
{
closed = 1;
nodes = (
"330 1300 LINE",
"330 279 LINE",
"1559 279 LINE",
"1559 1300 LINE"
);
},
{
closed = 1;
nodes = (
"1231 1038 LINE",
"1231 539 LINE",
"657 539 LINE",
"657 1038 LINE"
);
}
);
width = 1884;
},
{
layerId = "35A15426-DDB1-4AC4-90C4-1762146010E5";
paths = (
{
closed = 1;
nodes = (
"401 1223 LINE",
"401 289 LINE",
"1511 289 LINE",
"1511 1223 LINE"
);
},
{
closed = 1;
nodes = (
"1444 1161 LINE",
"1444 350 LINE",
"469 350 LINE",
"469 1161 LINE"
);
}
);
width = 1884;
}
);
unicode = "3141,FFB1";
}
{
color = 0;
glyphname = uni3142;
layers = (
{
layerId = "99E75090-8A73-42EE-982D-99D4C12EA1BB";
paths = (
{
closed = 1;
nodes = (
"330 1335 LINE",
"330 258 LINE",
"1556 258 LINE",
"1556 1335 LINE",
"1229 1335 LINE",
"1229 1063 LINE",
"657 1063 LINE",
"657 1335 LINE"
);
},
{
closed = 1;
nodes = (
"657 772 LINE",
"1229 772 LINE",
"1229 545 LINE",
"657 545 LINE"
);
}
);
width = 1884;
},
{
layerId = "35A15426-DDB1-4AC4-90C4-1762146010E5";
paths = (
{
closed = 1;
nodes = (
"406 1237 LINE",
"406 289 LINE",
"1501 289 LINE",
"1501 1237 LINE",
"1434 1237 LINE",
"1434 856 LINE",
"471 856 LINE",
"471 1237 LINE"
);
},
{
closed = 1;
nodes = (
"471 795 LINE",
"1434 795 LINE",
"1434 350 LINE",
"471 350 LINE"
);
}
);
width = 1884;
}
);
unicode = "3142,FFB2";
}
{
color = 0;
glyphname = uni3143;
layers = (
{
layerId = "99E75090-8A73-42EE-982D-99D4C12EA1BB";
paths = (
{
closed = 1;
nodes = (
"244 1317 LINE",
"244 262 LINE",
"930 262 LINE",
"930 1317 LINE",
"629 1317 LINE",
"629 1047 LINE",
"543 1047 LINE",
"543 1317 LINE"
);
},
{
closed = 1;
nodes = (
"543 782 LINE",
"629 782 LINE",
"629 526 LINE",
"543 526 LINE"
);
},
{
closed = 1;
nodes = (
"981 1319 LINE",
"981 264 LINE",
"1667 264 LINE",
"1667 1319 LINE",
"1366 1319 LINE",
"1366 1049 LINE",
"1280 1049 LINE",
"1280 1319 LINE"
);
},
{
closed = 1;
nodes = (
"1280 784 LINE",
"1366 784 LINE",
"1366 528 LINE",
"1280 528 LINE"
);
}
);
width = 1884;
},
{
layerId = "35A15426-DDB1-4AC4-90C4-1762146010E5";
paths = (
{
closed = 1;
nodes = (
"381 1223 LINE",
"381 289 LINE",
"918 289 LINE",
"918 1223 LINE",
"854 1223 LINE",
"854 844 LINE",
"449 844 LINE",
"449 1223 LINE"
);
},
{
closed = 1;
nodes = (
"449 784 LINE",
"854 784 LINE",
"854 350 LINE",
"449 350 LINE"
);
},
{
closed = 1;
nodes = (
"1012 1223 LINE",
"1012 289 LINE",
"1548 289 LINE",
"1548 1223 LINE",
"1483 1223 LINE",
"1483 844 LINE",
"1077 844 LINE",
"1077 1223 LINE"
);
},
{
closed = 1;
nodes = (
"1077 784 LINE",
"1483 784 LINE",
"1483 350 LINE",
"1077 350 LINE"
);
}
);
width = 1884;
}
);
unicode = "3143,FFB3";
}
{
color = 0;
glyphname = uni3144;
layers = (
{
layerId = "99E75090-8A73-42EE-982D-99D4C12EA1BB";
paths = (
{
closed = 1;
nodes = (
"1169 1319 LINE",
"1169 989 LINE SMOOTH",
"1169 760 OFFCURVE",
"1094 559 OFFCURVE",
"834 473 CURVE",
"997 238 LINE",
"1313 354 OFFCURVE",
"1411 637 OFFCURVE",
"1411 989 CURVE SMOOTH",
"1411 1319 LINE"
);
},
{
closed = 1;
nodes = (
"1237 1319 LINE",
"1237 989 LINE SMOOTH",
"1237 637 OFFCURVE",
"1335 354 OFFCURVE",
"1651 238 CURVE",
"1815 473 LINE",
"1556 559 OFFCURVE",
"1481 760 OFFCURVE",
"1481 989 CURVE SMOOTH",
"1481 1319 LINE"
);
},
{
closed = 1;
nodes = (
"244 1317 LINE",
"244 262 LINE",
"930 262 LINE",
"930 1317 LINE",
"629 1317 LINE",
"629 1047 LINE",
"543 1047 LINE",
"543 1317 LINE"
);
},
{
closed = 1;
nodes = (
"543 782 LINE",
"629 782 LINE",
"629 526 LINE",
"543 526 LINE"
);
}
);
width = 1884;
},
{
layerId = "35A15426-DDB1-4AC4-90C4-1762146010E5";
paths = (
{
closed = 1;
nodes = (
"1296 1227 LINE",
"1296 870 LINE SMOOTH",
"1296 672 OFFCURVE",
"1176 436 OFFCURVE",
"963 336 CURVE",
"1006 283 LINE",
"1233 393 OFFCURVE",
"1356 645 OFFCURVE",
"1356 870 CURVE SMOOTH",
"1356 1227 LINE"
);
},
{
closed = 1;
nodes = (
"1307 1227 LINE",
"1307 870 LINE SMOOTH",
"1307 645 OFFCURVE",
"1427 393 OFFCURVE",
"1657 283 CURVE",
"1700 336 LINE",
"1485 436 OFFCURVE",
"1364 672 OFFCURVE",
"1364 870 CURVE SMOOTH",
"1364 1227 LINE"
);
},
{
closed = 1;
nodes = (
"381 1223 LINE",
"381 289 LINE",
"918 289 LINE",
"918 1223 LINE",
"854 1223 LINE",
"854 844 LINE",
"449 844 LINE",
"449 1223 LINE"
);
},
{
closed = 1;
nodes = (
"449 784 LINE",
"854 784 LINE",
"854 350 LINE",
"449 350 LINE"
);
}
);
width = 1884;
}
);
unicode = "3144,FFB4";
}
{
color = 0;
glyphname = uni3145;
layers = (
{
layerId = "99E75090-8A73-42EE-982D-99D4C12EA1BB";
paths = (
{
closed = 1;
nodes = (
"776 1337 LINE",
"776 1067 LINE SMOOTH",
"776 811 OFFCURVE",
"653 563 OFFCURVE",
"231 481 CURVE",
"387 219 LINE",
"868 330 OFFCURVE",
"1055 655 OFFCURVE",
"1055 1067 CURVE SMOOTH",
"1055 1337 LINE"
);
},
{
closed = 1;
nodes = (
"827 1337 LINE",
"827 1067 LINE SMOOTH",
"827 655 OFFCURVE",
"1014 330 OFFCURVE",
"1495 219 CURVE",
"1651 481 LINE",
"1229 563 OFFCURVE",
"1106 811 OFFCURVE",
"1106 1067 CURVE SMOOTH",
"1106 1337 LINE"
);
}
);
width = 1884;
},
{
layerId = "35A15426-DDB1-4AC4-90C4-1762146010E5";
paths = (
{
closed = 1;
nodes = (
"926 1262 LINE",
"926 944 LINE SMOOTH",
"926 602 OFFCURVE",
"606 408 OFFCURVE",
"340 338 CURVE",
"375 281 LINE",
"659 365 OFFCURVE",
"987 565 OFFCURVE",
"987 944 CURVE SMOOTH",
"987 1262 LINE"
);
},
{
closed = 1;
nodes = (
"932 1262 LINE",
"932 944 LINE SMOOTH",
"932 565 OFFCURVE",
"1262 365 OFFCURVE",
"1544 281 CURVE",
"1579 338 LINE",
"1313 408 OFFCURVE",
"993 602 OFFCURVE",
"993 944 CURVE SMOOTH",
"993 1262 LINE"
);
}
);
width = 1884;
}
);
unicode = "3145,FFB5";
}
{
color = 0;
glyphname = uni3146;
layers = (
{
layerId = "99E75090-8A73-42EE-982D-99D4C12EA1BB";
paths = (
{
closed = 1;
nodes = (
"457 1278 LINE",
"457 1204 LINE SMOOTH",
"457 930 OFFCURVE",
"381 672 OFFCURVE",
"96 551 CURVE",
"276 311 LINE",
"602 459 OFFCURVE",
"702 805 OFFCURVE",
"702 1204 CURVE SMOOTH",
"702 1278 LINE"
);
},
{
closed = 1;
nodes = (
"553 1278 LINE",
"553 1204 LINE SMOOTH",
"553 836 OFFCURVE",
"641 453 OFFCURVE",
"969 291 CURVE",
"1112 537 LINE",
"854 684 OFFCURVE",
"788 950 OFFCURVE",
"788 1204 CURVE SMOOTH",
"788 1278 LINE"
);
},
{
closed = 1;
nodes = (
"1157 1278 LINE",
"1157 1204 LINE SMOOTH",
"1157 950 OFFCURVE",
"1090 684 OFFCURVE",
"825 537 CURVE",
"969 291 LINE",
"1300 451 OFFCURVE",
"1393 836 OFFCURVE",
"1393 1204 CURVE SMOOTH",
"1393 1278 LINE"
);
},
{
closed = 1;
nodes = (
"1241 1278 LINE",
"1241 1204 LINE SMOOTH",
"1241 805 OFFCURVE",
"1341 459 OFFCURVE",
"1669 311 CURVE",
"1847 551 LINE",
"1565 672 OFFCURVE",
"1489 930 OFFCURVE",
"1489 1204 CURVE SMOOTH",
"1489 1278 LINE"
);
}
);
width = 1884;
},
{
layerId = "35A15426-DDB1-4AC4-90C4-1762146010E5";
paths = (
{
closed = 1;
nodes = (
"588 1217 LINE",
"588 872 LINE SMOOTH",
"588 731 OFFCURVE",
"477 475 OFFCURVE",
"270 362 CURVE",
"317 311 LINE",
"535 436 OFFCURVE",
"647 707 OFFCURVE",
"647 872 CURVE SMOOTH",
"647 1217 LINE"
);
},
{
closed = 1;
nodes = (
"596 1217 LINE",
"596 860 LINE SMOOTH",
"596 692 OFFCURVE",
"717 403 OFFCURVE",
"950 281 CURVE",
"985 338 LINE",
"774 451 OFFCURVE",
"655 713 OFFCURVE",
"655 860 CURVE SMOOTH",
"655 1217 LINE"
);
},
{
closed = 1;
nodes = (
"1245 1217 LINE",
"1245 860 LINE SMOOTH",
"1245 696 OFFCURVE",
"1124 444 OFFCURVE",
"915 338 CURVE",
"950 281 LINE",
"1182 397 OFFCURVE",
"1305 676 OFFCURVE",
"1305 860 CURVE SMOOTH",
"1305 1217 LINE"
);
},
{
closed = 1;
nodes = (
"1253 1217 LINE",
"1253 872 LINE SMOOTH",
"1253 676 OFFCURVE",
"1364 428 OFFCURVE",
"1587 315 CURVE",
"1630 369 LINE",
"1421 467 OFFCURVE",
"1313 698 OFFCURVE",
"1313 872 CURVE SMOOTH",
"1313 1217 LINE"
);
}
);
width = 1884;
}
);
unicode = "3146,FFB6";
}
{
color = 0;
glyphname = uni3147;
layers = (
{
layerId = "99E75090-8A73-42EE-982D-99D4C12EA1BB";
paths = (
{
closed = 1;
nodes = (
"606 1339 OFFCURVE",
"326 1106 OFFCURVE",
"326 788 CURVE SMOOTH",
"326 469 OFFCURVE",
"606 233 OFFCURVE",
"944 233 CURVE SMOOTH",
"1282 233 OFFCURVE",
"1563 469 OFFCURVE",
"1563 788 CURVE SMOOTH",
"1563 1106 OFFCURVE",
"1282 1339 OFFCURVE",
"944 1339 CURVE SMOOTH"
);
},
{
closed = 1;
nodes = (
"1114 1061 OFFCURVE",
"1249 961 OFFCURVE",
"1249 788 CURVE SMOOTH",
"1249 612 OFFCURVE",
"1114 512 OFFCURVE",
"944 512 CURVE SMOOTH",
"774 512 OFFCURVE",
"639 612 OFFCURVE",
"639 788 CURVE SMOOTH",
"639 961 OFFCURVE",
"774 1061 OFFCURVE",
"944 1061 CURVE SMOOTH"
);
}
);
width = 1884;
},
{
layerId = "35A15426-DDB1-4AC4-90C4-1762146010E5";
paths = (
{
closed = 1;
nodes = (
"627 1247 OFFCURVE",
"389 1049 OFFCURVE",
"389 766 CURVE SMOOTH",
"389 481 OFFCURVE",
"627 283 OFFCURVE",
"942 283 CURVE SMOOTH",
"1257 283 OFFCURVE",
"1495 481 OFFCURVE",
"1495 766 CURVE SMOOTH",
"1495 1049 OFFCURVE",
"1257 1247 OFFCURVE",
"942 1247 CURVE SMOOTH"
);
},
{
closed = 1;
nodes = (
"1214 1186 OFFCURVE",
"1425 999 OFFCURVE",
"1425 766 CURVE SMOOTH",
"1425 530 OFFCURVE",
"1214 342 OFFCURVE",
"942 342 CURVE SMOOTH",
"670 342 OFFCURVE",
"459 530 OFFCURVE",
"459 766 CURVE SMOOTH",
"459 999 OFFCURVE",
"670 1186 OFFCURVE",
"942 1186 CURVE SMOOTH"
);
}
);
width = 1884;
}
);
unicode = "3147,FFB7";
}
{
color = 0;
glyphname = uni3148;
layers = (
{
layerId = "99E75090-8A73-42EE-982D-99D4C12EA1BB";
paths = (
{
closed = 1;
nodes = (
"778 1296 LINE",
"778 1065 LINE SMOOTH",
"778 807 OFFCURVE",
"653 561 OFFCURVE",
"256 477 CURVE",
"406 227 LINE",
"858 340 OFFCURVE",
"1038 662 OFFCURVE",
"1038 1065 CURVE SMOOTH",
"1038 1296 LINE"
);
},
{
closed = 1;
nodes = (
"846 1296 LINE",
"846 1065 LINE SMOOTH",
"846 662 OFFCURVE",
"1026 340 OFFCURVE",
"1479 227 CURVE",
"1628 477 LINE",
"1231 561 OFFCURVE",
"1106 807 OFFCURVE",
"1106 1065 CURVE SMOOTH",
"1106 1296 LINE"
);
},
{
closed = 1;
nodes = (
"328 1333 LINE",
"328 1073 LINE",
"1573 1073 LINE",
"1573 1333 LINE"
);
}
);
width = 1884;
},
{
layerId = "35A15426-DDB1-4AC4-90C4-1762146010E5";
paths = (
{
closed = 1;
nodes = (
"934 1198 LINE",
"934 977 LINE SMOOTH",
"934 641 OFFCURVE",
"647 432 OFFCURVE",
"385 348 CURVE",
"424 291 LINE",
"700 387 OFFCURVE",
"995 604 OFFCURVE",
"995 977 CURVE SMOOTH",
"995 1198 LINE"
);
},
{
closed = 1;
nodes = (
"940 1198 LINE",
"940 977 LINE SMOOTH",
"940 604 OFFCURVE",
"1235 387 OFFCURVE",
"1511 291 CURVE",
"1550 348 LINE",
"1288 432 OFFCURVE",
"1001 641 OFFCURVE",
"1001 977 CURVE SMOOTH",
"1001 1198 LINE"
);
},
{
closed = 1;
nodes = (
"424 1235 LINE",
"424 1176 LINE",
"1505 1176 LINE",
"1505 1235 LINE"
);
}
);
width = 1884;
}
);
unicode = "3148,FFB8";
}
{
color = 0;
glyphname = uni3149;
layers = (
{
layerId = "99E75090-8A73-42EE-982D-99D4C12EA1BB";
paths = (
{
closed = 1;
nodes = (
"428 1276 LINE",
"428 1202 LINE SMOOTH",
"428 903 OFFCURVE",
"356 625 OFFCURVE",
"63 496 CURVE",
"254 236 LINE",
"596 395 OFFCURVE",
"692 768 OFFCURVE",
"692 1202 CURVE SMOOTH",
"692 1276 LINE"
);
},
{
closed = 1;
nodes = (
"479 1276 LINE",
"479 1202 LINE SMOOTH",
"479 696 OFFCURVE",
"563 348 OFFCURVE",
"973 207 CURVE",
"1145 489 LINE",
"823 569 OFFCURVE",
"754 834 OFFCURVE",
"754 1202 CURVE SMOOTH",
"754 1276 LINE"
);
},
{
closed = 1;
nodes = (
"1190 1276 LINE",
"1190 1202 LINE SMOOTH",
"1190 834 OFFCURVE",
"1118 569 OFFCURVE",
"797 489 CURVE",
"971 207 LINE",
"1380 348 OFFCURVE",
"1464 696 OFFCURVE",
"1464 1202 CURVE SMOOTH",
"1464 1276 LINE"
);
},
{
closed = 1;
nodes = (
"1249 1276 LINE",
"1249 1202 LINE SMOOTH",
"1249 768 OFFCURVE",
"1346 395 OFFCURVE",
"1690 236 CURVE",
"1880 496 LINE",
"1587 625 OFFCURVE",
"1513 903 OFFCURVE",
"1513 1202 CURVE SMOOTH",
"1513 1276 LINE"
);
},
{
closed = 1;
nodes = (
"182 1335 LINE",
"182 1075 LINE",
"930 1075 LINE",
"930 1335 LINE"
);
},
{
closed = 1;
nodes = (
"1010 1335 LINE",
"1010 1075 LINE",
"1759 1075 LINE",
"1759 1335 LINE"
);
}
);
width = 1884;
},
{
layerId = "35A15426-DDB1-4AC4-90C4-1762146010E5";
paths = (
{
closed = 1;
nodes = (
"590 1217 LINE",
"590 934 LINE SMOOTH",
"590 731 OFFCURVE",
"479 481 OFFCURVE",
"266 377 CURVE",
"313 324 LINE",
"535 442 OFFCURVE",
"649 705 OFFCURVE",
"649 934 CURVE SMOOTH",
"649 1217 LINE"
);
},
{
closed = 1;
nodes = (
"598 1217 LINE",
"598 934 LINE SMOOTH",
"598 631 OFFCURVE",
"711 406 OFFCURVE",
"950 299 CURVE",
"987 356 LINE",
"768 444 OFFCURVE",
"657 657 OFFCURVE",
"657 934 CURVE SMOOTH",
"657 1217 LINE"
);
},
{
closed = 1;
nodes = (
"1243 1217 LINE",
"1243 934 LINE SMOOTH",
"1243 657 OFFCURVE",
"1133 444 OFFCURVE",
"913 356 CURVE",
"950 299 LINE",
"1190 406 OFFCURVE",
"1303 631 OFFCURVE",
"1303 934 CURVE SMOOTH",
"1303 1217 LINE"
);
},
{
closed = 1;
nodes = (
"1251 1217 LINE",
"1251 934 LINE SMOOTH",
"1251 713 OFFCURVE",
"1352 444 OFFCURVE",
"1571 324 CURVE",
"1618 377 LINE",
"1409 485 OFFCURVE",
"1311 735 OFFCURVE",
"1311 934 CURVE SMOOTH",
"1311 1217 LINE"
);
},
{
closed = 1;
nodes = (
"328 1255 LINE",
"328 1194 LINE",
"913 1194 LINE",
"913 1255 LINE"
);
},
{
closed = 1;
nodes = (
"985 1255 LINE",
"985 1194 LINE",
"1569 1194 LINE",
"1569 1255 LINE"
);
}
);
width = 1884;
}
);
unicode = "3149,FFB9";
}
{
color = 0;
glyphname = uni314A;
layers = (
{
layerId = "99E75090-8A73-42EE-982D-99D4C12EA1BB";
paths = (
{
closed = 1;
nodes = (
"739 928 LINE",
"739 909 LINE SMOOTH",
"739 711 OFFCURVE",
"633 520 OFFCURVE",
"231 463 CURVE",
"377 207 LINE",
"836 291 OFFCURVE",
"1016 555 OFFCURVE",
"1016 909 CURVE SMOOTH",
"1016 928 LINE"
);
},
{
closed = 1;
nodes = (
"862 928 LINE",
"862 909 LINE SMOOTH",
"862 555 OFFCURVE",
"1042 291 OFFCURVE",
"1501 207 CURVE",
"1647 463 LINE",
"1245 520 OFFCURVE",
"1139 711 OFFCURVE",
"1139 909 CURVE SMOOTH",
"1139 928 LINE"
);
},
{
closed = 1;
nodes = (
"309 1176 LINE",
"309 909 LINE",
"1575 909 LINE",
"1575 1176 LINE"
);
},
{
closed = 1;
nodes = (
"776 1464 LINE",
"776 1040 LINE",
"1106 1040 LINE",
"1106 1464 LINE"
);
}
);
width = 1884;
},
{
layerId = "35A15426-DDB1-4AC4-90C4-1762146010E5";
paths = (
{
closed = 1;
nodes = (
"915 1018 LINE",
"915 909 LINE SMOOTH",
"915 584 OFFCURVE",
"635 371 OFFCURVE",
"377 289 CURVE",
"418 233 LINE",
"688 328 OFFCURVE",
"977 547 OFFCURVE",
"977 909 CURVE SMOOTH",
"977 1018 LINE"
);
},
{
closed = 1;
nodes = (
"924 1018 LINE",
"924 909 LINE SMOOTH",
"924 547 OFFCURVE",
"1214 328 OFFCURVE",
"1485 233 CURVE",
"1524 289 LINE",
"1266 371 OFFCURVE",
"985 584 OFFCURVE",
"985 909 CURVE SMOOTH",
"985 1018 LINE"
);
},
{
closed = 1;
nodes = (
"410 1059 LINE",
"410 997 LINE",
"1489 997 LINE",
"1489 1059 LINE"
);
},
{
closed = 1;
nodes = (
"918 1315 LINE",
"918 1030 LINE",
"985 1030 LINE",
"985 1315 LINE"
);
}
);
width = 1884;
}
);
unicode = "314A,FFBA";
}
{
color = 0;
glyphname = uni314B;
layers = (
{
layerId = "99E75090-8A73-42EE-982D-99D4C12EA1BB";
paths = (
{
closed = 1;
nodes = (
"367 1333 LINE",
"367 1073 LINE",
"1247 1073 LINE",
"1247 242 LINE",
"1579 242 LINE",
"1579 1333 LINE"
);
},
{
closed = 1;
nodes = (
"1331 868 LINE",
"309 827 LINE",
"346 549 LINE",
"1331 618 LINE"
);
}
);
width = 1884;
},
{
layerId = "35A15426-DDB1-4AC4-90C4-1762146010E5";
paths = (
{
closed = 1;
nodes = (
"403 1243 LINE",
"403 1182 LINE",
"1430 1182 LINE",
"1430 276 LINE",
"1497 276 LINE",
"1497 1243 LINE"
);
},
{
closed = 1;
nodes = (
"1470 813 LINE",
"373 762 LINE",
"387 688 LINE",
"1470 752 LINE"
);
}
);
width = 1884;
}
);
unicode = "314B,FFBB";
}
{
color = 0;
glyphname = uni314C;
layers = (
{
layerId = "99E75090-8A73-42EE-982D-99D4C12EA1BB";
paths = (
{
closed = 1;
nodes = (
"319 1319 LINE",
"319 381 LINE",
"651 381 LINE",
"651 1059 LINE",
"1548 1059 LINE",
"1548 1319 LINE"
);
},
{
closed = 1;
nodes = (
"319 516 LINE",
"319 256 LINE",
"1565 256 LINE",
"1565 516 LINE"
);
},
{
closed = 1;
nodes = (
"383 924 LINE",
"383 664 LINE",
"1532 664 LINE",
"1532 924 LINE"
);
}
);
width = 1884;
},
{
layerId = "35A15426-DDB1-4AC4-90C4-1762146010E5";
paths = (
{
closed = 1;
nodes = (
"416 1221 LINE",
"416 324 LINE",
"481 324 LINE",
"481 1159 LINE",
"1516 1159 LINE",
"1516 1221 LINE"
);
},
{
closed = 1;
nodes = (
"416 354 LINE",
"416 293 LINE",
"1532 293 LINE",
"1532 354 LINE"
);
},
{
closed = 1;
nodes = (
"440 799 LINE",
"440 737 LINE",
"1501 737 LINE",
"1501 799 LINE"
);
}
);
width = 1884;
}
);
unicode = "314C,FFBC";
}
{
color = 0;
glyphname = uni314D;
layers = (
{
layerId = "99E75090-8A73-42EE-982D-99D4C12EA1BB";
paths = (
{
closed = 1;
nodes = (
"317 1321 LINE",
"317 1061 LINE",
"1573 1061 LINE",
"1573 1321 LINE"
);
},
{
closed = 1;
nodes = (
"291 500 LINE",
"291 238 LINE",
"1599 238 LINE",
"1599 500 LINE"
);
},
{
closed = 1;
nodes = (
"473 1108 LINE",
"473 397 LINE",
"801 397 LINE",
"801 1108 LINE"
);
},
{
closed = 1;
nodes = (
"1094 1108 LINE",
"1094 397 LINE",
"1421 397 LINE",
"1421 1108 LINE"
);
}
);
width = 1884;
},
{
layerId = "35A15426-DDB1-4AC4-90C4-1762146010E5";
paths = (
{
closed = 1;
nodes = (
"379 1212 LINE",
"379 1151 LINE",
"1534 1151 LINE",
"1534 1212 LINE"
);
},
{
closed = 1;
nodes = (
"352 350 LINE",
"352 289 LINE",
"1563 289 LINE",
"1563 350 LINE"
);
},
{
closed = 1;
nodes = (
"672 1169 LINE",
"672 324 LINE",
"739 324 LINE",
"739 1169 LINE"
);
},
{
closed = 1;
nodes = (
"1171 1169 LINE",
"1171 324 LINE",
"1239 324 LINE",
"1239 1169 LINE"
);
}
);
width = 1884;
}
);
unicode = "314D,FFBD";
}
{
color = 0;
glyphname = uni314E;
layers = (
{
layerId = "99E75090-8A73-42EE-982D-99D4C12EA1BB";
paths = (
{
closed = 1;
nodes = (
"311 1272 LINE",
"311 1006 LINE",
"1577 1006 LINE",
"1577 1272 LINE"
);
},
{
closed = 1;
nodes = (
"649 926 OFFCURVE",
"428 766 OFFCURVE",
"428 537 CURVE SMOOTH",
"428 309 OFFCURVE",
"649 150 OFFCURVE",
"948 150 CURVE SMOOTH",
"1247 150 OFFCURVE",
"1468 309 OFFCURVE",
"1468 537 CURVE SMOOTH",
"1468 766 OFFCURVE",
"1247 926 OFFCURVE",
"948 926 CURVE SMOOTH"
);
},
{
closed = 1;
nodes = (
"1053 651 OFFCURVE",
"1130 621 OFFCURVE",
"1130 537 CURVE SMOOTH",
"1130 455 OFFCURVE",
"1053 424 OFFCURVE",
"948 424 CURVE SMOOTH",
"844 424 OFFCURVE",
"766 455 OFFCURVE",
"766 537 CURVE SMOOTH",
"766 621 OFFCURVE",
"844 651 OFFCURVE",
"948 651 CURVE SMOOTH"
);
},
{
closed = 1;
nodes = (
"784 1497 LINE",
"784 1034 LINE",
"1114 1034 LINE",
"1114 1497 LINE"
);
}
);
width = 1884;
},
{
layerId = "35A15426-DDB1-4AC4-90C4-1762146010E5";
paths = (
{
closed = 1;
nodes = (
"356 1049 LINE",
"356 987 LINE",
"1559 987 LINE",
"1559 1049 LINE"
);
},
{
closed = 1;
nodes = (
"717 823 OFFCURVE",
"541 696 OFFCURVE",
"541 518 CURVE SMOOTH",
"541 338 OFFCURVE",
"717 211 OFFCURVE",
"956 211 CURVE SMOOTH",
"1196 211 OFFCURVE",
"1370 338 OFFCURVE",
"1370 518 CURVE SMOOTH",
"1370 696 OFFCURVE",
"1196 823 OFFCURVE",
"956 823 CURVE SMOOTH"
);
},
{
closed = 1;
nodes = (
"1153 764 OFFCURVE",
"1303 653 OFFCURVE",
"1303 518 CURVE SMOOTH",
"1303 381 OFFCURVE",
"1153 270 OFFCURVE",
"956 270 CURVE SMOOTH",
"760 270 OFFCURVE",
"610 381 OFFCURVE",
"610 518 CURVE SMOOTH",
"610 653 OFFCURVE",
"760 764 OFFCURVE",
"956 764 CURVE SMOOTH"
);
},
{
closed = 1;
nodes = (
"922 1313 LINE",
"922 1010 LINE",
"989 1010 LINE",
"989 1313 LINE"
);
}
);
width = 1884;
}
);
unicode = "314E,FFBE";
}
{
color = 0;
glyphname = uni314F;
layers = (
{
layerId = "99E75090-8A73-42EE-982D-99D4C12EA1BB";
paths = (
{
closed = 1;
nodes = (
"715 1720 LINE",
"715 -190 LINE",
"1047 -190 LINE",
"1047 1720 LINE"
);
},
{
closed = 1;
nodes = (
"969 1012 LINE",
"969 741 LINE",
"1411 741 LINE",
"1411 1012 LINE"
);
}
);
width = 1884;
},
{
layerId = "35A15426-DDB1-4AC4-90C4-1762146010E5";
paths = (
{
closed = 1;
nodes = (
"858 1624 LINE",
"858 -137 LINE",
"924 -137 LINE",
"924 1624 LINE"
);
},
{
closed = 1;
nodes = (
"903 862 LINE",
"903 801 LINE",
"1395 801 LINE",
"1395 862 LINE"
);
}
);
width = 1884;
}
);
unicode = "314F,FFC2";
}
{
color = 0;
glyphname = uni3150;
layers = (
{
layerId = "99E75090-8A73-42EE-982D-99D4C12EA1BB";
paths = (
{
closed = 1;
nodes = (
"1059 1724 LINE",
"1059 -186 LINE",
"1372 -186 LINE",
"1372 1724 LINE"
);
},
{
closed = 1;
nodes = (
"782 1026 LINE",
"782 760 LINE",
"1159 760 LINE",
"1159 1026 LINE"
);
},
{
closed = 1;
nodes = (
"553 1694 LINE",
"553 -113 LINE",
"860 -113 LINE",
"860 1694 LINE"
);
}
);
width = 1884;
},
{
layerId = "35A15426-DDB1-4AC4-90C4-1762146010E5";
paths = (
{
closed = 1;
nodes = (
"1153 1630 LINE",
"1153 -131 LINE",
"1219 -131 LINE",
"1219 1630 LINE"
);
},
{
closed = 1;
nodes = (
"719 879 LINE",
"719 817 LINE",
"1192 817 LINE",
"1192 879 LINE"
);
},
{
closed = 1;
nodes = (
"690 1599 LINE",
"690 -68 LINE",
"758 -68 LINE",
"758 1599 LINE"
);
}
);
width = 1884;
}
);
unicode = "3150,FFC3";
}
{
color = 0;
glyphname = uni3151;
layers = (
{
layerId = "99E75090-8A73-42EE-982D-99D4C12EA1BB";
paths = (
{
closed = 1;
nodes = (
"920 1280 LINE",
"920 1010 LINE",
"1364 1010 LINE",
"1364 1280 LINE"
);
},
{
closed = 1;
nodes = (
"920 725 LINE",
"920 457 LINE",
"1364 457 LINE",
"1364 725 LINE"
);
},
{
closed = 1;
nodes = (
"674 1720 LINE",
"674 -190 LINE",
"1004 -190 LINE",
"1004 1720 LINE"
);
}
);
width = 1884;
},
{
layerId = "35A15426-DDB1-4AC4-90C4-1762146010E5";
paths = (
{
closed = 1;
nodes = (
"829 1034 LINE",
"829 975 LINE",
"1313 975 LINE",
"1313 1034 LINE"
);
},
{
closed = 1;
nodes = (
"829 563 LINE",
"829 502 LINE",
"1313 502 LINE",
"1313 563 LINE"
);
},
{
closed = 1;
nodes = (
"791 1630 LINE",
"791 -129 LINE",
"858 -129 LINE",
"858 1630 LINE"
);
}
);
width = 1884;
}
);
unicode = "3151,FFC4";
}
{
color = 0;
glyphname = uni3152;
layers = (
{
layerId = "99E75090-8A73-42EE-982D-99D4C12EA1BB";
paths = (
{
closed = 1;
nodes = (
"1042 1716 LINE",
"1042 -195 LINE",
"1356 -195 LINE",
"1356 1716 LINE"
);
},
{
closed = 1;
nodes = (
"799 1321 LINE",
"799 1053 LINE",
"1092 1053 LINE",
"1092 1321 LINE"
);
},
{
closed = 1;
nodes = (
"553 1694 LINE",
"553 -123 LINE",
"860 -123 LINE",
"860 1694 LINE"
);
},
{
closed = 1;
nodes = (
"799 756 LINE",
"799 487 LINE",
"1092 487 LINE",
"1092 756 LINE"
);
}
);
width = 1884;
},
{
layerId = "35A15426-DDB1-4AC4-90C4-1762146010E5";
paths = (
{
closed = 1;
nodes = (
"1151 1628 LINE",
"1151 -133 LINE",
"1217 -133 LINE",
"1217 1628 LINE"
);
},
{
closed = 1;
nodes = (
"723 1053 LINE",
"723 991 LINE",
"1186 991 LINE",
"1186 1053 LINE"
);
},
{
closed = 1;
nodes = (
"692 1599 LINE",
"692 -68 LINE",
"760 -68 LINE",
"760 1599 LINE"
);
},
{
closed = 1;
nodes = (
"723 592 LINE",
"723 532 LINE",
"1186 532 LINE",
"1186 592 LINE"
);
}
);
width = 1884;
}
);
unicode = "3152,FFC5";
}
{
color = 0;
glyphname = uni3153;
layers = (
{
layerId = "99E75090-8A73-42EE-982D-99D4C12EA1BB";
paths = (
{
closed = 1;
nodes = (
"967 1724 LINE",
"967 -186 LINE",
"1296 -186 LINE",
"1296 1724 LINE"
);
},
{
closed = 1;
nodes = (
"592 1038 LINE",
"592 768 LINE",
"1024 768 LINE",
"1024 1038 LINE"
);
}
);
width = 1884;
},
{
layerId = "35A15426-DDB1-4AC4-90C4-1762146010E5";
paths = (
{
closed = 1;
nodes = (
"1090 1624 LINE",
"1090 -137 LINE",
"1157 -137 LINE",
"1157 1624 LINE"
);
},
{
closed = 1;
nodes = (
"618 864 LINE",
"618 803 LINE",
"1128 803 LINE",
"1128 864 LINE"
);
}
);
width = 1884;
}
);
unicode = "3153,FFC6";
}
{
color = 0;
glyphname = uni3154;
layers = (
{
layerId = "99E75090-8A73-42EE-982D-99D4C12EA1BB";
paths = (
{
closed = 1;
nodes = (
"1120 1724 LINE",
"1120 -186 LINE",
"1434 -186 LINE",
"1434 1724 LINE"
);
},
{
closed = 1;
nodes = (
"459 1030 LINE",
"459 760 LINE",
"825 760 LINE",
"825 1030 LINE"
);
},
{
closed = 1;
nodes = (
"694 1688 LINE",
"694 -129 LINE",
"1001 -129 LINE",
"1001 1688 LINE"
);
}
);
width = 1884;
},
{
layerId = "35A15426-DDB1-4AC4-90C4-1762146010E5";
paths = (
{
closed = 1;
nodes = (
"1219 1622 LINE",
"1219 -139 LINE",
"1286 -139 LINE",
"1286 1622 LINE"
);
},
{
closed = 1;
nodes = (
"487 879 LINE",
"487 817 LINE",
"932 817 LINE",
"932 879 LINE"
);
},
{
closed = 1;
nodes = (
"889 1599 LINE",
"889 -68 LINE",
"956 -68 LINE",
"956 1599 LINE"
);
}
);
width = 1884;
}
);
unicode = "3154,FFC7";
}
{
color = 0;
glyphname = uni3155;
layers = (
{
layerId = "99E75090-8A73-42EE-982D-99D4C12EA1BB";
paths = (
{
closed = 1;
nodes = (
"973 1718 LINE",
"973 -193 LINE",
"1303 -193 LINE",
"1303 1718 LINE"
);
},
{
closed = 1;
nodes = (
"584 1298 LINE",
"584 1028 LINE",
"1016 1028 LINE",
"1016 1298 LINE"
);
},
{
closed = 1;
nodes = (
"584 731 LINE",
"584 463 LINE",
"1016 463 LINE",
"1016 731 LINE"
);
}
);
width = 1884;
},
{
layerId = "35A15426-DDB1-4AC4-90C4-1762146010E5";
paths = (
{
closed = 1;
nodes = (
"1094 1628 LINE",
"1094 -133 LINE",
"1161 -133 LINE",
"1161 1628 LINE"
);
},
{
closed = 1;
nodes = (
"629 1071 LINE",
"629 1010 LINE",
"1139 1010 LINE",
"1139 1071 LINE"
);
},
{
closed = 1;
nodes = (
"629 633 LINE",
"629 571 LINE",
"1139 571 LINE",
"1139 633 LINE"
);
}
);
width = 1884;
}
);
unicode = "3155,FFCA";
}
{
color = 0;
glyphname = uni3156;
layers = (
{
layerId = "99E75090-8A73-42EE-982D-99D4C12EA1BB";
paths = (
{
closed = 1;
nodes = (
"434 1274 LINE",
"434 1008 LINE",
"801 1008 LINE",
"801 1274 LINE"
);
},
{
closed = 1;
nodes = (
"426 737 LINE",
"426 471 LINE",
"793 471 LINE",
"793 737 LINE"
);
},
{
closed = 1;
nodes = (
"1108 1722 LINE",
"1108 -188 LINE",
"1421 -188 LINE",
"1421 1722 LINE"
);
},
{
closed = 1;
nodes = (
"696 1686 LINE",
"696 -131 LINE",
"1004 -131 LINE",
"1004 1686 LINE"
);
}
);
width = 1884;
},
{
layerId = "35A15426-DDB1-4AC4-90C4-1762146010E5";
paths = (
{
closed = 1;
nodes = (
"494 1098 LINE",
"494 1036 LINE",
"928 1036 LINE",
"928 1098 LINE"
);
},
{
closed = 1;
nodes = (
"494 641 LINE",
"494 582 LINE",
"928 582 LINE",
"928 641 LINE"
);
},
{
closed = 1;
nodes = (
"1219 1620 LINE",
"1219 -141 LINE",
"1286 -141 LINE",
"1286 1620 LINE"
);
},
{
closed = 1;
nodes = (
"889 1599 LINE",
"889 -68 LINE",
"956 -68 LINE",
"956 1599 LINE"
);
}
);
width = 1884;
}
);
unicode = "3156,FFCB";
}
{
color = 0;
glyphname = uni3157;
layers = (
{
layerId = "99E75090-8A73-42EE-982D-99D4C12EA1BB";
paths = (
{
closed = 1;
nodes = (
"74 610 LINE",
"74 346 LINE",
"1812 346 LINE",
"1812 610 LINE"
);
},
{
closed = 1;
nodes = (
"776 1313 LINE",
"776 537 LINE",
"1106 537 LINE",
"1106 1313 LINE"
);
}
);
width = 1884;
},
{
layerId = "35A15426-DDB1-4AC4-90C4-1762146010E5";
paths = (
{
closed = 1;
nodes = (
"127 494 LINE",
"127 434 LINE",
"1749 434 LINE",
"1749 494 LINE"
);
},
{
closed = 1;
nodes = (
"903 1309 LINE",
"903 463 LINE",
"969 463 LINE",
"969 1309 LINE"
);
}
);
width = 1884;
}
);
unicode = "3157,FFCC";
}
{
color = 0;
glyphname = uni3158;
layers = (
{
layerId = "99E75090-8A73-42EE-982D-99D4C12EA1BB";
paths = (
{
closed = 1;
nodes = (
"479 1133 LINE",
"479 481 LINE",
"803 481 LINE",
"803 1133 LINE"
);
},
{
closed = 1;
nodes = (
"1290 1720 LINE",
"1290 -190 LINE",
"1620 -190 LINE",
"1620 1720 LINE"
);
},
{
closed = 1;
nodes = (
"1511 1001 LINE",
"1511 729 LINE",
"1841 729 LINE",
"1841 1001 LINE"
);
},
{
closed = 1;
nodes = (
"80 225 LINE",
"410 225 OFFCURVE",
"844 236 OFFCURVE",
"1229 305 CURVE",
"1202 541 LINE",
"827 496 OFFCURVE",
"383 492 OFFCURVE",
"47 492 CURVE"
);
}
);
width = 1884;
},
{
layerId = "35A15426-DDB1-4AC4-90C4-1762146010E5";
paths = (
{
closed = 1;
nodes = (
"696 1065 LINE",
"696 395 LINE",
"764 395 LINE",
"764 1065 LINE"
);
},
{
closed = 1;
nodes = (
"1378 1622 LINE",
"1378 -139 LINE",
"1446 -139 LINE",
"1446 1622 LINE"
);
},
{
closed = 1;
nodes = (
"1411 864 LINE",
"1411 803 LINE",
"1761 803 LINE",
"1761 864 LINE"
);
},
{
closed = 1;
nodes = (
"180 352 LINE",
"492 352 OFFCURVE",
"922 362 OFFCURVE",
"1292 418 CURVE",
"1286 471 LINE",
"928 426 OFFCURVE",
"485 418 OFFCURVE",
"164 418 CURVE"
);
}
);
width = 1884;
}
);
unicode = "3158,FFCD";
}
{
color = 0;
glyphname = uni3159;
layers = (
{
layerId = "99E75090-8A73-42EE-982D-99D4C12EA1BB";
paths = (
{
closed = 1;
nodes = (
"426 1124 LINE",
"426 473 LINE",
"727 473 LINE",
"727 1124 LINE"
);
},
{
closed = 1;
nodes = (
"106 287 LINE",
"354 287 OFFCURVE",
"743 297 OFFCURVE",
"1034 354 CURVE",
"1010 592 LINE",
"725 555 OFFCURVE",
"326 551 OFFCURVE",
"78 551 CURVE"
);
},
{
closed = 1;
nodes = (
"1495 1726 LINE",
"1495 -184 LINE",
"1808 -184 LINE",
"1808 1726 LINE"
);
},
{
closed = 1;
nodes = (
"1298 971 LINE",
"1298 705 LINE",
"1591 705 LINE",
"1591 971 LINE"
);
},
{
closed = 1;
nodes = (
"1094 1700 LINE",
"1094 -117 LINE",
"1399 -117 LINE",
"1399 1700 LINE"
);
}
);
width = 1884;
},
{
layerId = "35A15426-DDB1-4AC4-90C4-1762146010E5";
paths = (
{
closed = 1;
nodes = (
"596 1085 LINE",
"596 428 LINE",
"664 428 LINE",
"664 1085 LINE"
);
},
{
closed = 1;
nodes = (
"174 385 LINE",
"424 385 OFFCURVE",
"815 393 OFFCURVE",
"1108 438 CURVE",
"1102 494 LINE",
"817 457 OFFCURVE",
"414 449 OFFCURVE",
"162 449 CURVE"
);
},
{
closed = 1;
nodes = (
"1526 1622 LINE",
"1526 -139 LINE",
"1593 -139 LINE",
"1593 1622 LINE"
);
},
{
closed = 1;
nodes = (
"1219 893 LINE",
"1219 834 LINE",
"1579 834 LINE",
"1579 893 LINE"
);
},
{
closed = 1;
nodes = (
"1178 1597 LINE",
"1178 -70 LINE",
"1245 -70 LINE",
"1245 1597 LINE"
);
}
);
width = 1884;
}
);
unicode = "3159,FFCE";
}
{
color = 0;
glyphname = uni315A;
layers = (
{
layerId = "99E75090-8A73-42EE-982D-99D4C12EA1BB";
paths = (
{
closed = 1;
nodes = (
"596 1114 LINE",
"596 442 LINE",
"922 442 LINE",
"922 1114 LINE"
);
},
{
closed = 1;
nodes = (
"1411 1731 LINE",
"1411 -180 LINE",
"1743 -180 LINE",
"1743 1731 LINE"
);
},
{
closed = 1;
nodes = (
"178 283 LINE",
"516 283 OFFCURVE",
"950 289 OFFCURVE",
"1352 358 CURVE",
"1325 598 LINE",
"936 549 OFFCURVE",
"487 547 OFFCURVE",
"139 547 CURVE"
);
}
);
width = 1884;
},
{
layerId = "35A15426-DDB1-4AC4-90C4-1762146010E5";
paths = (
{
closed = 1;
nodes = (
"766 1059 LINE",
"766 420 LINE",
"831 420 LINE",
"831 1059 LINE"
);
},
{
closed = 1;
nodes = (
"1475 1622 LINE",
"1475 -139 LINE",
"1542 -139 LINE",
"1542 1622 LINE"
);
},
{
closed = 1;
nodes = (
"256 371 LINE",
"559 371 OFFCURVE",
"987 379 OFFCURVE",
"1352 436 CURVE",
"1346 489 LINE",
"991 440 OFFCURVE",
"551 436 OFFCURVE",
"240 436 CURVE"
);
}
);
width = 1884;
}
);
unicode = "315A,FFCF";
}
{
color = 0;
glyphname = uni315B;
layers = (
{
layerId = "99E75090-8A73-42EE-982D-99D4C12EA1BB";
paths = (
{
closed = 1;
nodes = (
"74 553 LINE",
"74 289 LINE",
"1812 289 LINE",
"1812 553 LINE"
);
},
{
closed = 1;
nodes = (
"434 1292 LINE",
"434 467 LINE",
"760 467 LINE",
"760 1292 LINE"
);
},
{
closed = 1;
nodes = (
"1126 1292 LINE",
"1126 467 LINE",
"1452 467 LINE",
"1452 1292 LINE"
);
}
);
width = 1884;
},
{
layerId = "35A15426-DDB1-4AC4-90C4-1762146010E5";
paths = (
{
closed = 1;
nodes = (
"150 451 LINE",
"150 389 LINE",
"1769 389 LINE",
"1769 451 LINE"
);
},
{
closed = 1;
nodes = (
"623 1313 LINE",
"623 412 LINE",
"690 412 LINE",
"690 1313 LINE"
);
},
{
closed = 1;
nodes = (
"1233 1313 LINE",
"1233 420 LINE",
"1300 420 LINE",
"1300 1313 LINE"
);
}
);
width = 1884;
}
);
unicode = "315B,FFD2";
}
{
color = 0;
glyphname = uni315C;
layers = (
{
layerId = "99E75090-8A73-42EE-982D-99D4C12EA1BB";
paths = (
{
closed = 1;
nodes = (
"74 1110 LINE",
"74 846 LINE",
"1812 846 LINE",
"1812 1110 LINE"
);
},
{
closed = 1;
nodes = (
"778 901 LINE",
"778 86 LINE",
"1108 86 LINE",
"1108 901 LINE"
);
}
);
width = 1884;
},
{
layerId = "35A15426-DDB1-4AC4-90C4-1762146010E5";
paths = (
{
closed = 1;
nodes = (
"147 1034 LINE",
"147 973 LINE",
"1767 973 LINE",
"1767 1034 LINE"
);
},
{
closed = 1;
nodes = (
"922 1022 LINE",
"922 158 LINE",
"989 158 LINE",
"989 1022 LINE"
);
}
);
width = 1884;
}
);
unicode = "315C,FFD3";
}
{
color = 0;
glyphname = uni315D;
layers = (
{
layerId = "99E75090-8A73-42EE-982D-99D4C12EA1BB";
paths = (
{
closed = 1;
nodes = (
"553 729 LINE",
"553 -47 LINE",
"885 -47 LINE",
"885 729 LINE"
);
},
{
closed = 1;
nodes = (
"1446 1729 LINE",
"1446 -182 LINE",
"1778 -182 LINE",
"1778 1729 LINE"
);
},
{
closed = 1;
nodes = (
"125 672 LINE",
"481 674 OFFCURVE",
"924 684 OFFCURVE",
"1339 754 CURVE",
"1319 989 LINE",
"911 938 OFFCURVE",
"449 934 OFFCURVE",
"86 932 CURVE"
);
},
{
closed = 1;
nodes = (
"1092 553 LINE",
"1092 301 LINE",
"1505 301 LINE",
"1505 553 LINE"
);
}
);
width = 1884;
},
{
layerId = "35A15426-DDB1-4AC4-90C4-1762146010E5";
paths = (
{
closed = 1;
nodes = (
"690 784 LINE",
"690 4 LINE",
"758 4 LINE",
"758 784 LINE"
);
},
{
closed = 1;
nodes = (
"1561 1620 LINE",
"1561 -141 LINE",
"1626 -141 LINE",
"1626 1620 LINE"
);
},
{
closed = 1;
nodes = (
"213 743 LINE",
"561 743 OFFCURVE",
"1012 754 OFFCURVE",
"1409 803 CURVE",
"1403 858 LINE",
"1010 817 OFFCURVE",
"559 811 OFFCURVE",
"199 809 CURVE"
);
},
{
closed = 1;
nodes = (
"1067 494 LINE",
"1067 434 LINE",
"1587 434 LINE",
"1587 494 LINE"
);
}
);
width = 1884;
}
);
unicode = "315D,FFD4";
}
{
color = 0;
glyphname = uni315E;
layers = (
{
layerId = "99E75090-8A73-42EE-982D-99D4C12EA1BB";
paths = (
{
closed = 1;
nodes = (
"1497 1733 LINE",
"1497 -178 LINE",
"1810 -178 LINE",
"1810 1733 LINE"
);
},
{
closed = 1;
nodes = (
"1108 1702 LINE",
"1108 -115 LINE",
"1415 -115 LINE",
"1415 1702 LINE"
);
},
{
closed = 1;
nodes = (
"854 559 LINE",
"854 307 LINE",
"1221 307 LINE",
"1221 559 LINE"
);
},
{
closed = 1;
nodes = (
"428 743 LINE",
"428 -53 LINE",
"741 -53 LINE",
"741 743 LINE"
);
},
{
closed = 1;
nodes = (
"102 653 LINE",
"360 655 OFFCURVE",
"756 672 OFFCURVE",
"1051 725 CURVE",
"1028 944 LINE",
"739 909 OFFCURVE",
"334 901 OFFCURVE",
"76 901 CURVE"
);
}
);
width = 1884;
},
{
layerId = "35A15426-DDB1-4AC4-90C4-1762146010E5";
paths = (
{
closed = 1;
nodes = (
"1587 1620 LINE",
"1587 -141 LINE",
"1655 -141 LINE",
"1655 1620 LINE"
);
},
{
closed = 1;
nodes = (
"1264 1569 LINE",
"1264 -100 LINE",
"1331 -100 LINE",
"1331 1569 LINE"
);
},
{
closed = 1;
nodes = (
"879 496 LINE",
"879 436 LINE",
"1305 436 LINE",
"1305 496 LINE"
);
},
{
closed = 1;
nodes = (
"618 803 LINE",
"618 4 LINE",
"684 4 LINE",
"684 803 LINE"
);
},
{
closed = 1;
nodes = (
"199 756 LINE",
"463 756 OFFCURVE",
"860 776 OFFCURVE",
"1155 819 CURVE",
"1149 874 LINE",
"864 836 OFFCURVE",
"453 821 OFFCURVE",
"184 821 CURVE"
);
}
);
width = 1884;
}
);
unicode = "315E,FFD5";
}
{
color = 0;
glyphname = uni315F;
layers = (
{
layerId = "99E75090-8A73-42EE-982D-99D4C12EA1BB";
paths = (
{
closed = 1;
nodes = (
"588 680 LINE",
"588 -49 LINE",
"918 -49 LINE",
"918 680 LINE"
);
},
{
closed = 1;
nodes = (
"1427 1720 LINE",
"1427 -190 LINE",
"1759 -190 LINE",
"1759 1720 LINE"
);
},
{
closed = 1;
nodes = (
"164 608 LINE",
"516 610 OFFCURVE",
"950 621 OFFCURVE",
"1356 686 CURVE",
"1335 920 LINE",
"940 877 OFFCURVE",
"487 870 OFFCURVE",
"125 870 CURVE"
);
}
);
width = 1884;
},
{
layerId = "35A15426-DDB1-4AC4-90C4-1762146010E5";
paths = (
{
closed = 1;
nodes = (
"813 793 LINE",
"813 4 LINE",
"879 4 LINE",
"879 793 LINE"
);
},
{
closed = 1;
nodes = (
"1559 1622 LINE",
"1559 -139 LINE",
"1624 -139 LINE",
"1624 1622 LINE"
);
},
{
closed = 1;
nodes = (
"246 760 LINE",
"604 760 OFFCURVE",
"1059 770 OFFCURVE",
"1464 821 CURVE",
"1460 874 LINE",
"1057 834 OFFCURVE",
"600 827 OFFCURVE",
"231 825 CURVE"
);
}
);
width = 1884;
}
);
unicode = "315F,FFD6";
}
{
color = 0;
glyphname = uni3160;
layers = (
{
layerId = "99E75090-8A73-42EE-982D-99D4C12EA1BB";
paths = (
{
closed = 1;
nodes = (
"74 1118 LINE",
"74 854 LINE",
"1812 854 LINE",
"1812 1118 LINE"
);
},
{
closed = 1;
nodes = (
"440 903 LINE",
"440 88 LINE",
"770 88 LINE",
"770 903 LINE"
);
},
{
closed = 1;
nodes = (
"1102 903 LINE",
"1102 88 LINE",
"1432 88 LINE",
"1432 903 LINE"
);
}
);
width = 1884;
},
{
layerId = "35A15426-DDB1-4AC4-90C4-1762146010E5";
paths = (
{
closed = 1;
nodes = (
"127 1034 LINE",
"127 975 LINE",
"1749 975 LINE",
"1749 1034 LINE"
);
},
{
closed = 1;
nodes = (
"616 1014 LINE",
"616 158 LINE",
"682 158 LINE",
"682 1014 LINE"
);
},
{
closed = 1;
nodes = (
"1190 1014 LINE",
"1190 158 LINE",
"1257 158 LINE",
"1257 1014 LINE"
);
}
);
width = 1884;
}
);
unicode = "3160,FFD7";
}
{
color = 0;
glyphname = uni3161;
layers = (
{
layerId = "99E75090-8A73-42EE-982D-99D4C12EA1BB";
paths = (
{
closed = 1;
nodes = (
"74 940 LINE",
"74 674 LINE",
"1812 674 LINE",
"1812 940 LINE"
);
}
);
width = 1884;
},
{
layerId = "35A15426-DDB1-4AC4-90C4-1762146010E5";
paths = (
{
closed = 1;
nodes = (
"127 821 LINE",
"127 760 LINE",
"1749 760 LINE",
"1749 821 LINE"
);
}
);
width = 1884;
}
);
unicode = "3161,FFDA";
}
{
color = 0;
glyphname = uni3162;
layers = (
{
layerId = "99E75090-8A73-42EE-982D-99D4C12EA1BB";
paths = (
{
closed = 1;
nodes = (
"1423 1729 LINE",
"1423 -182 LINE",
"1755 -182 LINE",
"1755 1729 LINE"
);
},
{
closed = 1;
nodes = (
"154 352 LINE",
"508 352 OFFCURVE",
"932 356 OFFCURVE",
"1335 422 CURVE",
"1317 657 LINE",
"928 614 OFFCURVE",
"483 612 OFFCURVE",
"123 612 CURVE"
);
}
);
width = 1884;
},
{
layerId = "35A15426-DDB1-4AC4-90C4-1762146010E5";
paths = (
{
closed = 1;
nodes = (
"1503 1585 LINE",
"1503 -174 LINE",
"1569 -174 LINE",
"1569 1585 LINE"
);
},
{
closed = 1;
nodes = (
"197 477 LINE",
"539 477 OFFCURVE",
"989 487 OFFCURVE",
"1391 547 CURVE",
"1384 602 LINE",
"993 549 OFFCURVE",
"532 543 OFFCURVE",
"178 541 CURVE"
);
}
);
width = 1884;
}
);
unicode = "3162,FFDB";
}
{
color = 0;
glyphname = uni3163;
layers = (
{
layerId = "99E75090-8A73-42EE-982D-99D4C12EA1BB";
paths = (
{
closed = 1;
nodes = (
"782 1729 LINE",
"782 -182 LINE",
"1112 -182 LINE",
"1112 1729 LINE"
);
}
);
width = 1884;
},
{
layerId = "35A15426-DDB1-4AC4-90C4-1762146010E5";
paths = (
{
closed = 1;
nodes = (
"922 1622 LINE",
"922 -139 LINE",
"989 -139 LINE",
"989 1622 LINE"
);
}
);
width = 1884;
}
);
unicode = "3163,FFDC";
}
{
color = 0;
glyphname = uniAC00;
layers = (
{
layerId = "99E75090-8A73-42EE-982D-99D4C12EA1BB";
paths = (
{
closed = 1;
nodes = (
"1262 1731 LINE",
"1262 -190 LINE",
"1593 -190 LINE",
"1593 1731 LINE"
);
},
{
closed = 1;
nodes = (
"1509 1020 LINE",
"1509 750 LINE",
"1839 750 LINE",
"1839 1020 LINE"
);
},
{
closed = 1;
nodes = (
"750 1536 LINE",
"750 1477 LINE SMOOTH",
"750 950 OFFCURVE",
"526 627 OFFCURVE",
"37 371 CURVE",
"221 121 LINE",
"870 449 OFFCURVE",
"1073 942 OFFCURVE",
"1073 1536 CURVE"
);
},
{
closed = 1;
nodes = (
"152 1536 LINE",
"152 1272 LINE",
"920 1272 LINE",
"920 1536 LINE"
);
}
);
width = 1884;
},
{
layerId = "35A15426-DDB1-4AC4-90C4-1762146010E5";
paths = (
{
closed = 1;
nodes = (
"1415 1671 LINE",
"1415 -137 LINE",
"1483 -137 LINE",
"1483 1671 LINE"
);
},
{
closed = 1;
nodes = (
"1462 893 LINE",
"1462 834 LINE",
"1810 834 LINE",
"1810 893 LINE"
);
},
{
closed = 1;
nodes = (
"967 1468 LINE",
"967 1462 LINE SMOOTH",
"967 995 OFFCURVE",
"688 553 OFFCURVE",
"162 293 CURVE",
"199 238 LINE",
"766 520 OFFCURVE",
"1032 985 OFFCURVE",
"1032 1468 CURVE"
);
},
{
closed = 1;
nodes = (
"229 1468 LINE",
"229 1407 LINE",
"1001 1407 LINE",
"1001 1468 LINE"
);
}
);
width = 1884;
}
);
unicode = AC00;
}
{
color = 0;
glyphname = uniAC02;
layers = (
{
layerId = "99E75090-8A73-42EE-982D-99D4C12EA1BB";
paths = (
{
closed = 1;
nodes = (
"1266 1729 LINE",
"1266 647 LINE",
"1595 647 LINE",
"1595 1729 LINE"
);
},
{
closed = 1;
nodes = (
"1505 1319 LINE",
"1505 1051 LINE",
"1835 1051 LINE",
"1835 1319 LINE"
);
},
{
closed = 1;
nodes = (
"250 569 LINE",
"250 307 LINE",
"565 307 LINE",
"565 -195 LINE",
"893 -195 LINE",
"893 569 LINE"
);
},
{
closed = 1;
nodes = (
"971 569 LINE",
"971 307 LINE",
"1270 307 LINE",
"1270 -195 LINE",
"1595 -195 LINE",
"1595 569 LINE"
);
},
{
closed = 1;
nodes = (
"705 1628 LINE",
"705 1458 LINE SMOOTH",
"705 1202 OFFCURVE",
"496 973 OFFCURVE",
"35 862 CURVE",
"170 608 LINE",
"743 754 OFFCURVE",
"1055 1102 OFFCURVE",
"1055 1628 CURVE"
);
},
{
closed = 1;
nodes = (
"137 1628 LINE",
"137 1368 LINE",
"905 1368 LINE",
"905 1628 LINE"
);
}
);
width = 1884;
},
{
layerId = "35A15426-DDB1-4AC4-90C4-1762146010E5";
paths = (
{
closed = 1;
nodes = (
"1436 1671 LINE",
"1436 621 LINE",
"1503 621 LINE",
"1503 1671 LINE"
);
},
{
closed = 1;
nodes = (
"1485 1165 LINE",
"1485 1104 LINE",
"1798 1104 LINE",
"1798 1165 LINE"
);
},
{
closed = 1;
nodes = (
"322 526 LINE",
"322 465 LINE",
"807 465 LINE",
"807 -135 LINE",
"872 -135 LINE",
"872 526 LINE"
);
},
{
closed = 1;
nodes = (
"967 526 LINE",
"967 465 LINE",
"1436 465 LINE",
"1436 -135 LINE",
"1503 -135 LINE",
"1503 526 LINE"
);
},
{
closed = 1;
nodes = (
"954 1540 LINE",
"954 1526 LINE SMOOTH",
"954 1130 OFFCURVE",
"631 836 OFFCURVE",
"139 694 CURVE",
"168 637 LINE",
"688 784 OFFCURVE",
"1022 1110 OFFCURVE",
"1022 1540 CURVE"
);
},
{
closed = 1;
nodes = (
"211 1540 LINE",
"211 1481 LINE",
"981 1481 LINE",
"981 1540 LINE"
);
}
);
width = 1884;
}
);
unicode = AC02;
}
{
color = 0;
glyphname = uniAC05;
layers = (
{
layerId = "99E75090-8A73-42EE-982D-99D4C12EA1BB";
paths = (
{
closed = 1;
nodes = (
"1264 1729 LINE",
"1264 696 LINE",
"1595 696 LINE",
"1595 1729 LINE"
);
},
{
closed = 1;
nodes = (
"1477 1339 LINE",
"1477 1071 LINE",
"1833 1071 LINE",
"1833 1339 LINE"
);
},
{
closed = 1;
nodes = (
"1100 561 LINE",
"1100 426 LINE SMOOTH",
"1100 270 OFFCURVE",
"1012 123 OFFCURVE",
"772 57 CURVE",
"920 -188 LINE",
"1235 -98 OFFCURVE",
"1350 145 OFFCURVE",
"1350 426 CURVE SMOOTH",
"1350 561 LINE"
);
},
{
closed = 1;
nodes = (
"1163 561 LINE",
"1163 426 LINE SMOOTH",
"1163 131 OFFCURVE",
"1274 -100 OFFCURVE",
"1593 -188 CURVE",
"1741 57 LINE",
"1495 115 OFFCURVE",
"1411 258 OFFCURVE",
"1411 426 CURVE SMOOTH",
"1411 561 LINE"
);
},
{
closed = 1;
nodes = (
"225 117 LINE",
"225 -145 LINE",
"342 -145 LINE SMOOTH",
"532 -145 OFFCURVE",
"700 -127 OFFCURVE",
"856 -59 CURVE",
"780 190 LINE",
"649 135 OFFCURVE",
"502 117 OFFCURVE",
"342 117 CURVE SMOOTH"
);
},
{
closed = 1;
nodes = (
"225 580 LINE",
"225 4 LINE",
"545 4 LINE",
"545 580 LINE"
);
},
{
closed = 1;
nodes = (
"842 625 LINE",
"842 373 LINE",
"1667 373 LINE",
"1667 625 LINE"
);
},
{
closed = 1;
nodes = (
"705 1638 LINE",
"705 1460 LINE SMOOTH",
"705 1223 OFFCURVE",
"498 1001 OFFCURVE",
"39 901 CURVE",
"168 643 LINE",
"737 778 OFFCURVE",
"1057 1114 OFFCURVE",
"1057 1638 CURVE"
);
},
{
closed = 1;
nodes = (
"137 1638 LINE",
"137 1378 LINE",
"905 1378 LINE",
"905 1638 LINE"
);
}
);
width = 1884;
},
{
layerId = "35A15426-DDB1-4AC4-90C4-1762146010E5";
paths = (
{
closed = 1;
nodes = (
"1438 1671 LINE",
"1438 676 LINE",
"1505 676 LINE",
"1505 1671 LINE"
);
},
{
closed = 1;
nodes = (
"1466 1192 LINE",
"1466 1133 LINE",
"1800 1133 LINE",
"1800 1192 LINE"
);
},
{
closed = 1;
nodes = (
"1198 551 LINE",
"1198 424 LINE SMOOTH",
"1198 223 OFFCURVE",
"1053 12 OFFCURVE",
"834 -74 CURVE",
"870 -127 LINE",
"1106 -29 OFFCURVE",
"1255 197 OFFCURVE",
"1255 424 CURVE SMOOTH",
"1255 551 LINE"
);
},
{
closed = 1;
nodes = (
"1206 551 LINE",
"1206 424 LINE SMOOTH",
"1206 197 OFFCURVE",
"1356 -29 OFFCURVE",
"1589 -127 CURVE",
"1626 -74 LINE",
"1409 12 OFFCURVE",
"1264 223 OFFCURVE",
"1264 424 CURVE SMOOTH",
"1264 551 LINE"
);
},
{
closed = 1;
nodes = (
"340 -2 LINE",
"340 -61 LINE",
"414 -61 LINE SMOOTH",
"522 -61 OFFCURVE",
"719 -53 OFFCURVE",
"864 29 CURVE",
"834 90 LINE",
"719 10 OFFCURVE",
"508 -2 OFFCURVE",
"414 -2 CURVE SMOOTH"
);
},
{
closed = 1;
nodes = (
"340 537 LINE",
"340 -39 LINE",
"408 -39 LINE",
"408 537 LINE"
);
},
{
closed = 1;
nodes = (
"872 561 LINE",
"872 500 LINE",
"1589 500 LINE",
"1589 561 LINE"
);
},
{
closed = 1;
nodes = (
"954 1550 LINE",
"954 1534 LINE SMOOTH",
"954 1143 OFFCURVE",
"623 862 OFFCURVE",
"139 733 CURVE",
"166 676 LINE",
"676 811 OFFCURVE",
"1024 1124 OFFCURVE",
"1024 1550 CURVE"
);
},
{
closed = 1;
nodes = (
"211 1550 LINE",
"211 1489 LINE",
"981 1489 LINE",
"981 1550 LINE"
);
}
);
width = 1884;
}
);
unicode = AC05;
}
{
color = 0;
glyphname = uniAC07;
layers = (
{
layerId = "99E75090-8A73-42EE-982D-99D4C12EA1BB";
paths = (
{
closed = 1;
nodes = (
"1266 1729 LINE",
"1266 666 LINE",
"1595 666 LINE",
"1595 1729 LINE"
);
},
{
closed = 1;
nodes = (
"1505 1329 LINE",
"1505 1061 LINE",
"1835 1061 LINE",
"1835 1329 LINE"
);
},
{
closed = 1;
nodes = (
"705 1626 LINE",
"705 1456 LINE SMOOTH",
"705 1200 OFFCURVE",
"498 973 OFFCURVE",
"41 860 CURVE",
"170 602 LINE",
"745 750 OFFCURVE",
"1055 1100 OFFCURVE",
"1055 1626 CURVE"
);
},
{
closed = 1;
nodes = (
"137 1626 LINE",
"137 1366 LINE",
"905 1366 LINE",
"905 1626 LINE"
);
},
{
closed = 1;
nodes = (
"330 588 LINE",
"330 -47 LINE",
"659 -47 LINE",
"659 328 LINE",
"1614 328 LINE",
"1614 588 LINE"
);
},
{
closed = 1;
nodes = (
"330 84 LINE",
"330 -176 LINE",
"1651 -176 LINE",
"1651 84 LINE"
);
}
);
width = 1884;
},
{
layerId = "35A15426-DDB1-4AC4-90C4-1762146010E5";
paths = (
{
closed = 1;
nodes = (
"1436 1671 LINE",
"1436 629 LINE",
"1503 629 LINE",
"1503 1671 LINE"
);
},
{
closed = 1;
nodes = (
"1485 1182 LINE",
"1485 1122 LINE",
"1798 1122 LINE",
"1798 1182 LINE"
);
},
{
closed = 1;
nodes = (
"954 1540 LINE",
"954 1526 LINE SMOOTH",
"954 1130 OFFCURVE",
"633 834 OFFCURVE",
"139 690 CURVE",
"166 633 LINE",
"690 782 OFFCURVE",
"1024 1110 OFFCURVE",
"1024 1540 CURVE"
);
},
{
closed = 1;
nodes = (
"211 1540 LINE",
"211 1481 LINE",
"981 1481 LINE",
"981 1540 LINE"
);
},
{
closed = 1;
nodes = (
"406 512 LINE",
"406 -78 LINE",
"471 -78 LINE",
"471 451 LINE",
"1507 451 LINE",
"1507 512 LINE"
);
},
{
closed = 1;
nodes = (
"406 -47 LINE",
"406 -109 LINE",
"1540 -109 LINE",
"1540 -47 LINE"
);
}
);
width = 1884;
}
);
unicode = AC07;
}
{
color = 0;
glyphname = uniAC09;
layers = (
{
layerId = "99E75090-8A73-42EE-982D-99D4C12EA1BB";
paths = (
{
closed = 1;
nodes = (
"1266 1729 LINE",
"1266 733 LINE",
"1595 733 LINE",
"1595 1729 LINE"
);
},
{
closed = 1;
nodes = (
"1468 1362 LINE",
"1468 1094 LINE",
"1835 1094 LINE",
"1835 1362 LINE"
);
},
{
closed = 1;
nodes = (
"236 63 LINE",
"236 -178 LINE",
"371 -178 LINE SMOOTH",
"780 -178 OFFCURVE",
"901 -176 OFFCURVE",
"1034 -139 CURVE",
"1004 100 LINE",
"877 66 OFFCURVE",
"764 63 OFFCURVE",
"371 63 CURVE SMOOTH"
);
},
{
closed = 1;
nodes = (
"233 653 LINE",
"233 412 LINE",
"567 412 LINE",
"567 352 LINE",
"236 352 LINE",
"236 -111 LINE",
"555 -111 LINE",
"555 129 LINE",
"887 129 LINE",
"887 653 LINE"
);
},
{
closed = 1;
nodes = (
"963 653 LINE",
"963 397 LINE",
"1272 397 LINE",
"1272 -182 LINE",
"1595 -182 LINE",
"1595 653 LINE"
);
},
{
closed = 1;
nodes = (
"709 1661 LINE",
"709 1464 LINE SMOOTH",
"709 1253 OFFCURVE",
"549 1053 OFFCURVE",
"55 967 CURVE",
"172 698 LINE",
"780 817 OFFCURVE",
"1077 1124 OFFCURVE",
"1077 1661 CURVE"
);
},
{
closed = 1;
nodes = (
"156 1661 LINE",
"156 1401 LINE",
"924 1401 LINE",
"924 1661 LINE"
);
}
);
width = 1884;
},
{
layerId = "35A15426-DDB1-4AC4-90C4-1762146010E5";
paths = (
{
closed = 1;
nodes = (
"1436 1669 LINE",
"1436 684 LINE",
"1503 684 LINE",
"1503 1669 LINE"
);
},
{
closed = 1;
nodes = (
"1466 1208 LINE",
"1466 1147 LINE",
"1800 1147 LINE",
"1800 1208 LINE"
);
},
{
closed = 1;
nodes = (
"328 -53 LINE",
"328 -115 LINE",
"422 -115 LINE SMOOTH",
"655 -115 OFFCURVE",
"815 -109 OFFCURVE",
"1028 -70 CURVE",
"1018 -10 LINE",
"813 -47 OFFCURVE",
"651 -53 OFFCURVE",
"422 -53 CURVE SMOOTH"
);
},
{
closed = 1;
nodes = (
"322 594 LINE",
"322 535 LINE",
"829 535 LINE",
"829 285 LINE",
"328 285 LINE",
"328 -82 LINE",
"393 -82 LINE",
"393 225 LINE",
"895 225 LINE",
"895 594 LINE"
);
},
{
closed = 1;
nodes = (
"975 594 LINE",
"975 535 LINE",
"1436 535 LINE",
"1436 -129 LINE",
"1503 -129 LINE",
"1503 594 LINE"
);
},
{
closed = 1;
nodes = (
"948 1554 LINE",
"948 1536 LINE SMOOTH",
"948 1149 OFFCURVE",
"618 870 OFFCURVE",
"137 739 CURVE",
"168 682 LINE",
"674 819 OFFCURVE",
"1018 1130 OFFCURVE",
"1018 1554 CURVE"
);
},
{
closed = 1;
nodes = (
"213 1554 LINE",
"213 1493 LINE",
"983 1493 LINE",
"983 1554 LINE"
);
}
);
width = 1884;
}
);
unicode = AC09;
}
{
color = 0;
glyphname = uniAC0A;
layers = (
{
layerId = "99E75090-8A73-42EE-982D-99D4C12EA1BB";
paths = (
{
closed = 1;
nodes = (
"203 659 LINE",
"203 418 LINE",
"528 418 LINE",
"528 365 LINE",
"205 365 LINE",
"205 -25 LINE",
"524 -25 LINE",
"524 139 LINE",
"848 139 LINE",
"848 659 LINE"
);
},
{
closed = 1;
nodes = (
"936 659 LINE",
"936 -168 LINE",
"1595 -168 LINE",
"1595 659 LINE"
);
},
{
closed = 1;
nodes = (
"1315 422 LINE",
"1315 70 LINE",
"1217 70 LINE",
"1217 422 LINE"
);
},
{
closed = 1;
nodes = (
"205 80 LINE",
"205 -168 LINE",
"326 -168 LINE SMOOTH",
"596 -168 OFFCURVE",
"733 -166 OFFCURVE",
"895 -137 CURVE",
"870 109 LINE",
"713 82 OFFCURVE",
"588 80 OFFCURVE",
"326 80 CURVE SMOOTH"
);
},
{
closed = 1;
nodes = (
"1266 1729 LINE",
"1266 741 LINE",
"1595 741 LINE",
"1595 1729 LINE"
);
},
{
closed = 1;
nodes = (
"1505 1366 LINE",
"1505 1098 LINE",
"1835 1098 LINE",
"1835 1366 LINE"
);
},
{
closed = 1;
nodes = (
"707 1661 LINE",
"707 1458 LINE SMOOTH",
"707 1262 OFFCURVE",
"547 1065 OFFCURVE",
"55 987 CURVE",
"170 719 LINE",
"774 827 OFFCURVE",
"1077 1126 OFFCURVE",
"1077 1661 CURVE"
);
},
{
closed = 1;
nodes = (
"154 1661 LINE",
"154 1401 LINE",
"922 1401 LINE",
"922 1661 LINE"
);
}
);
width = 1884;
},
{
layerId = "35A15426-DDB1-4AC4-90C4-1762146010E5";
paths = (
{
closed = 1;
nodes = (
"293 594 LINE",
"293 535 LINE",
"776 535 LINE",
"776 291 LINE",
"299 291 LINE",
"299 -82 LINE",
"365 -82 LINE",
"365 231 LINE",
"842 231 LINE",
"842 594 LINE"
);
},
{
closed = 1;
nodes = (
"969 594 LINE",
"969 -125 LINE",
"1503 -125 LINE",
"1503 594 LINE"
);
},
{
closed = 1;
nodes = (
"1438 537 LINE",
"1438 -66 LINE",
"1034 -66 LINE",
"1034 537 LINE"
);
},
{
closed = 1;
nodes = (
"299 -53 LINE",
"299 -115 LINE",
"381 -115 LINE SMOOTH",
"598 -115 OFFCURVE",
"725 -111 OFFCURVE",
"901 -78 CURVE",
"891 -16 LINE",
"723 -51 OFFCURVE",
"596 -53 OFFCURVE",
"381 -53 CURVE SMOOTH"
);
},
{
closed = 1;
nodes = (
"1436 1669 LINE",
"1436 684 LINE",
"1503 684 LINE",
"1503 1669 LINE"
);
},
{
closed = 1;
nodes = (
"1485 1204 LINE",
"1485 1143 LINE",
"1798 1143 LINE",
"1798 1204 LINE"
);
},
{
closed = 1;
nodes = (
"948 1554 LINE",
"948 1536 LINE SMOOTH",
"948 1151 OFFCURVE",
"618 872 OFFCURVE",
"137 745 CURVE",
"168 686 LINE",
"670 823 OFFCURVE",
"1018 1130 OFFCURVE",
"1018 1554 CURVE"
);
},
{
closed = 1;
nodes = (
"213 1554 LINE",
"213 1493 LINE",
"983 1493 LINE",
"983 1554 LINE"
);
}
);
width = 1884;
}
);
unicode = AC0A;
}
{
color = 0;
glyphname = uniAC0C;
layers = (
{
layerId = "99E75090-8A73-42EE-982D-99D4C12EA1BB";
paths = (
{
closed = 1;
nodes = (
"1266 1729 LINE",
"1266 723 LINE",
"1595 723 LINE",
"1595 1729 LINE"
);
},
{
closed = 1;
nodes = (
"1505 1360 LINE",
"1505 1094 LINE",
"1835 1094 LINE",
"1835 1360 LINE"
);
},
{
closed = 1;
nodes = (
"209 639 LINE",
"209 397 LINE",
"551 397 LINE",
"551 336 LINE",
"211 336 LINE",
"211 -45 LINE",
"530 -45 LINE",
"530 127 LINE",
"870 127 LINE",
"870 639 LINE"
);
},
{
closed = 1;
nodes = (
"211 57 LINE",
"211 -176 LINE",
"330 -176 LINE SMOOTH",
"612 -176 OFFCURVE",
"745 -176 OFFCURVE",
"905 -145 CURVE",
"885 86 LINE",
"729 59 OFFCURVE",
"602 57 OFFCURVE",
"330 57 CURVE SMOOTH"
);
},
{
closed = 1;
nodes = (
"707 1671 LINE",
"707 1470 LINE SMOOTH",
"707 1270 OFFCURVE",
"547 1071 OFFCURVE",
"55 991 CURVE",
"170 723 LINE",
"774 836 OFFCURVE",
"1075 1137 OFFCURVE",
"1075 1671 CURVE"
);
},
{
closed = 1;
nodes = (
"154 1671 LINE",
"154 1411 LINE",
"922 1411 LINE",
"922 1671 LINE"
);
},
{
closed = 1;
nodes = (
"1141 657 LINE",
"1141 526 LINE SMOOTH",
"1141 332 OFFCURVE",
"1067 156 OFFCURVE",
"838 61 CURVE",
"1014 -188 LINE",
"1300 -72 OFFCURVE",
"1395 207 OFFCURVE",
"1395 526 CURVE SMOOTH",
"1395 657 LINE"
);
},
{
closed = 1;
nodes = (
"1214 657 LINE",
"1214 526 LINE SMOOTH",
"1214 205 OFFCURVE",
"1309 -72 OFFCURVE",
"1595 -188 CURVE",
"1774 61 LINE",
"1544 154 OFFCURVE",
"1470 330 OFFCURVE",
"1470 526 CURVE SMOOTH",
"1470 657 LINE"
);
}
);
width = 1884;
},
{
layerId = "35A15426-DDB1-4AC4-90C4-1762146010E5";
paths = (
{
closed = 1;
nodes = (
"1436 1671 LINE",
"1436 694 LINE",
"1503 694 LINE",
"1503 1671 LINE"
);
},
{
closed = 1;
nodes = (
"1485 1223 LINE",
"1485 1161 LINE",
"1798 1161 LINE",
"1798 1223 LINE"
);
},
{
closed = 1;
nodes = (
"291 594 LINE",
"291 535 LINE",
"791 535 LINE",
"791 293 LINE",
"297 293 LINE",
"297 -76 LINE",
"362 -76 LINE",
"362 236 LINE",
"856 236 LINE",
"856 594 LINE"
);
},
{
closed = 1;
nodes = (
"297 -43 LINE",
"297 -106 LINE",
"379 -106 LINE SMOOTH",
"602 -106 OFFCURVE",
"731 -102 OFFCURVE",
"907 -66 CURVE",
"895 -6 LINE",
"729 -39 OFFCURVE",
"600 -43 OFFCURVE",
"379 -43 CURVE SMOOTH"
);
},
{
closed = 1;
nodes = (
"948 1565 LINE",
"948 1546 LINE SMOOTH",
"948 1161 OFFCURVE",
"618 883 OFFCURVE",
"137 756 CURVE",
"168 696 LINE",
"670 834 OFFCURVE",
"1018 1139 OFFCURVE",
"1018 1565 CURVE"
);
},
{
closed = 1;
nodes = (
"213 1565 LINE",
"213 1503 LINE",
"983 1503 LINE",
"983 1565 LINE"
);
},
{
closed = 1;
nodes = (
"1274 616 LINE",
"1274 440 LINE SMOOTH",
"1274 244 OFFCURVE",
"1139 18 OFFCURVE",
"924 -74 CURVE",
"965 -129 LINE",
"1194 -20 OFFCURVE",
"1331 219 OFFCURVE",
"1331 440 CURVE SMOOTH",
"1331 616 LINE"
);
},
{
closed = 1;
nodes = (
"1282 616 LINE",
"1282 440 LINE SMOOTH",
"1282 219 OFFCURVE",
"1419 -20 OFFCURVE",
"1651 -129 CURVE",
"1690 -74 LINE",
"1475 18 OFFCURVE",
"1339 244 OFFCURVE",
"1339 440 CURVE SMOOTH",
"1339 616 LINE"
);
}
);
width = 1884;
}
);
unicode = AC0C;
}
{
color = 0;
glyphname = uniAC0E;
layers = (
{
layerId = "99E75090-8A73-42EE-982D-99D4C12EA1BB";
paths = (
{
closed = 1;
nodes = (
"926 655 LINE",
"926 408 LINE",
"1626 408 LINE",
"1626 655 LINE"
);
},
{
closed = 1;
nodes = (
"915 72 LINE",
"915 -176 LINE",
"1636 -176 LINE",
"1636 72 LINE"
);
},
{
closed = 1;
nodes = (
"987 510 LINE",
"987 -57 LINE",
"1239 -57 LINE",
"1239 510 LINE"
);
},
{
closed = 1;
nodes = (
"1313 510 LINE",
"1313 -57 LINE",
"1567 -57 LINE",
"1567 510 LINE"
);
},
{
closed = 1;
nodes = (
"1266 1729 LINE",
"1266 723 LINE",
"1595 723 LINE",
"1595 1729 LINE"
);
},
{
closed = 1;
nodes = (
"1505 1360 LINE",
"1505 1094 LINE",
"1835 1094 LINE",
"1835 1360 LINE"
);
},
{
closed = 1;
nodes = (
"707 1671 LINE",
"707 1468 LINE SMOOTH",
"707 1272 OFFCURVE",
"547 1075 OFFCURVE",
"55 997 CURVE",
"170 729 LINE",
"774 838 OFFCURVE",
"1077 1137 OFFCURVE",
"1077 1671 CURVE"
);
},
{
closed = 1;
nodes = (
"154 1671 LINE",
"154 1411 LINE",
"922 1411 LINE",
"922 1671 LINE"
);
},
{
closed = 1;
nodes = (
"207 655 LINE",
"207 418 LINE",
"532 418 LINE",
"532 352 LINE",
"209 352 LINE",
"209 -16 LINE",
"528 -16 LINE",
"528 131 LINE",
"852 131 LINE",
"852 655 LINE"
);
},
{
closed = 1;
nodes = (
"209 61 LINE",
"209 -176 LINE",
"328 -176 LINE SMOOTH",
"578 -176 OFFCURVE",
"715 -176 OFFCURVE",
"889 -147 CURVE",
"866 88 LINE",
"698 61 OFFCURVE",
"567 61 OFFCURVE",
"328 61 CURVE SMOOTH"
);
}
);
width = 1884;
},
{
layerId = "35A15426-DDB1-4AC4-90C4-1762146010E5";
paths = (
{
closed = 1;
nodes = (
"930 602 LINE",
"930 541 LINE",
"1563 541 LINE",
"1563 602 LINE"
);
},
{
closed = 1;
nodes = (
"915 -47 LINE",
"915 -109 LINE",
"1575 -109 LINE",
"1575 -47 LINE"
);
},
{
closed = 1;
nodes = (
"1063 578 LINE",
"1063 -72 LINE",
"1128 -72 LINE",
"1128 578 LINE"
);
},
{
closed = 1;
nodes = (
"1362 578 LINE",
"1362 -72 LINE",
"1427 -72 LINE",
"1427 578 LINE"
);
},
{
closed = 1;
nodes = (
"1436 1671 LINE",
"1436 694 LINE",
"1503 694 LINE",
"1503 1671 LINE"
);
},
{
closed = 1;
nodes = (
"1485 1223 LINE",
"1485 1161 LINE",
"1798 1161 LINE",
"1798 1223 LINE"
);
},
{
closed = 1;
nodes = (
"948 1565 LINE",
"948 1546 LINE SMOOTH",
"948 1161 OFFCURVE",
"618 883 OFFCURVE",
"137 756 CURVE",
"168 696 LINE",
"670 834 OFFCURVE",
"1018 1139 OFFCURVE",
"1018 1565 CURVE"
);
},
{
closed = 1;
nodes = (
"213 1565 LINE",
"213 1503 LINE",
"983 1503 LINE",
"983 1565 LINE"
);
},
{
closed = 1;
nodes = (
"293 602 LINE",
"293 541 LINE",
"768 541 LINE",
"768 297 LINE",
"299 297 LINE",
"299 -68 LINE",
"365 -68 LINE",
"365 238 LINE",
"834 238 LINE",
"834 602 LINE"
);
},
{
closed = 1;
nodes = (
"299 -47 LINE",
"299 -109 LINE",
"379 -109 LINE SMOOTH",
"594 -109 OFFCURVE",
"719 -106 OFFCURVE",
"893 -72 CURVE",
"883 -10 LINE",
"717 -45 OFFCURVE",
"592 -47 OFFCURVE",
"379 -47 CURVE SMOOTH"
);
}
);
width = 1884;
}
);
unicode = AC0E;
}
{
color = 0;
glyphname = uniAC10;
layers = (
{
layerId = "99E75090-8A73-42EE-982D-99D4C12EA1BB";
paths = (
{
closed = 1;
nodes = (
"1266 1729 LINE",
"1266 666 LINE",
"1595 666 LINE",
"1595 1729 LINE"
);
},
{
closed = 1;
nodes = (
"1505 1337 LINE",
"1505 1069 LINE",
"1835 1069 LINE",
"1835 1337 LINE"
);
},
{
closed = 1;
nodes = (
"705 1626 LINE",
"705 1456 LINE SMOOTH",
"705 1202 OFFCURVE",
"498 977 OFFCURVE",
"41 866 CURVE",
"170 608 LINE",
"745 754 OFFCURVE",
"1057 1100 OFFCURVE",
"1057 1626 CURVE"
);
},
{
closed = 1;
nodes = (
"137 1626 LINE",
"137 1366 LINE",
"905 1366 LINE",
"905 1626 LINE"
);
},
{
closed = 1;
nodes = (
"330 598 LINE",
"330 -176 LINE",
"1595 -176 LINE",
"1595 598 LINE"
);
},
{
closed = 1;
nodes = (
"1272 340 LINE",
"1272 82 LINE",
"655 82 LINE",
"655 340 LINE"
);
}
);
width = 1884;
},
{
layerId = "35A15426-DDB1-4AC4-90C4-1762146010E5";
paths = (
{
closed = 1;
nodes = (
"1436 1671 LINE",
"1436 629 LINE",
"1503 629 LINE",
"1503 1671 LINE"
);
},
{
closed = 1;
nodes = (
"1485 1182 LINE",
"1485 1122 LINE",
"1798 1122 LINE",
"1798 1182 LINE"
);
},
{
closed = 1;
nodes = (
"954 1540 LINE",
"954 1526 LINE SMOOTH",
"954 1130 OFFCURVE",
"633 834 OFFCURVE",
"139 690 CURVE",
"166 633 LINE",
"690 782 OFFCURVE",
"1024 1110 OFFCURVE",
"1024 1540 CURVE"
);
},
{
closed = 1;
nodes = (
"211 1540 LINE",
"211 1481 LINE",
"981 1481 LINE",
"981 1540 LINE"
);
},
{
closed = 1;
nodes = (
"401 530 LINE",
"401 -106 LINE",
"1503 -106 LINE",
"1503 530 LINE"
);
},
{
closed = 1;
nodes = (
"1436 469 LINE",
"1436 -45 LINE",
"469 -45 LINE",
"469 469 LINE"
);
}
);
width = 1884;
}
);
unicode = AC10;
}
{
color = 0;
glyphname = uniAC12;
layers = (
{
layerId = "99E75090-8A73-42EE-982D-99D4C12EA1BB";
paths = (
{
closed = 1;
nodes = (
"1266 1729 LINE",
"1266 686 LINE",
"1595 686 LINE",
"1595 1729 LINE"
);
},
{
closed = 1;
nodes = (
"1505 1352 LINE",
"1505 1083 LINE",
"1835 1083 LINE",
"1835 1352 LINE"
);
},
{
closed = 1;
nodes = (
"700 1636 LINE",
"700 1448 LINE SMOOTH",
"700 1227 OFFCURVE",
"530 1020 OFFCURVE",
"53 926 CURVE",
"174 662 LINE",
"768 791 OFFCURVE",
"1063 1106 OFFCURVE",
"1063 1636 CURVE"
);
},
{
closed = 1;
nodes = (
"150 1636 LINE",
"150 1376 LINE",
"918 1376 LINE",
"918 1636 LINE"
);
},
{
closed = 1;
nodes = (
"248 592 LINE",
"248 -168 LINE",
"961 -168 LINE",
"961 592 LINE",
"662 592 LINE",
"662 440 LINE",
"551 440 LINE",
"551 592 LINE"
);
},
{
closed = 1;
nodes = (
"551 201 LINE",
"662 201 LINE",
"662 80 LINE",
"551 80 LINE"
);
},
{
closed = 1;
nodes = (
"1198 614 LINE",
"1198 481 LINE SMOOTH",
"1198 311 OFFCURVE",
"1120 152 OFFCURVE",
"905 59 CURVE",
"1075 -186 LINE",
"1350 -76 OFFCURVE",
"1448 190 OFFCURVE",
"1448 481 CURVE SMOOTH",
"1448 614 LINE"
);
},
{
closed = 1;
nodes = (
"1266 614 LINE",
"1266 481 LINE SMOOTH",
"1266 178 OFFCURVE",
"1360 -80 OFFCURVE",
"1638 -186 CURVE",
"1806 59 LINE",
"1591 141 OFFCURVE",
"1513 301 OFFCURVE",
"1513 481 CURVE SMOOTH",
"1513 614 LINE"
);
}
);
width = 1884;
},
{
layerId = "35A15426-DDB1-4AC4-90C4-1762146010E5";
paths = (
{
closed = 1;
nodes = (
"1436 1671 LINE",
"1436 686 LINE",
"1503 686 LINE",
"1503 1671 LINE"
);
},
{
closed = 1;
nodes = (
"1485 1212 LINE",
"1485 1151 LINE",
"1798 1151 LINE",
"1798 1212 LINE"
);
},
{
closed = 1;
nodes = (
"952 1548 LINE",
"952 1530 LINE SMOOTH",
"952 1143 OFFCURVE",
"621 860 OFFCURVE",
"139 731 CURVE",
"168 672 LINE",
"678 809 OFFCURVE",
"1022 1122 OFFCURVE",
"1022 1548 CURVE"
);
},
{
closed = 1;
nodes = (
"213 1548 LINE",
"213 1487 LINE",
"983 1487 LINE",
"983 1548 LINE"
);
},
{
closed = 1;
nodes = (
"340 590 LINE",
"340 -111 LINE",
"924 -111 LINE",
"924 590 LINE",
"858 590 LINE",
"858 324 LINE",
"408 324 LINE",
"408 590 LINE"
);
},
{
closed = 1;
nodes = (
"408 262 LINE",
"858 262 LINE",
"858 -51 LINE",
"408 -51 LINE"
);
},
{
closed = 1;
nodes = (
"1317 606 LINE",
"1317 438 LINE SMOOTH",
"1317 256 OFFCURVE",
"1190 23 OFFCURVE",
"977 -76 CURVE",
"1018 -129 LINE",
"1245 -16 OFFCURVE",
"1374 233 OFFCURVE",
"1374 438 CURVE SMOOTH",
"1374 606 LINE"
);
},
{
closed = 1;
nodes = (
"1325 606 LINE",
"1325 446 LINE SMOOTH",
"1325 242 OFFCURVE",
"1450 -14 OFFCURVE",
"1675 -129 CURVE",
"1716 -76 LINE",
"1505 27 OFFCURVE",
"1382 264 OFFCURVE",
"1382 446 CURVE SMOOTH",
"1382 606 LINE"
);
}
);
width = 1884;
}
);
unicode = AC12;
}
{
color = 0;
glyphname = uniAC13;
layers = (
{
layerId = "99E75090-8A73-42EE-982D-99D4C12EA1BB";
paths = (
{
closed = 1;
nodes = (
"1505 1260 LINE",
"1505 991 LINE",
"1835 991 LINE",
"1835 1260 LINE"
);
},
{
closed = 1;
nodes = (
"721 1589 LINE",
"721 1421 LINE SMOOTH",
"721 1147 OFFCURVE",
"504 909 OFFCURVE",
"45 791 CURVE",
"180 526 LINE",
"764 686 OFFCURVE",
"1077 1051 OFFCURVE",
"1077 1589 CURVE"
);
},
{
closed = 1;
nodes = (
"158 1589 LINE",
"158 1327 LINE",
"926 1327 LINE",
"926 1589 LINE"
);
},
{
closed = 1;
nodes = (
"805 590 LINE",
"805 551 LINE SMOOTH",
"805 365 OFFCURVE",
"672 135 OFFCURVE",
"227 72 CURVE",
"356 -188 LINE",
"872 -106 OFFCURVE",
"1087 205 OFFCURVE",
"1087 551 CURVE SMOOTH",
"1087 590 LINE"
);
},
{
closed = 1;
nodes = (
"854 590 LINE",
"854 551 LINE SMOOTH",
"854 205 OFFCURVE",
"1069 -106 OFFCURVE",
"1585 -188 CURVE",
"1712 72 LINE",
"1270 135 OFFCURVE",
"1135 365 OFFCURVE",
"1135 551 CURVE SMOOTH",
"1135 590 LINE"
);
},
{
closed = 1;
nodes = (
"1266 1729 LINE",
"1266 467 LINE",
"1595 467 LINE",
"1595 1729 LINE"
);
}
);
width = 1884;
},
{
layerId = "35A15426-DDB1-4AC4-90C4-1762146010E5";
paths = (
{
closed = 1;
nodes = (
"1485 1126 LINE",
"1485 1065 LINE",
"1798 1065 LINE",
"1798 1126 LINE"
);
},
{
closed = 1;
nodes = (
"954 1526 LINE",
"954 1511 LINE SMOOTH",
"954 1108 OFFCURVE",
"629 793 OFFCURVE",
"143 637 CURVE",
"174 582 LINE",
"686 748 OFFCURVE",
"1022 1087 OFFCURVE",
"1022 1526 CURVE"
);
},
{
closed = 1;
nodes = (
"211 1526 LINE",
"211 1464 LINE",
"981 1464 LINE",
"981 1526 LINE"
);
},
{
closed = 1;
nodes = (
"954 608 LINE",
"954 502 LINE SMOOTH",
"954 178 OFFCURVE",
"567 -14 OFFCURVE",
"311 -70 CURVE",
"342 -125 LINE",
"621 -57 OFFCURVE",
"1014 139 OFFCURVE",
"1014 502 CURVE SMOOTH",
"1014 608 LINE"
);
},
{
closed = 1;
nodes = (
"963 608 LINE",
"963 502 LINE SMOOTH",
"963 145 OFFCURVE",
"1350 -51 OFFCURVE",
"1626 -119 CURVE",
"1659 -63 LINE",
"1405 -8 OFFCURVE",
"1020 184 OFFCURVE",
"1020 502 CURVE SMOOTH",
"1020 608 LINE"
);
},
{
closed = 1;
nodes = (
"1513 1675 LINE",
"1513 465 LINE",
"1581 465 LINE",
"1581 1675 LINE"
);
}
);
width = 1884;
}
);
unicode = AC13;
}
{
color = 0;
glyphname = uniAC14;
layers = (
{
layerId = "99E75090-8A73-42EE-982D-99D4C12EA1BB";
paths = (
{
closed = 1;
nodes = (
"1266 1729 LINE",
"1266 666 LINE",
"1595 666 LINE",
"1595 1729 LINE"
);
},
{
closed = 1;
nodes = (
"1505 1329 LINE",
"1505 1061 LINE",
"1835 1061 LINE",
"1835 1329 LINE"
);
},
{
closed = 1;
nodes = (
"705 1628 LINE",
"705 1456 LINE SMOOTH",
"705 1202 OFFCURVE",
"498 975 OFFCURVE",
"45 862 CURVE",
"172 600 LINE",
"750 748 OFFCURVE",
"1061 1100 OFFCURVE",
"1061 1628 CURVE"
);
},
{
closed = 1;
nodes = (
"150 1628 LINE",
"150 1368 LINE",
"918 1368 LINE",
"918 1628 LINE"
);
},
{
closed = 1;
nodes = (
"449 590 LINE",
"449 526 LINE SMOOTH",
"449 334 OFFCURVE",
"367 147 OFFCURVE",
"111 57 CURVE",
"274 -180 LINE",
"586 -70 OFFCURVE",
"692 209 OFFCURVE",
"692 526 CURVE SMOOTH",
"692 590 LINE"
);
},
{
closed = 1;
nodes = (
"535 590 LINE",
"535 526 LINE SMOOTH",
"535 223 OFFCURVE",
"637 -82 OFFCURVE",
"956 -199 CURVE",
"1092 39 LINE",
"850 141 OFFCURVE",
"770 338 OFFCURVE",
"770 526 CURVE SMOOTH",
"770 590 LINE"
);
},
{
closed = 1;
nodes = (
"1143 590 LINE",
"1143 526 LINE SMOOTH",
"1143 350 OFFCURVE",
"1063 150 OFFCURVE",
"821 39 CURVE",
"956 -199 LINE",
"1274 -78 OFFCURVE",
"1378 236 OFFCURVE",
"1378 526 CURVE SMOOTH",
"1378 590 LINE"
);
},
{
closed = 1;
nodes = (
"1225 590 LINE",
"1225 526 LINE SMOOTH",
"1225 199 OFFCURVE",
"1329 -72 OFFCURVE",
"1645 -180 CURVE",
"1806 57 LINE",
"1550 139 OFFCURVE",
"1470 322 OFFCURVE",
"1470 526 CURVE SMOOTH",
"1470 590 LINE"
);
}
);
width = 1884;
},
{
layerId = "35A15426-DDB1-4AC4-90C4-1762146010E5";
paths = (
{
closed = 1;
nodes = (
"1436 1675 LINE",
"1436 651 LINE",
"1503 651 LINE",
"1503 1675 LINE"
);
},
{
closed = 1;
nodes = (
"1485 1171 LINE",
"1485 1110 LINE",
"1798 1110 LINE",
"1798 1171 LINE"
);
},
{
closed = 1;
nodes = (
"954 1540 LINE",
"954 1526 LINE SMOOTH",
"954 1130 OFFCURVE",
"633 834 OFFCURVE",
"139 690 CURVE",
"166 633 LINE",
"690 782 OFFCURVE",
"1024 1110 OFFCURVE",
"1024 1540 CURVE"
);
},
{
closed = 1;
nodes = (
"211 1540 LINE",
"211 1481 LINE",
"981 1481 LINE",
"981 1540 LINE"
);
},
{
closed = 1;
nodes = (
"612 582 LINE",
"612 406 LINE SMOOTH",
"612 233 OFFCURVE",
"436 23 OFFCURVE",
"221 -59 CURVE",
"256 -115 LINE",
"492 -18 OFFCURVE",
"668 207 OFFCURVE",
"668 406 CURVE SMOOTH",
"668 582 LINE"
);
},
{
closed = 1;
nodes = (
"618 582 LINE",
"618 406 LINE SMOOTH",
"618 193 OFFCURVE",
"745 -31 OFFCURVE",
"979 -129 CURVE",
"1014 -74 LINE",
"801 12 OFFCURVE",
"674 217 OFFCURVE",
"674 406 CURVE SMOOTH",
"674 582 LINE"
);
},
{
closed = 1;
nodes = (
"1284 582 LINE",
"1284 406 LINE SMOOTH",
"1284 254 OFFCURVE",
"1157 25 OFFCURVE",
"946 -74 CURVE",
"979 -129 LINE",
"1212 -20 OFFCURVE",
"1341 233 OFFCURVE",
"1341 406 CURVE SMOOTH",
"1341 582 LINE"
);
},
{
closed = 1;
nodes = (
"1290 582 LINE",
"1290 406 LINE SMOOTH",
"1290 193 OFFCURVE",
"1464 -23 OFFCURVE",
"1704 -115 CURVE",
"1739 -59 LINE",
"1518 18 OFFCURVE",
"1348 219 OFFCURVE",
"1348 406 CURVE SMOOTH",
"1348 582 LINE"
);
}
);
width = 1884;
}
);
unicode = AC14;
}
{
color = 0;
glyphname = uniAC17;
layers = (
{
layerId = "99E75090-8A73-42EE-982D-99D4C12EA1BB";
paths = (
{
closed = 1;
nodes = (
"1505 1346 LINE",
"1505 1077 LINE",
"1835 1077 LINE",
"1835 1346 LINE"
);
},
{
closed = 1;
nodes = (
"709 1626 LINE",
"709 1427 LINE SMOOTH",
"709 1229 OFFCURVE",
"535 1028 OFFCURVE",
"55 950 CURVE",
"170 686 LINE",
"762 797 OFFCURVE",
"1071 1102 OFFCURVE",
"1071 1626 CURVE"
);
},
{
closed = 1;
nodes = (
"156 1626 LINE",
"156 1366 LINE",
"924 1366 LINE",
"924 1626 LINE"
);
},
{
closed = 1;
nodes = (
"1266 1729 LINE",
"1266 686 LINE",
"1595 686 LINE",
"1595 1729 LINE"
);
},
{
closed = 1;
nodes = (
"793 401 LINE",
"793 379 LINE SMOOTH",
"793 250 OFFCURVE",
"674 94 OFFCURVE",
"223 57 CURVE",
"338 -188 LINE",
"854 -139 OFFCURVE",
"1071 92 OFFCURVE",
"1071 379 CURVE SMOOTH",
"1071 401 LINE"
);
},
{
closed = 1;
nodes = (
"852 401 LINE",
"852 379 LINE SMOOTH",
"852 92 OFFCURVE",
"1069 -139 OFFCURVE",
"1587 -188 CURVE",
"1698 57 LINE",
"1249 94 OFFCURVE",
"1130 250 OFFCURVE",
"1130 379 CURVE SMOOTH",
"1130 401 LINE"
);
},
{
closed = 1;
nodes = (
"295 582 LINE",
"295 328 LINE",
"1616 328 LINE",
"1616 582 LINE"
);
},
{
closed = 1;
nodes = (
"795 754 LINE",
"795 453 LINE",
"1126 453 LINE",
"1126 754 LINE"
);
}
);
width = 1884;
},
{
layerId = "35A15426-DDB1-4AC4-90C4-1762146010E5";
paths = (
{
closed = 1;
nodes = (
"1485 1208 LINE",
"1485 1147 LINE",
"1798 1147 LINE",
"1798 1208 LINE"
);
},
{
closed = 1;
nodes = (
"948 1538 LINE",
"948 1522 LINE SMOOTH",
"948 1133 OFFCURVE",
"635 840 OFFCURVE",
"139 702 CURVE",
"172 641 LINE",
"692 788 OFFCURVE",
"1020 1110 OFFCURVE",
"1020 1538 CURVE"
);
},
{
closed = 1;
nodes = (
"211 1538 LINE",
"211 1479 LINE",
"981 1479 LINE",
"981 1538 LINE"
);
},
{
closed = 1;
nodes = (
"1436 1671 LINE",
"1436 666 LINE",
"1503 666 LINE",
"1503 1671 LINE"
);
},
{
closed = 1;
nodes = (
"928 430 LINE",
"928 416 LINE SMOOTH",
"928 166 OFFCURVE",
"555 -31 OFFCURVE",
"319 -82 CURVE",
"352 -137 LINE",
"616 -72 OFFCURVE",
"987 131 OFFCURVE",
"987 416 CURVE SMOOTH",
"987 430 LINE"
);
},
{
closed = 1;
nodes = (
"936 430 LINE",
"936 416 LINE SMOOTH",
"936 131 OFFCURVE",
"1309 -72 OFFCURVE",
"1571 -137 CURVE",
"1606 -82 LINE",
"1368 -31 OFFCURVE",
"995 164 OFFCURVE",
"995 416 CURVE SMOOTH",
"995 430 LINE"
);
},
{
closed = 1;
nodes = (
"371 483 LINE",
"371 422 LINE",
"1554 422 LINE",
"1554 483 LINE"
);
},
{
closed = 1;
nodes = (
"928 733 LINE",
"928 457 LINE",
"995 457 LINE",
"995 733 LINE"
);
}
);
width = 1884;
}
);
unicode = AC17;
}
{
color = 0;
glyphname = uniAC18;
layers = (
{
layerId = "99E75090-8A73-42EE-982D-99D4C12EA1BB";
paths = (
{
closed = 1;
nodes = (
"1266 1729 LINE",
"1266 647 LINE",
"1595 647 LINE",
"1595 1729 LINE"
);
},
{
closed = 1;
nodes = (
"1505 1327 LINE",
"1505 1059 LINE",
"1835 1059 LINE",
"1835 1327 LINE"
);
},
{
closed = 1;
nodes = (
"705 1628 LINE",
"705 1458 LINE SMOOTH",
"705 1202 OFFCURVE",
"496 973 OFFCURVE",
"35 862 CURVE",
"170 608 LINE",
"743 754 OFFCURVE",
"1055 1102 OFFCURVE",
"1055 1628 CURVE"
);
},
{
closed = 1;
nodes = (
"137 1628 LINE",
"137 1368 LINE",
"905 1368 LINE",
"905 1628 LINE"
);
},
{
closed = 1;
nodes = (
"295 575 LINE",
"295 315 LINE",
"1270 315 LINE",
"1270 -195 LINE",
"1595 -195 LINE",
"1595 575 LINE"
);
},
{
closed = 1;
nodes = (
"1319 233 LINE",
"258 193 LINE",
"287 -59 LINE",
"1319 4 LINE"
);
}
);
width = 1884;
},
{
layerId = "35A15426-DDB1-4AC4-90C4-1762146010E5";
paths = (
{
closed = 1;
nodes = (
"1436 1671 LINE",
"1436 637 LINE",
"1503 637 LINE",
"1503 1671 LINE"
);
},
{
closed = 1;
nodes = (
"1485 1188 LINE",
"1485 1128 LINE",
"1798 1128 LINE",
"1798 1188 LINE"
);
},
{
closed = 1;
nodes = (
"954 1540 LINE",
"954 1526 LINE SMOOTH",
"954 1130 OFFCURVE",
"631 836 OFFCURVE",
"139 694 CURVE",
"168 637 LINE",
"688 784 OFFCURVE",
"1022 1110 OFFCURVE",
"1022 1540 CURVE"
);
},
{
closed = 1;
nodes = (
"211 1540 LINE",
"211 1481 LINE",
"981 1481 LINE",
"981 1540 LINE"
);
},
{
closed = 1;
nodes = (
"362 539 LINE",
"362 479 LINE",
"1436 479 LINE",
"1436 -137 LINE",
"1503 -137 LINE",
"1503 539 LINE"
);
},
{
closed = 1;
nodes = (
"1464 240 LINE",
"315 195 LINE",
"326 131 LINE",
"1464 184 LINE"
);
}
);
width = 1884;
}
);
unicode = AC18;
}
{
color = 0;
glyphname = uniAC19;
layers = (
{
layerId = "99E75090-8A73-42EE-982D-99D4C12EA1BB";
paths = (
{
closed = 1;
nodes = (
"1266 1729 LINE",
"1266 733 LINE",
"1595 733 LINE",
"1595 1729 LINE"
);
},
{
closed = 1;
nodes = (
"1505 1362 LINE",
"1505 1094 LINE",
"1835 1094 LINE",
"1835 1362 LINE"
);
},
{
closed = 1;
nodes = (
"709 1604 LINE",
"709 1393 LINE SMOOTH",
"709 1210 OFFCURVE",
"559 1026 OFFCURVE",
"59 961 CURVE",
"188 700 LINE",
"784 797 OFFCURVE",
"1077 1077 OFFCURVE",
"1077 1604 CURVE"
);
},
{
closed = 1;
nodes = (
"156 1604 LINE",
"156 1341 LINE",
"924 1341 LINE",
"924 1604 LINE"
);
},
{
closed = 1;
nodes = (
"311 664 LINE",
"311 -51 LINE",
"641 -51 LINE",
"641 426 LINE",
"1604 426 LINE",
"1604 664 LINE"
);
},
{
closed = 1;
nodes = (
"311 61 LINE",
"311 -176 LINE",
"1642 -176 LINE",
"1642 61 LINE"
);
},
{
closed = 1;
nodes = (
"541 358 LINE",
"541 131 LINE",
"1585 131 LINE",
"1585 358 LINE"
);
}
);
width = 1884;
},
{
layerId = "35A15426-DDB1-4AC4-90C4-1762146010E5";
paths = (
{
closed = 1;
nodes = (
"1436 1671 LINE",
"1436 686 LINE",
"1503 686 LINE",
"1503 1671 LINE"
);
},
{
closed = 1;
nodes = (
"1485 1202 LINE",
"1485 1141 LINE",
"1798 1141 LINE",
"1798 1202 LINE"
);
},
{
closed = 1;
nodes = (
"952 1538 LINE",
"952 1522 LINE SMOOTH",
"952 1133 OFFCURVE",
"623 842 OFFCURVE",
"141 709 CURVE",
"170 647 LINE",
"680 791 OFFCURVE",
"1024 1110 OFFCURVE",
"1024 1538 CURVE"
);
},
{
closed = 1;
nodes = (
"205 1538 LINE",
"205 1479 LINE",
"975 1479 LINE",
"975 1538 LINE"
);
},
{
closed = 1;
nodes = (
"414 592 LINE",
"414 -84 LINE",
"479 -84 LINE",
"479 532 LINE",
"1513 532 LINE",
"1513 592 LINE"
);
},
{
closed = 1;
nodes = (
"414 -47 LINE",
"414 -109 LINE",
"1559 -109 LINE",
"1559 -47 LINE"
);
},
{
closed = 1;
nodes = (
"449 281 LINE",
"449 219 LINE",
"1491 219 LINE",
"1491 281 LINE"
);
}
);
width = 1884;
}
);
unicode = AC19;
}
{
color = 0;
glyphname = uniAC1C;
layers = (
{
layerId = "99E75090-8A73-42EE-982D-99D4C12EA1BB";
paths = (
{
closed = 1;
nodes = (
"1413 1729 LINE",
"1413 -193 LINE",
"1726 -193 LINE",
"1726 1729 LINE"
);
},
{
closed = 1;
nodes = (
"1206 1030 LINE",
"1206 768 LINE",
"1497 768 LINE",
"1497 1030 LINE"
);
},
{
closed = 1;
nodes = (
"592 1499 LINE",
"592 1430 LINE SMOOTH",
"592 958 OFFCURVE",
"449 672 OFFCURVE",
"35 418 CURVE",
"225 190 LINE",
"756 506 OFFCURVE",
"907 932 OFFCURVE",
"907 1499 CURVE"
);
},
{
closed = 1;
nodes = (
"143 1499 LINE",
"143 1237 LINE",
"684 1237 LINE",
"684 1499 LINE"
);
},
{
closed = 1;
nodes = (
"987 1679 LINE",
"987 -117 LINE",
"1294 -117 LINE",
"1294 1679 LINE"
);
}
);
width = 1884;
},
{
layerId = "35A15426-DDB1-4AC4-90C4-1762146010E5";
paths = (
{
closed = 1;
nodes = (
"1569 1671 LINE",
"1569 -137 LINE",
"1636 -137 LINE",
"1636 1671 LINE"
);
},
{
closed = 1;
nodes = (
"1210 897 LINE",
"1210 836 LINE",
"1608 836 LINE",
"1608 897 LINE"
);
},
{
closed = 1;
nodes = (
"819 1425 LINE",
"819 1419 LINE SMOOTH",
"819 1018 OFFCURVE",
"643 586 OFFCURVE",
"145 322 CURVE",
"186 268 LINE",
"713 555 OFFCURVE",
"885 1008 OFFCURVE",
"885 1425 CURVE"
);
},
{
closed = 1;
nodes = (
"193 1425 LINE",
"193 1364 LINE",
"852 1364 LINE",
"852 1425 LINE"
);
},
{
closed = 1;
nodes = (
"1167 1622 LINE",
"1167 -37 LINE",
"1235 -37 LINE",
"1235 1622 LINE"
);
}
);
width = 1884;
}
);
unicode = AC1C;
}
{
color = 0;
glyphname = uniAC1D;
layers = (
{
layerId = "99E75090-8A73-42EE-982D-99D4C12EA1BB";
paths = (
{
closed = 1;
nodes = (
"1407 1729 LINE",
"1407 608 LINE",
"1720 608 LINE",
"1720 1729 LINE"
);
},
{
closed = 1;
nodes = (
"1212 1307 LINE",
"1212 1042 LINE",
"1487 1042 LINE",
"1487 1307 LINE"
);
},
{
closed = 1;
nodes = (
"987 1694 LINE",
"987 610 LINE",
"1294 610 LINE",
"1294 1694 LINE"
);
},
{
closed = 1;
nodes = (
"365 535 LINE",
"365 274 LINE",
"1391 274 LINE",
"1391 -195 LINE",
"1720 -195 LINE",
"1720 535 LINE"
);
},
{
closed = 1;
nodes = (
"571 1599 LINE",
"571 1473 LINE SMOOTH",
"571 1180 OFFCURVE",
"434 977 OFFCURVE",
"35 838 CURVE",
"186 600 LINE",
"692 788 OFFCURVE",
"901 1102 OFFCURVE",
"901 1599 CURVE"
);
},
{
closed = 1;
nodes = (
"135 1599 LINE",
"135 1339 LINE",
"676 1339 LINE",
"676 1599 LINE"
);
}
);
width = 1884;
},
{
layerId = "35A15426-DDB1-4AC4-90C4-1762146010E5";
paths = (
{
closed = 1;
nodes = (
"1561 1669 LINE",
"1561 598 LINE",
"1626 598 LINE",
"1626 1669 LINE"
);
},
{
closed = 1;
nodes = (
"1202 1178 LINE",
"1202 1116 LINE",
"1599 1116 LINE",
"1599 1178 LINE"
);
},
{
closed = 1;
nodes = (
"1165 1634 LINE",
"1165 612 LINE",
"1233 612 LINE",
"1233 1634 LINE"
);
},
{
closed = 1;
nodes = (
"455 500 LINE",
"455 438 LINE",
"1561 438 LINE",
"1561 -137 LINE",
"1626 -137 LINE",
"1626 500 LINE"
);
},
{
closed = 1;
nodes = (
"842 1528 LINE",
"842 1516 LINE SMOOTH",
"842 1135 OFFCURVE",
"580 811 OFFCURVE",
"160 625 CURVE",
"201 571 LINE",
"643 774 OFFCURVE",
"911 1120 OFFCURVE",
"911 1528 CURVE"
);
},
{
closed = 1;
nodes = (
"217 1528 LINE",
"217 1466 LINE",
"874 1466 LINE",
"874 1528 LINE"
);
}
);
width = 1884;
}
);
unicode = AC1D;
}
{
color = 0;
glyphname = uniAC1E;
layers = (
{
layerId = "99E75090-8A73-42EE-982D-99D4C12EA1BB";
paths = (
{
closed = 1;
nodes = (
"317 551 LINE",
"317 293 LINE",
"653 293 LINE",
"653 -195 LINE",
"985 -195 LINE",
"985 551 LINE"
);
},
{
closed = 1;
nodes = (
"1063 551 LINE",
"1063 293 LINE",
"1391 293 LINE",
"1391 -195 LINE",
"1720 -195 LINE",
"1720 551 LINE"
);
},
{
closed = 1;
nodes = (
"1407 1729 LINE",
"1407 627 LINE",
"1720 627 LINE",
"1720 1729 LINE"
);
},
{
closed = 1;
nodes = (
"1212 1309 LINE",
"1212 1044 LINE",
"1487 1044 LINE",
"1487 1309 LINE"
);
},
{
closed = 1;
nodes = (
"987 1694 LINE",
"987 639 LINE",
"1294 639 LINE",
"1294 1694 LINE"
);
},
{
closed = 1;
nodes = (
"571 1599 LINE",
"571 1473 LINE SMOOTH",
"571 1180 OFFCURVE",
"434 977 OFFCURVE",
"35 838 CURVE",
"186 600 LINE",
"692 788 OFFCURVE",
"901 1102 OFFCURVE",
"901 1599 CURVE"
);
},
{
closed = 1;
nodes = (
"135 1599 LINE",
"135 1339 LINE",
"676 1339 LINE",
"676 1599 LINE"
);
}
);
width = 1884;
},
{
layerId = "35A15426-DDB1-4AC4-90C4-1762146010E5";
paths = (
{
closed = 1;
nodes = (
"416 508 LINE",
"416 446 LINE",
"915 446 LINE",
"915 -137 LINE",
"981 -137 LINE",
"981 508 LINE"
);
},
{
closed = 1;
nodes = (
"1075 508 LINE",
"1075 446 LINE",
"1561 446 LINE",
"1561 -137 LINE",
"1626 -137 LINE",
"1626 508 LINE"
);
},
{
closed = 1;
nodes = (
"1561 1669 LINE",
"1561 637 LINE",
"1626 637 LINE",
"1626 1669 LINE"
);
},
{
closed = 1;
nodes = (
"1202 1182 LINE",
"1202 1120 LINE",
"1599 1120 LINE",
"1599 1182 LINE"
);
},
{
closed = 1;
nodes = (
"1165 1634 LINE",
"1165 649 LINE",
"1233 649 LINE",
"1233 1634 LINE"
);
},
{
closed = 1;
nodes = (
"842 1528 LINE",
"842 1516 LINE SMOOTH",
"842 1139 OFFCURVE",
"569 834 OFFCURVE",
"162 659 CURVE",
"201 604 LINE",
"631 793 OFFCURVE",
"911 1124 OFFCURVE",
"911 1528 CURVE"
);
},
{
closed = 1;
nodes = (
"217 1528 LINE",
"217 1466 LINE",
"874 1466 LINE",
"874 1528 LINE"
);
}
);
width = 1884;
}
);
unicode = AC1E;
}
{
color = 0;
glyphname = uniAC1F;
layers = (
{
layerId = "99E75090-8A73-42EE-982D-99D4C12EA1BB";
paths = (
{
closed = 1;
nodes = (
"276 553 LINE",
"276 295 LINE",
"608 295 LINE",
"608 -186 LINE",
"934 -186 LINE",
"934 553 LINE"
);
},
{
closed = 1;
nodes = (
"1208 569 LINE",
"1208 446 LINE SMOOTH",
"1208 295 OFFCURVE",
"1120 139 OFFCURVE",
"885 57 CURVE",
"1038 -195 LINE",
"1348 -96 OFFCURVE",
"1464 168 OFFCURVE",
"1464 446 CURVE SMOOTH",
"1464 569 LINE"
);
},
{
closed = 1;
nodes = (
"1286 569 LINE",
"1286 446 LINE SMOOTH",
"1286 160 OFFCURVE",
"1399 -98 OFFCURVE",
"1710 -195 CURVE",
"1866 57 LINE",
"1626 133 OFFCURVE",
"1540 287 OFFCURVE",
"1540 446 CURVE SMOOTH",
"1540 569 LINE"
);
},
{
closed = 1;
nodes = (
"1407 1729 LINE",
"1407 637 LINE",
"1720 637 LINE",
"1720 1729 LINE"
);
},
{
closed = 1;
nodes = (
"1217 1311 LINE",
"1217 1049 LINE",
"1491 1049 LINE",
"1491 1311 LINE"
);
},
{
closed = 1;
nodes = (
"987 1694 LINE",
"987 649 LINE",
"1294 649 LINE",
"1294 1694 LINE"
);
},
{
closed = 1;
nodes = (
"573 1599 LINE",
"573 1477 LINE SMOOTH",
"573 1178 OFFCURVE",
"457 977 OFFCURVE",
"53 831 CURVE",
"211 596 LINE",
"719 793 OFFCURVE",
"905 1098 OFFCURVE",
"905 1599 CURVE"
);
},
{
closed = 1;
nodes = (
"143 1599 LINE",
"143 1339 LINE",
"684 1339 LINE",
"684 1599 LINE"
);
}
);
width = 1884;
},
{
layerId = "35A15426-DDB1-4AC4-90C4-1762146010E5";
paths = (
{
closed = 1;
nodes = (
"360 535 LINE",
"360 473 LINE",
"891 473 LINE",
"891 -127 LINE",
"958 -127 LINE",
"958 535 LINE"
);
},
{
closed = 1;
nodes = (
"1366 571 LINE",
"1366 412 LINE SMOOTH",
"1366 209 OFFCURVE",
"1231 0 OFFCURVE",
"1016 -86 CURVE",
"1055 -139 LINE",
"1286 -39 OFFCURVE",
"1423 184 OFFCURVE",
"1423 412 CURVE SMOOTH",
"1423 571 LINE"
);
},
{
closed = 1;
nodes = (
"1374 571 LINE",
"1374 412 LINE SMOOTH",
"1374 197 OFFCURVE",
"1513 -37 OFFCURVE",
"1745 -139 CURVE",
"1784 -86 LINE",
"1569 4 OFFCURVE",
"1432 221 OFFCURVE",
"1432 412 CURVE SMOOTH",
"1432 571 LINE"
);
},
{
closed = 1;
nodes = (
"1561 1669 LINE",
"1561 627 LINE",
"1626 627 LINE",
"1626 1669 LINE"
);
},
{
closed = 1;
nodes = (
"1202 1188 LINE",
"1202 1128 LINE",
"1599 1128 LINE",
"1599 1188 LINE"
);
},
{
closed = 1;
nodes = (
"1165 1634 LINE",
"1165 639 LINE",
"1233 639 LINE",
"1233 1634 LINE"
);
},
{
closed = 1;
nodes = (
"842 1528 LINE",
"842 1516 LINE SMOOTH",
"842 1137 OFFCURVE",
"573 823 OFFCURVE",
"160 643 CURVE",
"201 588 LINE",
"637 784 OFFCURVE",
"911 1122 OFFCURVE",
"911 1528 CURVE"
);
},
{
closed = 1;
nodes = (
"217 1528 LINE",
"217 1466 LINE",
"874 1466 LINE",
"874 1528 LINE"
);
}
);
width = 1884;
}
);
unicode = AC1F;
}
{
color = 0;
glyphname = uniAC20;
layers = (
{
layerId = "99E75090-8A73-42EE-982D-99D4C12EA1BB";
paths = (
{
closed = 1;
nodes = (
"1407 1729 LINE",
"1407 295 LINE",
"1720 295 LINE",
"1720 1729 LINE"
);
},
{
closed = 1;
nodes = (
"1212 1204 LINE",
"1212 940 LINE",
"1487 940 LINE",
"1487 1204 LINE"
);
},
{
closed = 1;
nodes = (
"987 1694 LINE",
"987 344 LINE",
"1294 344 LINE",
"1294 1694 LINE"
);
},
{
closed = 1;
nodes = (
"565 1546 LINE",
"565 1427 LINE SMOOTH",
"565 1114 OFFCURVE",
"432 909 OFFCURVE",
"41 756 CURVE",
"199 516 LINE",
"700 721 OFFCURVE",
"895 1044 OFFCURVE",
"895 1546 CURVE"
);
},
{
closed = 1;
nodes = (
"143 1546 LINE",
"143 1286 LINE",
"684 1286 LINE",
"684 1546 LINE"
);
},
{
closed = 1;
nodes = (
"391 96 LINE",
"391 -166 LINE",
"1769 -166 LINE",
"1769 96 LINE"
);
},
{
closed = 1;
nodes = (
"391 457 LINE",
"391 -74 LINE",
"721 -74 LINE",
"721 457 LINE"
);
}
);
width = 1884;
},
{
layerId = "35A15426-DDB1-4AC4-90C4-1762146010E5";
paths = (
{
closed = 1;
nodes = (
"1561 1669 LINE",
"1561 319 LINE",
"1626 319 LINE",
"1626 1669 LINE"
);
},
{
closed = 1;
nodes = (
"1202 1077 LINE",
"1202 1016 LINE",
"1599 1016 LINE",
"1599 1077 LINE"
);
},
{
closed = 1;
nodes = (
"1165 1634 LINE",
"1165 387 LINE",
"1233 387 LINE",
"1233 1634 LINE"
);
},
{
closed = 1;
nodes = (
"842 1489 LINE",
"842 1481 LINE SMOOTH",
"842 1098 OFFCURVE",
"582 770 OFFCURVE",
"158 582 CURVE",
"197 528 LINE",
"643 733 OFFCURVE",
"909 1083 OFFCURVE",
"909 1489 CURVE"
);
},
{
closed = 1;
nodes = (
"217 1489 LINE",
"217 1430 LINE",
"874 1430 LINE",
"874 1489 LINE"
);
},
{
closed = 1;
nodes = (
"487 -8 LINE",
"487 -68 LINE",
"1690 -68 LINE",
"1690 -8 LINE"
);
},
{
closed = 1;
nodes = (
"487 489 LINE",
"487 -29 LINE",
"555 -29 LINE",
"555 489 LINE"
);
}
);
width = 1884;
}
);
unicode = AC20;
}
{
color = 0;
glyphname = uniAC21;
layers = (
{
layerId = "99E75090-8A73-42EE-982D-99D4C12EA1BB";
paths = (
{
closed = 1;
nodes = (
"1163 465 LINE",
"1163 383 LINE SMOOTH",
"1163 254 OFFCURVE",
"1065 121 OFFCURVE",
"825 59 CURVE",
"969 -190 LINE",
"1288 -109 OFFCURVE",
"1415 127 OFFCURVE",
"1415 383 CURVE SMOOTH",
"1415 465 LINE"
);
},
{
closed = 1;
nodes = (
"1239 465 LINE",
"1239 383 LINE SMOOTH",
"1239 137 OFFCURVE",
"1370 -109 OFFCURVE",
"1688 -190 CURVE",
"1829 59 LINE",
"1593 127 OFFCURVE",
"1493 260 OFFCURVE",
"1493 383 CURVE SMOOTH",
"1493 465 LINE"
);
},
{
closed = 1;
nodes = (
"285 551 LINE",
"285 -6 LINE",
"602 -6 LINE",
"602 551 LINE"
);
},
{
closed = 1;
nodes = (
"285 117 LINE",
"285 -145 LINE",
"397 -145 LINE SMOOTH",
"575 -145 OFFCURVE",
"756 -123 OFFCURVE",
"905 -51 CURVE",
"834 201 LINE",
"705 139 OFFCURVE",
"547 117 OFFCURVE",
"397 117 CURVE SMOOTH"
);
},
{
closed = 1;
nodes = (
"895 588 LINE",
"895 330 LINE",
"1741 330 LINE",
"1741 588 LINE"
);
},
{
closed = 1;
nodes = (
"1407 1729 LINE",
"1407 657 LINE",
"1720 657 LINE",
"1720 1729 LINE"
);
},
{
closed = 1;
nodes = (
"1217 1311 LINE",
"1217 1049 LINE",
"1491 1049 LINE",
"1491 1311 LINE"
);
},
{
closed = 1;
nodes = (
"987 1694 LINE",
"987 668 LINE",
"1294 668 LINE",
"1294 1694 LINE"
);
},
{
closed = 1;
nodes = (
"573 1599 LINE",
"573 1479 LINE SMOOTH",
"573 1174 OFFCURVE",
"457 971 OFFCURVE",
"53 819 CURVE",
"211 584 LINE",
"721 784 OFFCURVE",
"903 1096 OFFCURVE",
"903 1599 CURVE"
);
},
{
closed = 1;
nodes = (
"143 1599 LINE",
"143 1339 LINE",
"684 1339 LINE",
"684 1599 LINE"
);
}
);
width = 1884;
},
{
layerId = "35A15426-DDB1-4AC4-90C4-1762146010E5";
paths = (
{
closed = 1;
nodes = (
"1276 471 LINE",
"1276 350 LINE SMOOTH",
"1276 176 OFFCURVE",
"1114 -10 OFFCURVE",
"899 -84 CURVE",
"934 -139 LINE",
"1169 -53 OFFCURVE",
"1333 152 OFFCURVE",
"1333 350 CURVE SMOOTH",
"1333 471 LINE"
);
},
{
closed = 1;
nodes = (
"1284 471 LINE",
"1284 350 LINE SMOOTH",
"1284 152 OFFCURVE",
"1448 -53 OFFCURVE",
"1683 -139 CURVE",
"1718 -84 LINE",
"1503 -10 OFFCURVE",
"1341 176 OFFCURVE",
"1341 350 CURVE SMOOTH",
"1341 471 LINE"
);
},
{
closed = 1;
nodes = (
"393 487 LINE",
"393 -59 LINE",
"461 -59 LINE",
"461 487 LINE"
);
},
{
closed = 1;
nodes = (
"393 -16 LINE",
"393 -78 LINE",
"467 -78 LINE SMOOTH",
"580 -78 OFFCURVE",
"780 -66 OFFCURVE",
"924 14 CURVE",
"895 74 LINE",
"778 -6 OFFCURVE",
"563 -16 OFFCURVE",
"467 -16 CURVE SMOOTH"
);
},
{
closed = 1;
nodes = (
"932 510 LINE",
"932 449 LINE",
"1686 449 LINE",
"1686 510 LINE"
);
},
{
closed = 1;
nodes = (
"1561 1669 LINE",
"1561 627 LINE",
"1626 627 LINE",
"1626 1669 LINE"
);
},
{
closed = 1;
nodes = (
"1202 1188 LINE",
"1202 1128 LINE",
"1599 1128 LINE",
"1599 1188 LINE"
);
},
{
closed = 1;
nodes = (
"1165 1634 LINE",
"1165 639 LINE",
"1233 639 LINE",
"1233 1634 LINE"
);
},
{
closed = 1;
nodes = (
"842 1528 LINE",
"842 1516 LINE SMOOTH",
"842 1137 OFFCURVE",
"573 823 OFFCURVE",
"160 643 CURVE",
"201 588 LINE",
"637 784 OFFCURVE",
"911 1122 OFFCURVE",
"911 1528 CURVE"
);
},
{
closed = 1;
nodes = (
"217 1528 LINE",
"217 1466 LINE",
"874 1466 LINE",
"874 1528 LINE"
);
}
);
width = 1884;
}
);
unicode = AC21;
}
{
color = 0;
glyphname = uniAC22;
layers = (
{
layerId = "99E75090-8A73-42EE-982D-99D4C12EA1BB";
paths = (
{
closed = 1;
nodes = (
"1407 1729 LINE",
"1407 762 LINE",
"1720 762 LINE",
"1720 1729 LINE"
);
},
{
closed = 1;
nodes = (
"1212 1364 LINE",
"1212 1104 LINE",
"1487 1104 LINE",
"1487 1364 LINE"
);
},
{
closed = 1;
nodes = (
"987 1694 LINE",
"987 774 LINE",
"1294 774 LINE",
"1294 1694 LINE"
);
},
{
closed = 1;
nodes = (
"557 1618 LINE",
"557 1487 LINE SMOOTH",
"557 1221 OFFCURVE",
"432 1036 OFFCURVE",
"45 913 CURVE",
"201 676 LINE",
"690 848 OFFCURVE",
"893 1137 OFFCURVE",
"893 1618 CURVE"
);
},
{
closed = 1;
nodes = (
"150 1618 LINE",
"150 1358 LINE",
"690 1358 LINE",
"690 1618 LINE"
);
},
{
closed = 1;
nodes = (
"328 117 LINE",
"328 -145 LINE",
"444 -145 LINE SMOOTH",
"672 -145 OFFCURVE",
"811 -135 OFFCURVE",
"958 -82 CURVE",
"911 176 LINE",
"778 129 OFFCURVE",
"649 117 OFFCURVE",
"444 117 CURVE SMOOTH"
);
},
{
closed = 1;
nodes = (
"328 616 LINE",
"328 41 LINE",
"647 41 LINE",
"647 616 LINE"
);
},
{
closed = 1;
nodes = (
"891 590 LINE",
"891 356 LINE",
"1810 356 LINE",
"1810 590 LINE"
);
},
{
closed = 1;
nodes = (
"1128 330 OFFCURVE",
"973 225 OFFCURVE",
"973 66 CURVE SMOOTH",
"973 -96 OFFCURVE",
"1128 -199 OFFCURVE",
"1348 -199 CURVE SMOOTH",
"1567 -199 OFFCURVE",
"1722 -96 OFFCURVE",
"1722 66 CURVE SMOOTH",
"1722 225 OFFCURVE",
"1567 330 OFFCURVE",
"1348 330 CURVE SMOOTH"
);
},
{
closed = 1;
nodes = (
"1395 111 OFFCURVE",
"1432 104 OFFCURVE",
"1432 66 CURVE SMOOTH",
"1432 27 OFFCURVE",
"1395 18 OFFCURVE",
"1348 18 CURVE SMOOTH",
"1300 18 OFFCURVE",
"1264 27 OFFCURVE",
"1264 66 CURVE SMOOTH",
"1264 104 OFFCURVE",
"1300 111 OFFCURVE",
"1348 111 CURVE SMOOTH"
);
},
{
closed = 1;
nodes = (
"1192 711 LINE",
"1192 498 LINE",
"1509 498 LINE",
"1509 711 LINE"
);
}
);
width = 1884;
},
{
layerId = "35A15426-DDB1-4AC4-90C4-1762146010E5";
paths = (
{
closed = 1;
nodes = (
"1561 1669 LINE",
"1561 721 LINE",
"1626 721 LINE",
"1626 1669 LINE"
);
},
{
closed = 1;
nodes = (
"1202 1217 LINE",
"1202 1155 LINE",
"1599 1155 LINE",
"1599 1217 LINE"
);
},
{
closed = 1;
nodes = (
"1165 1634 LINE",
"1165 762 LINE",
"1233 762 LINE",
"1233 1634 LINE"
);
},
{
closed = 1;
nodes = (
"844 1561 LINE",
"844 1548 LINE SMOOTH",
"844 1180 OFFCURVE",
"584 887 OFFCURVE",
"162 723 CURVE",
"197 670 LINE",
"641 846 OFFCURVE",
"911 1163 OFFCURVE",
"911 1561 CURVE"
);
},
{
closed = 1;
nodes = (
"219 1561 LINE",
"219 1499 LINE",
"877 1499 LINE",
"877 1561 LINE"
);
},
{
closed = 1;
nodes = (
"391 -27 LINE",
"391 -88 LINE",
"463 -88 LINE SMOOTH",
"526 -88 OFFCURVE",
"717 -82 OFFCURVE",
"907 -23 CURVE",
"891 41 LINE",
"719 -18 OFFCURVE",
"514 -27 OFFCURVE",
"463 -27 CURVE SMOOTH"
);
},
{
closed = 1;
nodes = (
"391 547 LINE",
"391 -47 LINE",
"459 -47 LINE",
"459 547 LINE"
);
},
{
closed = 1;
nodes = (
"868 504 LINE",
"868 442 LINE",
"1735 442 LINE",
"1735 504 LINE"
);
},
{
closed = 1;
nodes = (
"1108 336 OFFCURVE",
"967 246 OFFCURVE",
"967 102 CURVE SMOOTH",
"967 -43 OFFCURVE",
"1108 -131 OFFCURVE",
"1305 -131 CURVE SMOOTH",
"1501 -131 OFFCURVE",
"1640 -43 OFFCURVE",
"1640 102 CURVE SMOOTH",
"1640 246 OFFCURVE",
"1501 336 OFFCURVE",
"1305 336 CURVE SMOOTH"
);
},
{
closed = 1;
nodes = (
"1466 279 OFFCURVE",
"1577 205 OFFCURVE",
"1577 102 CURVE SMOOTH",
"1577 -2 OFFCURVE",
"1466 -74 OFFCURVE",
"1305 -74 CURVE SMOOTH",
"1141 -74 OFFCURVE",
"1030 -2 OFFCURVE",
"1030 102 CURVE SMOOTH",
"1030 205 OFFCURVE",
"1141 279 OFFCURVE",
"1305 279 CURVE SMOOTH"
);
},
{
closed = 1;
nodes = (
"1270 690 LINE",
"1270 463 LINE",
"1337 463 LINE",
"1337 690 LINE"
);
}
);
width = 1884;
}
);
unicode = AC22;
}
{
color = 0;
glyphname = uniAC23;
layers = (
{
layerId = "99E75090-8A73-42EE-982D-99D4C12EA1BB";
paths = (
{
closed = 1;
nodes = (
"401 84 LINE",
"401 -176 LINE",
"1751 -176 LINE",
"1751 84 LINE"
);
},
{
closed = 1;
nodes = (
"401 539 LINE",
"401 41 LINE",
"731 41 LINE",
"731 281 LINE",
"1735 281 LINE",
"1735 539 LINE"
);
},
{
closed = 1;
nodes = (
"1407 1729 LINE",
"1407 608 LINE",
"1720 608 LINE",
"1720 1729 LINE"
);
},
{
closed = 1;
nodes = (
"1217 1296 LINE",
"1217 1032 LINE",
"1491 1032 LINE",
"1491 1296 LINE"
);
},
{
closed = 1;
nodes = (
"987 1698 LINE",
"987 625 LINE",
"1294 625 LINE",
"1294 1698 LINE"
);
},
{
closed = 1;
nodes = (
"573 1599 LINE",
"573 1479 LINE SMOOTH",
"573 1174 OFFCURVE",
"457 971 OFFCURVE",
"53 819 CURVE",
"211 584 LINE",
"721 784 OFFCURVE",
"903 1096 OFFCURVE",
"903 1599 CURVE"
);
},
{
closed = 1;
nodes = (
"143 1599 LINE",
"143 1339 LINE",
"684 1339 LINE",
"684 1599 LINE"
);
}
);
width = 1884;
},
{
layerId = "35A15426-DDB1-4AC4-90C4-1762146010E5";
paths = (
{
closed = 1;
nodes = (
"479 -47 LINE",
"479 -109 LINE",
"1661 -109 LINE",
"1661 -47 LINE"
);
},
{
closed = 1;
nodes = (
"479 494 LINE",
"479 -80 LINE",
"547 -80 LINE",
"547 434 LINE",
"1636 434 LINE",
"1636 494 LINE"
);
},
{
closed = 1;
nodes = (
"1561 1669 LINE",
"1561 627 LINE",
"1626 627 LINE",
"1626 1669 LINE"
);
},
{
closed = 1;
nodes = (
"1202 1188 LINE",
"1202 1128 LINE",
"1599 1128 LINE",
"1599 1188 LINE"
);
},
{
closed = 1;
nodes = (
"1165 1634 LINE",
"1165 639 LINE",
"1233 639 LINE",
"1233 1634 LINE"
);
},
{
closed = 1;
nodes = (
"842 1528 LINE",
"842 1516 LINE SMOOTH",
"842 1137 OFFCURVE",
"573 823 OFFCURVE",
"160 643 CURVE",
"201 588 LINE",
"637 784 OFFCURVE",
"911 1122 OFFCURVE",
"911 1528 CURVE"
);
},
{
closed = 1;
nodes = (
"217 1528 LINE",
"217 1466 LINE",
"874 1466 LINE",
"874 1528 LINE"
);
}
);
width = 1884;
}
);
unicode = AC23;
}
{
color = 0;
glyphname = uniAC24;
layers = (
{
layerId = "99E75090-8A73-42EE-982D-99D4C12EA1BB";
paths = (
{
closed = 1;
nodes = (
"1407 1729 LINE",
"1407 780 LINE",
"1720 780 LINE",
"1720 1729 LINE"
);
},
{
closed = 1;
nodes = (
"1212 1366 LINE",
"1212 1106 LINE",
"1487 1106 LINE",
"1487 1366 LINE"
);
},
{
closed = 1;
nodes = (
"987 1694 LINE",
"987 793 LINE",
"1294 793 LINE",
"1294 1694 LINE"
);
},
{
closed = 1;
nodes = (
"557 1618 LINE",
"557 1483 LINE SMOOTH",
"557 1229 OFFCURVE",
"432 1053 OFFCURVE",
"49 938 CURVE",
"201 700 LINE",
"686 862 OFFCURVE",
"893 1143 OFFCURVE",
"893 1618 CURVE"
);
},
{
closed = 1;
nodes = (
"150 1618 LINE",
"150 1360 LINE",
"690 1360 LINE",
"690 1618 LINE"
);
},
{
closed = 1;
nodes = (
"393 709 LINE",
"393 457 LINE",
"1395 457 LINE",
"1395 389 LINE",
"395 389 LINE",
"395 -45 LINE",
"723 -45 LINE",
"723 152 LINE",
"1720 152 LINE",
"1720 709 LINE"
);
},
{
closed = 1;
nodes = (
"395 80 LINE",
"395 -176 LINE",
"1776 -176 LINE",
"1776 80 LINE"
);
}
);
width = 1884;
},
{
layerId = "35A15426-DDB1-4AC4-90C4-1762146010E5";
paths = (
{
closed = 1;
nodes = (
"1561 1669 LINE",
"1561 721 LINE",
"1626 721 LINE",
"1626 1669 LINE"
);
},
{
closed = 1;
nodes = (
"1202 1217 LINE",
"1202 1155 LINE",
"1599 1155 LINE",
"1599 1217 LINE"
);
},
{
closed = 1;
nodes = (
"1165 1634 LINE",
"1165 735 LINE",
"1233 735 LINE",
"1233 1634 LINE"
);
},
{
closed = 1;
nodes = (
"844 1556 LINE",
"844 1544 LINE SMOOTH",
"844 1178 OFFCURVE",
"582 889 OFFCURVE",
"162 729 CURVE",
"197 676 LINE",
"639 848 OFFCURVE",
"911 1161 OFFCURVE",
"911 1556 CURVE"
);
},
{
closed = 1;
nodes = (
"219 1556 LINE",
"219 1495 LINE",
"877 1495 LINE",
"877 1556 LINE"
);
},
{
closed = 1;
nodes = (
"471 627 LINE",
"471 565 LINE",
"1563 565 LINE",
"1563 309 LINE",
"477 309 LINE",
"477 -68 LINE",
"543 -68 LINE",
"543 248 LINE",
"1626 248 LINE",
"1626 627 LINE"
);
},
{
closed = 1;
nodes = (
"477 -47 LINE",
"477 -109 LINE",
"1708 -109 LINE",
"1708 -47 LINE"
);
}
);
width = 1884;
}
);
unicode = AC24;
}
{
color = 0;
glyphname = uniAC25;
layers = (
{
layerId = "99E75090-8A73-42EE-982D-99D4C12EA1BB";
paths = (
{
closed = 1;
nodes = (
"1047 680 LINE",
"1047 420 LINE",
"1391 420 LINE",
"1391 -188 LINE",
"1720 -188 LINE",
"1720 680 LINE"
);
},
{
closed = 1;
nodes = (
"1407 1729 LINE",
"1407 752 LINE",
"1720 752 LINE",
"1720 1729 LINE"
);
},
{
closed = 1;
nodes = (
"1212 1360 LINE",
"1212 1100 LINE",
"1487 1100 LINE",
"1487 1360 LINE"
);
},
{
closed = 1;
nodes = (
"987 1694 LINE",
"987 764 LINE",
"1294 764 LINE",
"1294 1694 LINE"
);
},
{
closed = 1;
nodes = (
"557 1618 LINE",
"557 1483 LINE SMOOTH",
"557 1229 OFFCURVE",
"432 1053 OFFCURVE",
"49 938 CURVE",
"201 700 LINE",
"686 862 OFFCURVE",
"893 1143 OFFCURVE",
"893 1618 CURVE"
);
},
{
closed = 1;
nodes = (
"150 1618 LINE",
"150 1358 LINE",
"690 1358 LINE",
"690 1618 LINE"
);
},
{
closed = 1;
nodes = (
"295 680 LINE",
"295 438 LINE",
"653 438 LINE",
"653 373 LINE",
"297 373 LINE",
"297 -4 LINE",
"616 -4 LINE",
"616 147 LINE",
"973 147 LINE",
"973 680 LINE"
);
},
{
closed = 1;
nodes = (
"297 72 LINE",
"297 -176 LINE",
"432 -176 LINE SMOOTH",
"764 -176 OFFCURVE",
"922 -174 OFFCURVE",
"1104 -141 CURVE",
"1075 104 LINE",
"899 74 OFFCURVE",
"752 72 OFFCURVE",
"432 72 CURVE SMOOTH"
);
}
);
width = 1884;
},
{
layerId = "35A15426-DDB1-4AC4-90C4-1762146010E5";
paths = (
{
closed = 1;
nodes = (
"1075 602 LINE",
"1075 541 LINE",
"1561 541 LINE",
"1561 -137 LINE",
"1626 -137 LINE",
"1626 602 LINE"
);
},
{
closed = 1;
nodes = (
"1561 1669 LINE",
"1561 721 LINE",
"1626 721 LINE",
"1626 1669 LINE"
);
},
{
closed = 1;
nodes = (
"1202 1217 LINE",
"1202 1155 LINE",
"1599 1155 LINE",
"1599 1217 LINE"
);
},
{
closed = 1;
nodes = (
"1165 1634 LINE",
"1165 735 LINE",
"1233 735 LINE",
"1233 1634 LINE"
);
},
{
closed = 1;
nodes = (
"844 1561 LINE",
"844 1548 LINE SMOOTH",
"844 1180 OFFCURVE",
"584 887 OFFCURVE",
"162 723 CURVE",
"197 670 LINE",
"641 846 OFFCURVE",
"911 1163 OFFCURVE",
"911 1561 CURVE"
);
},
{
closed = 1;
nodes = (
"219 1561 LINE",
"219 1499 LINE",
"877 1499 LINE",
"877 1561 LINE"
);
},
{
closed = 1;
nodes = (
"373 602 LINE",
"373 541 LINE",
"897 541 LINE",
"897 293 LINE",
"379 293 LINE",
"379 -86 LINE",
"444 -86 LINE",
"444 233 LINE",
"963 233 LINE",
"963 602 LINE"
);
},
{
closed = 1;
nodes = (
"379 -47 LINE",
"379 -109 LINE",
"479 -109 LINE SMOOTH",
"762 -109 OFFCURVE",
"915 -104 OFFCURVE",
"1122 -63 CURVE",
"1114 -4 LINE",
"915 -41 OFFCURVE",
"760 -47 OFFCURVE",
"479 -47 CURVE SMOOTH"
);
}
);
width = 1884;
}
);
unicode = AC25;
}
{
color = 0;
glyphname = uniAC26;
layers = (
{
layerId = "99E75090-8A73-42EE-982D-99D4C12EA1BB";
paths = (
{
closed = 1;
nodes = (
"295 680 LINE",
"295 438 LINE",
"637 438 LINE",
"637 373 LINE",
"297 373 LINE",
"297 -4 LINE",
"616 -4 LINE",
"616 147 LINE",
"956 147 LINE",
"956 680 LINE"
);
},
{
closed = 1;
nodes = (
"1047 680 LINE",
"1047 -176 LINE",
"1720 -176 LINE",
"1720 680 LINE"
);
},
{
closed = 1;
nodes = (
"1440 442 LINE",
"1440 61 LINE",
"1327 61 LINE",
"1327 442 LINE"
);
},
{
closed = 1;
nodes = (
"297 72 LINE",
"297 -176 LINE",
"420 -176 LINE SMOOTH",
"696 -176 OFFCURVE",
"836 -174 OFFCURVE",
"999 -143 CURVE",
"973 102 LINE",
"813 74 OFFCURVE",
"686 72 OFFCURVE",
"420 72 CURVE SMOOTH"
);
},
{
closed = 1;
nodes = (
"1407 1729 LINE",
"1407 752 LINE",
"1720 752 LINE",
"1720 1729 LINE"
);
},
{
closed = 1;
nodes = (
"1212 1360 LINE",
"1212 1100 LINE",
"1487 1100 LINE",
"1487 1360 LINE"
);
},
{
closed = 1;
nodes = (
"987 1694 LINE",
"987 764 LINE",
"1294 764 LINE",
"1294 1694 LINE"
);
},
{
closed = 1;
nodes = (
"557 1618 LINE",
"557 1483 LINE SMOOTH",
"557 1229 OFFCURVE",
"432 1053 OFFCURVE",
"49 938 CURVE",
"201 700 LINE",
"686 862 OFFCURVE",
"893 1143 OFFCURVE",
"893 1618 CURVE"
);
},
{
closed = 1;
nodes = (
"150 1618 LINE",
"150 1358 LINE",
"690 1358 LINE",
"690 1618 LINE"
);
}
);
width = 1884;
},
{
layerId = "35A15426-DDB1-4AC4-90C4-1762146010E5";
paths = (
{
closed = 1;
nodes = (
"375 604 LINE",
"375 543 LINE",
"874 543 LINE",
"874 303 LINE",
"381 303 LINE",
"381 -66 LINE",
"446 -66 LINE",
"446 244 LINE",
"940 244 LINE",
"940 604 LINE"
);
},
{
closed = 1;
nodes = (
"1077 604 LINE",
"1077 -109 LINE",
"1626 -109 LINE",
"1626 604 LINE"
);
},
{
closed = 1;
nodes = (
"1561 545 LINE",
"1561 -49 LINE",
"1143 -49 LINE",
"1143 545 LINE"
);
},
{
closed = 1;
nodes = (
"381 -47 LINE",
"381 -109 LINE",
"467 -109 LINE SMOOTH",
"692 -109 OFFCURVE",
"823 -106 OFFCURVE",
"1004 -70 CURVE",
"993 -10 LINE",
"821 -43 OFFCURVE",
"690 -47 OFFCURVE",
"467 -47 CURVE SMOOTH"
);
},
{
closed = 1;
nodes = (
"1561 1669 LINE",
"1561 721 LINE",
"1626 721 LINE",
"1626 1669 LINE"
);
},
{
closed = 1;
nodes = (
"1202 1217 LINE",
"1202 1155 LINE",
"1599 1155 LINE",
"1599 1217 LINE"
);
},
{
closed = 1;
nodes = (
"1165 1634 LINE",
"1165 735 LINE",
"1233 735 LINE",
"1233 1634 LINE"
);
},
{
closed = 1;
nodes = (
"844 1561 LINE",
"844 1548 LINE SMOOTH",
"844 1180 OFFCURVE",
"584 887 OFFCURVE",
"162 723 CURVE",
"197 670 LINE",
"641 846 OFFCURVE",
"911 1163 OFFCURVE",
"911 1561 CURVE"
);
},
{
closed = 1;
nodes = (
"219 1561 LINE",
"219 1499 LINE",
"877 1499 LINE",
"877 1561 LINE"
);
}
);
width = 1884;
}
);
unicode = AC26;
}
{
color = 0;
glyphname = uniAC28;
layers = (
{
layerId = "99E75090-8A73-42EE-982D-99D4C12EA1BB";
paths = (
{
closed = 1;
nodes = (
"1237 690 LINE",
"1237 526 LINE SMOOTH",
"1237 334 OFFCURVE",
"1165 158 OFFCURVE",
"946 61 CURVE",
"1114 -188 LINE",
"1397 -70 OFFCURVE",
"1487 211 OFFCURVE",
"1487 526 CURVE SMOOTH",
"1487 690 LINE"
);
},
{
closed = 1;
nodes = (
"1313 690 LINE",
"1313 526 LINE SMOOTH",
"1313 225 OFFCURVE",
"1411 -66 OFFCURVE",
"1694 -188 CURVE",
"1860 61 LINE",
"1638 170 OFFCURVE",
"1565 346 OFFCURVE",
"1565 526 CURVE SMOOTH",
"1565 690 LINE"
);
},
{
closed = 1;
nodes = (
"1407 1729 LINE",
"1407 752 LINE",
"1720 752 LINE",
"1720 1729 LINE"
);
},
{
closed = 1;
nodes = (
"1212 1360 LINE",
"1212 1100 LINE",
"1487 1100 LINE",
"1487 1360 LINE"
);
},
{
closed = 1;
nodes = (
"987 1694 LINE",
"987 764 LINE",
"1294 764 LINE",
"1294 1694 LINE"
);
},
{
closed = 1;
nodes = (
"557 1618 LINE",
"557 1483 LINE SMOOTH",
"557 1229 OFFCURVE",
"432 1053 OFFCURVE",
"49 938 CURVE",
"201 700 LINE",
"686 862 OFFCURVE",
"893 1143 OFFCURVE",
"893 1618 CURVE"
);
},
{
closed = 1;
nodes = (
"150 1618 LINE",
"150 1358 LINE",
"690 1358 LINE",
"690 1618 LINE"
);
},
{
closed = 1;
nodes = (
"295 670 LINE",
"295 428 LINE",
"629 428 LINE",
"629 365 LINE",
"297 365 LINE",
"297 -14 LINE",
"616 -14 LINE",
"616 139 LINE",
"948 139 LINE",
"948 670 LINE"
);
},
{
closed = 1;
nodes = (
"297 72 LINE",
"297 -176 LINE",
"418 -176 LINE SMOOTH",
"729 -176 OFFCURVE",
"850 -174 OFFCURVE",
"993 -145 CURVE",
"965 100 LINE",
"827 74 OFFCURVE",
"713 72 OFFCURVE",
"418 72 CURVE SMOOTH"
);
}
);
width = 1884;
},
{
layerId = "35A15426-DDB1-4AC4-90C4-1762146010E5";
paths = (
{
closed = 1;
nodes = (
"1350 625 LINE",
"1350 444 LINE SMOOTH",
"1350 248 OFFCURVE",
"1214 23 OFFCURVE",
"999 -70 CURVE",
"1038 -125 LINE",
"1268 -16 OFFCURVE",
"1407 223 OFFCURVE",
"1407 444 CURVE SMOOTH",
"1407 625 LINE"
);
},
{
closed = 1;
nodes = (
"1358 625 LINE",
"1358 444 LINE SMOOTH",
"1358 221 OFFCURVE",
"1499 -16 OFFCURVE",
"1729 -125 CURVE",
"1767 -70 LINE",
"1552 23 OFFCURVE",
"1413 246 OFFCURVE",
"1413 444 CURVE SMOOTH",
"1413 625 LINE"
);
},
{
closed = 1;
nodes = (
"1561 1669 LINE",
"1561 721 LINE",
"1626 721 LINE",
"1626 1669 LINE"
);
},
{
closed = 1;
nodes = (
"1202 1217 LINE",
"1202 1155 LINE",
"1599 1155 LINE",
"1599 1217 LINE"
);
},
{
closed = 1;
nodes = (
"1165 1634 LINE",
"1165 735 LINE",
"1233 735 LINE",
"1233 1634 LINE"
);
},
{
closed = 1;
nodes = (
"844 1561 LINE",
"844 1548 LINE SMOOTH",
"844 1182 OFFCURVE",
"584 891 OFFCURVE",
"162 729 CURVE",
"197 676 LINE",
"639 850 OFFCURVE",
"911 1163 OFFCURVE",
"911 1561 CURVE"
);
},
{
closed = 1;
nodes = (
"219 1561 LINE",
"219 1499 LINE",
"877 1499 LINE",
"877 1561 LINE"
);
},
{
closed = 1;
nodes = (
"375 604 LINE",
"375 543 LINE",
"883 543 LINE",
"883 301 LINE",
"381 301 LINE",
"381 -72 LINE",
"446 -72 LINE",
"446 240 LINE",
"948 240 LINE",
"948 604 LINE"
);
},
{
closed = 1;
nodes = (
"381 -47 LINE",
"381 -109 LINE",
"465 -109 LINE SMOOTH",
"686 -109 OFFCURVE",
"815 -106 OFFCURVE",
"991 -72 CURVE",
"981 -10 LINE",
"813 -43 OFFCURVE",
"684 -47 OFFCURVE",
"465 -47 CURVE SMOOTH"
);
}
);
width = 1884;
}
);
unicode = AC28;
}
{
color = 0;
glyphname = uniAC2B;
layers = (
{
layerId = "99E75090-8A73-42EE-982D-99D4C12EA1BB";
paths = (
{
closed = 1;
nodes = (
"969 592 LINE",
"969 358 LINE",
"1794 358 LINE",
"1794 592 LINE"
);
},
{
closed = 1;
nodes = (
"1165 328 OFFCURVE",
"1012 223 OFFCURVE",
"1012 63 CURVE SMOOTH",
"1012 -96 OFFCURVE",
"1165 -201 OFFCURVE",
"1376 -201 CURVE SMOOTH",
"1587 -201 OFFCURVE",
"1739 -96 OFFCURVE",
"1739 63 CURVE SMOOTH",
"1739 223 OFFCURVE",
"1587 328 OFFCURVE",
"1376 328 CURVE SMOOTH"
);
},
{
closed = 1;
nodes = (
"1415 109 OFFCURVE",
"1452 102 OFFCURVE",
"1452 63 CURVE SMOOTH",
"1452 25 OFFCURVE",
"1415 16 OFFCURVE",
"1376 16 CURVE SMOOTH",
"1335 16 OFFCURVE",
"1298 25 OFFCURVE",
"1298 63 CURVE SMOOTH",
"1298 102 OFFCURVE",
"1335 109 OFFCURVE",
"1376 109 CURVE SMOOTH"
);
},
{
closed = 1;
nodes = (
"1219 729 LINE",
"1219 438 LINE",
"1538 438 LINE",
"1538 729 LINE"
);
},
{
closed = 1;
nodes = (
"1407 1729 LINE",
"1407 780 LINE",
"1720 780 LINE",
"1720 1729 LINE"
);
},
{
closed = 1;
nodes = (
"1212 1368 LINE",
"1212 1108 LINE",
"1487 1108 LINE",
"1487 1368 LINE"
);
},
{
closed = 1;
nodes = (
"987 1694 LINE",
"987 793 LINE",
"1294 793 LINE",
"1294 1694 LINE"
);
},
{
closed = 1;
nodes = (
"557 1618 LINE",
"557 1481 LINE SMOOTH",
"557 1235 OFFCURVE",
"432 1061 OFFCURVE",
"49 950 CURVE",
"201 711 LINE",
"686 870 OFFCURVE",
"893 1145 OFFCURVE",
"893 1618 CURVE"
);
},
{
closed = 1;
nodes = (
"150 1618 LINE",
"150 1358 LINE",
"690 1358 LINE",
"690 1618 LINE"
);
},
{
closed = 1;
nodes = (
"295 680 LINE",
"295 438 LINE",
"604 438 LINE",
"604 373 LINE",
"297 373 LINE",
"297 -4 LINE",
"616 -4 LINE",
"616 147 LINE",
"924 147 LINE",
"924 680 LINE"
);
},
{
closed = 1;
nodes = (
"297 72 LINE",
"297 -176 LINE",
"420 -176 LINE SMOOTH",
"696 -176 OFFCURVE",
"836 -174 OFFCURVE",
"999 -143 CURVE",
"973 102 LINE",
"813 74 OFFCURVE",
"686 72 OFFCURVE",
"420 72 CURVE SMOOTH"
);
}
);
width = 1884;
},
{
layerId = "35A15426-DDB1-4AC4-90C4-1762146010E5";
paths = (
{
closed = 1;
nodes = (
"985 506 LINE",
"985 444 LINE",
"1739 444 LINE",
"1739 506 LINE"
);
},
{
closed = 1;
nodes = (
"1182 344 OFFCURVE",
"1051 252 OFFCURVE",
"1051 106 CURVE SMOOTH",
"1051 -39 OFFCURVE",
"1182 -131 OFFCURVE",
"1362 -131 CURVE SMOOTH",
"1540 -131 OFFCURVE",
"1671 -39 OFFCURVE",
"1671 106 CURVE SMOOTH",
"1671 252 OFFCURVE",
"1540 344 OFFCURVE",
"1362 344 CURVE SMOOTH"
);
},
{
closed = 1;
nodes = (
"1509 289 OFFCURVE",
"1610 211 OFFCURVE",
"1610 106 CURVE SMOOTH",
"1610 0 OFFCURVE",
"1509 -76 OFFCURVE",
"1362 -76 CURVE SMOOTH",
"1214 -76 OFFCURVE",
"1114 0 OFFCURVE",
"1114 106 CURVE SMOOTH",
"1114 211 OFFCURVE",
"1214 289 OFFCURVE",
"1362 289 CURVE SMOOTH"
);
},
{
closed = 1;
nodes = (
"1327 702 LINE",
"1327 475 LINE",
"1395 475 LINE",
"1395 702 LINE"
);
},
{
closed = 1;
nodes = (
"1561 1669 LINE",
"1561 737 LINE",
"1626 737 LINE",
"1626 1669 LINE"
);
},
{
closed = 1;
nodes = (
"1202 1225 LINE",
"1202 1163 LINE",
"1599 1163 LINE",
"1599 1225 LINE"
);
},
{
closed = 1;
nodes = (
"1165 1634 LINE",
"1165 762 LINE",
"1233 762 LINE",
"1233 1634 LINE"
);
},
{
closed = 1;
nodes = (
"844 1561 LINE",
"844 1548 LINE SMOOTH",
"844 1184 OFFCURVE",
"571 920 OFFCURVE",
"164 774 CURVE",
"197 721 LINE",
"627 877 OFFCURVE",
"911 1169 OFFCURVE",
"911 1561 CURVE"
);
},
{
closed = 1;
nodes = (
"219 1561 LINE",
"219 1499 LINE",
"877 1499 LINE",
"877 1561 LINE"
);
},
{
closed = 1;
nodes = (
"356 604 LINE",
"356 543 LINE",
"856 543 LINE",
"856 303 LINE",
"362 303 LINE",
"362 -66 LINE",
"426 -66 LINE",
"426 244 LINE",
"920 244 LINE",
"920 604 LINE"
);
},
{
closed = 1;
nodes = (
"362 -47 LINE",
"362 -109 LINE",
"449 -109 LINE SMOOTH",
"684 -109 OFFCURVE",
"817 -104 OFFCURVE",
"1004 -70 CURVE",
"993 -10 LINE",
"817 -43 OFFCURVE",
"682 -47 OFFCURVE",
"449 -47 CURVE SMOOTH"
);
}
);
width = 1884;
}
);
unicode = AC2B;
}
{
color = 0;
glyphname = uniAC2C;
layers = (
{
layerId = "99E75090-8A73-42EE-982D-99D4C12EA1BB";
paths = (
{
closed = 1;
nodes = (
"1407 1729 LINE",
"1407 637 LINE",
"1720 637 LINE",
"1720 1729 LINE"
);
},
{
closed = 1;
nodes = (
"1217 1311 LINE",
"1217 1049 LINE",
"1491 1049 LINE",
"1491 1311 LINE"
);
},
{
closed = 1;
nodes = (
"987 1694 LINE",
"987 649 LINE",
"1294 649 LINE",
"1294 1694 LINE"
);
},
{
closed = 1;
nodes = (
"573 1599 LINE",
"573 1479 LINE SMOOTH",
"573 1174 OFFCURVE",
"457 971 OFFCURVE",
"53 819 CURVE",
"211 584 LINE",
"721 784 OFFCURVE",
"903 1096 OFFCURVE",
"903 1599 CURVE"
);
},
{
closed = 1;
nodes = (
"143 1599 LINE",
"143 1339 LINE",
"684 1339 LINE",
"684 1599 LINE"
);
},
{
closed = 1;
nodes = (
"395 557 LINE",
"395 -166 LINE",
"1720 -166 LINE",
"1720 557 LINE"
);
},
{
closed = 1;
nodes = (
"1397 301 LINE",
"1397 92 LINE",
"721 92 LINE",
"721 301 LINE"
);
}
);
width = 1884;
},
{
layerId = "35A15426-DDB1-4AC4-90C4-1762146010E5";
paths = (
{
closed = 1;
nodes = (
"1561 1669 LINE",
"1561 627 LINE",
"1626 627 LINE",
"1626 1669 LINE"
);
},
{
closed = 1;
nodes = (
"1202 1188 LINE",
"1202 1128 LINE",
"1599 1128 LINE",
"1599 1188 LINE"
);
},
{
closed = 1;
nodes = (
"1165 1634 LINE",
"1165 639 LINE",
"1233 639 LINE",
"1233 1634 LINE"
);
},
{
closed = 1;
nodes = (
"842 1528 LINE",
"842 1516 LINE SMOOTH",
"842 1137 OFFCURVE",
"573 823 OFFCURVE",
"160 643 CURVE",
"201 588 LINE",
"637 784 OFFCURVE",
"911 1122 OFFCURVE",
"911 1528 CURVE"
);
},
{
closed = 1;
nodes = (
"217 1528 LINE",
"217 1466 LINE",
"874 1466 LINE",
"874 1528 LINE"
);
},
{
closed = 1;
nodes = (
"479 520 LINE",
"479 -109 LINE",
"1626 -109 LINE",
"1626 520 LINE"
);
},
{
closed = 1;
nodes = (
"1561 459 LINE",
"1561 -47 LINE",
"547 -47 LINE",
"547 459 LINE"
);
}
);
width = 1884;
}
);
unicode = AC2C;
}
{
color = 0;
glyphname = uniAC2E;
layers = (
{
layerId = "99E75090-8A73-42EE-982D-99D4C12EA1BB";
paths = (
{
closed = 1;
nodes = (
"279 604 LINE",
"279 -176 LINE",
"995 -176 LINE",
"995 604 LINE",
"696 604 LINE",
"696 442 LINE",
"582 442 LINE",
"582 604 LINE"
);
},
{
closed = 1;
nodes = (
"582 207 LINE",
"696 207 LINE",
"696 70 LINE",
"582 70 LINE"
);
},
{
closed = 1;
nodes = (
"1237 621 LINE",
"1237 487 LINE SMOOTH",
"1237 311 OFFCURVE",
"1161 145 OFFCURVE",
"944 49 CURVE",
"1106 -195 LINE",
"1389 -84 OFFCURVE",
"1485 195 OFFCURVE",
"1485 487 CURVE SMOOTH",
"1485 621 LINE"
);
},
{
closed = 1;
nodes = (
"1317 621 LINE",
"1317 487 LINE SMOOTH",
"1317 168 OFFCURVE",
"1403 -92 OFFCURVE",
"1696 -195 CURVE",
"1858 49 LINE",
"1636 125 OFFCURVE",
"1565 291 OFFCURVE",
"1565 487 CURVE SMOOTH",
"1565 621 LINE"
);
},
{
closed = 1;
nodes = (
"1407 1729 LINE",
"1407 686 LINE",
"1720 686 LINE",
"1720 1729 LINE"
);
},
{
closed = 1;
nodes = (
"1214 1327 LINE",
"1214 1065 LINE",
"1489 1065 LINE",
"1489 1327 LINE"
);
},
{
closed = 1;
nodes = (
"987 1694 LINE",
"987 698 LINE",
"1294 698 LINE",
"1294 1694 LINE"
);
},
{
closed = 1;
nodes = (
"565 1618 LINE",
"565 1495 LINE SMOOTH",
"565 1208 OFFCURVE",
"434 1012 OFFCURVE",
"53 877 CURVE",
"209 637 LINE",
"696 825 OFFCURVE",
"897 1130 OFFCURVE",
"897 1618 CURVE"
);
},
{
closed = 1;
nodes = (
"150 1618 LINE",
"150 1358 LINE",
"690 1358 LINE",
"690 1618 LINE"
);
}
);
width = 1884;
},
{
layerId = "35A15426-DDB1-4AC4-90C4-1762146010E5";
paths = (
{
closed = 1;
nodes = (
"354 608 LINE",
"354 -109 LINE",
"944 -109 LINE",
"944 608 LINE",
"879 608 LINE",
"879 334 LINE",
"420 334 LINE",
"420 608 LINE"
);
},
{
closed = 1;
nodes = (
"420 274 LINE",
"879 274 LINE",
"879 -47 LINE",
"420 -47 LINE"
);
},
{
closed = 1;
nodes = (
"1350 616 LINE",
"1350 449 LINE SMOOTH",
"1350 250 OFFCURVE",
"1212 27 OFFCURVE",
"995 -66 CURVE",
"1034 -121 LINE",
"1264 -12 OFFCURVE",
"1407 225 OFFCURVE",
"1407 449 CURVE SMOOTH",
"1407 616 LINE"
);
},
{
closed = 1;
nodes = (
"1358 616 LINE",
"1358 449 LINE SMOOTH",
"1358 225 OFFCURVE",
"1499 -12 OFFCURVE",
"1729 -121 CURVE",
"1767 -66 LINE",
"1552 27 OFFCURVE",
"1413 250 OFFCURVE",
"1413 449 CURVE SMOOTH",
"1413 616 LINE"
);
},
{
closed = 1;
nodes = (
"1561 1669 LINE",
"1561 684 LINE",
"1626 684 LINE",
"1626 1669 LINE"
);
},
{
closed = 1;
nodes = (
"1202 1196 LINE",
"1202 1135 LINE",
"1599 1135 LINE",
"1599 1196 LINE"
);
},
{
closed = 1;
nodes = (
"1165 1634 LINE",
"1165 705 LINE",
"1233 705 LINE",
"1233 1634 LINE"
);
},
{
closed = 1;
nodes = (
"842 1540 LINE",
"842 1528 LINE SMOOTH",
"842 1165 OFFCURVE",
"569 899 OFFCURVE",
"164 754 CURVE",
"201 698 LINE",
"627 856 OFFCURVE",
"911 1147 OFFCURVE",
"911 1540 CURVE"
);
},
{
closed = 1;
nodes = (
"219 1540 LINE",
"219 1481 LINE",
"877 1481 LINE",
"877 1540 LINE"
);
}
);
width = 1884;
}
);
unicode = AC2E;
}
{
color = 0;
glyphname = uniAC2F;
layers = (
{
layerId = "99E75090-8A73-42EE-982D-99D4C12EA1BB";
paths = (
{
closed = 1;
nodes = (
"578 1575 LINE",
"578 1458 LINE SMOOTH",
"578 1135 OFFCURVE",
"436 920 OFFCURVE",
"47 760 CURVE",
"213 522 LINE",
"709 735 OFFCURVE",
"907 1069 OFFCURVE",
"907 1575 CURVE"
);
},
{
closed = 1;
nodes = (
"145 1575 LINE",
"145 1313 LINE",
"686 1313 LINE",
"686 1575 LINE"
);
},
{
closed = 1;
nodes = (
"1407 1729 LINE",
"1407 475 LINE",
"1720 475 LINE",
"1720 1729 LINE"
);
},
{
closed = 1;
nodes = (
"1219 1284 LINE",
"1219 1020 LINE",
"1493 1020 LINE",
"1493 1284 LINE"
);
},
{
closed = 1;
nodes = (
"987 1694 LINE",
"987 659 LINE",
"1294 659 LINE",
"1294 1694 LINE"
);
},
{
closed = 1;
nodes = (
"889 575 LINE",
"889 532 LINE SMOOTH",
"889 352 OFFCURVE",
"752 127 OFFCURVE",
"295 70 CURVE",
"420 -188 LINE",
"948 -113 OFFCURVE",
"1169 190 OFFCURVE",
"1169 532 CURVE SMOOTH",
"1169 575 LINE"
);
},
{
closed = 1;
nodes = (
"936 575 LINE",
"936 532 LINE SMOOTH",
"936 190 OFFCURVE",
"1157 -113 OFFCURVE",
"1686 -188 CURVE",
"1808 70 LINE",
"1354 127 OFFCURVE",
"1217 352 OFFCURVE",
"1217 532 CURVE SMOOTH",
"1217 575 LINE"
);
}
);
width = 1884;
},
{
layerId = "35A15426-DDB1-4AC4-90C4-1762146010E5";
paths = (
{
closed = 1;
nodes = (
"842 1489 LINE",
"842 1481 LINE SMOOTH",
"842 1100 OFFCURVE",
"610 772 OFFCURVE",
"160 582 CURVE",
"199 526 LINE",
"672 733 OFFCURVE",
"911 1083 OFFCURVE",
"911 1489 CURVE"
);
},
{
closed = 1;
nodes = (
"225 1489 LINE",
"225 1430 LINE",
"885 1430 LINE",
"885 1489 LINE"
);
},
{
closed = 1;
nodes = (
"1561 1669 LINE",
"1561 487 LINE",
"1626 487 LINE",
"1626 1669 LINE"
);
},
{
closed = 1;
nodes = (
"1202 1155 LINE",
"1202 1094 LINE",
"1599 1094 LINE",
"1599 1155 LINE"
);
},
{
closed = 1;
nodes = (
"1165 1634 LINE",
"1165 649 LINE",
"1233 649 LINE",
"1233 1634 LINE"
);
},
{
closed = 1;
nodes = (
"1016 559 LINE",
"1016 455 LINE SMOOTH",
"1016 168 OFFCURVE",
"608 -27 OFFCURVE",
"367 -74 CURVE",
"395 -129 LINE",
"668 -68 OFFCURVE",
"1073 131 OFFCURVE",
"1073 455 CURVE SMOOTH",
"1073 559 LINE"
);
},
{
closed = 1;
nodes = (
"1024 559 LINE",
"1024 455 LINE SMOOTH",
"1024 131 OFFCURVE",
"1432 -68 OFFCURVE",
"1704 -129 CURVE",
"1733 -74 LINE",
"1491 -27 OFFCURVE",
"1083 168 OFFCURVE",
"1083 455 CURVE SMOOTH",
"1083 559 LINE"
);
}
);
width = 1884;
}
);
unicode = AC2F;
}
{
color = 0;
glyphname = uniAC35;
layers = (
{
layerId = "99E75090-8A73-42EE-982D-99D4C12EA1BB";
paths = (
{
closed = 1;
nodes = (
"414 676 LINE",
"414 -39 LINE",
"743 -39 LINE",
"743 432 LINE",
"1731 432 LINE",
"1731 676 LINE"
);
},
{
closed = 1;
nodes = (
"414 57 LINE",
"414 -186 LINE",
"1763 -186 LINE",
"1763 57 LINE"
);
},
{
closed = 1;
nodes = (
"686 358 LINE",
"686 131 LINE",
"1710 131 LINE",
"1710 358 LINE"
);
},
{
closed = 1;
nodes = (
"1407 1729 LINE",
"1407 741 LINE",
"1720 741 LINE",
"1720 1729 LINE"
);
},
{
closed = 1;
nodes = (
"1212 1352 LINE",
"1212 1092 LINE",
"1487 1092 LINE",
"1487 1352 LINE"
);
},
{
closed = 1;
nodes = (
"987 1694 LINE",
"987 754 LINE",
"1294 754 LINE",
"1294 1694 LINE"
);
},
{
closed = 1;
nodes = (
"557 1612 LINE",
"557 1483 LINE SMOOTH",
"557 1212 OFFCURVE",
"432 1026 OFFCURVE",
"45 903 CURVE",
"201 664 LINE",
"690 838 OFFCURVE",
"893 1128 OFFCURVE",
"893 1612 CURVE"
);
},
{
closed = 1;
nodes = (
"150 1612 LINE",
"150 1352 LINE",
"690 1352 LINE",
"690 1612 LINE"
);
}
);
width = 1884;
},
{
layerId = "35A15426-DDB1-4AC4-90C4-1762146010E5";
paths = (
{
closed = 1;
nodes = (
"487 594 LINE",
"487 -82 LINE",
"555 -82 LINE",
"555 535 LINE",
"1636 535 LINE",
"1636 594 LINE"
);
},
{
closed = 1;
nodes = (
"487 -47 LINE",
"487 -109 LINE",
"1679 -109 LINE",
"1679 -47 LINE"
);
},
{
closed = 1;
nodes = (
"524 281 LINE",
"524 219 LINE",
"1614 219 LINE",
"1614 281 LINE"
);
},
{
closed = 1;
nodes = (
"1561 1669 LINE",
"1561 700 LINE",
"1626 700 LINE",
"1626 1669 LINE"
);
},
{
closed = 1;
nodes = (
"1202 1206 LINE",
"1202 1145 LINE",
"1599 1145 LINE",
"1599 1206 LINE"
);
},
{
closed = 1;
nodes = (
"1165 1634 LINE",
"1165 715 LINE",
"1233 715 LINE",
"1233 1634 LINE"
);
},
{
closed = 1;
nodes = (
"844 1552 LINE",
"844 1542 LINE SMOOTH",
"844 1171 OFFCURVE",
"586 877 OFFCURVE",
"162 709 CURVE",
"195 655 LINE",
"643 836 OFFCURVE",
"911 1155 OFFCURVE",
"911 1552 CURVE"
);
},
{
closed = 1;
nodes = (
"219 1552 LINE",
"219 1491 LINE",
"877 1491 LINE",
"877 1552 LINE"
);
}
);
width = 1884;
}
);
unicode = AC35;
}
{
color = 0;
glyphname = uniAC37;
layers = (
{
layerId = "99E75090-8A73-42EE-982D-99D4C12EA1BB";
paths = (
{
closed = 1;
nodes = (
"1407 1729 LINE",
"1407 713 LINE",
"1720 713 LINE",
"1720 1729 LINE"
);
},
{
closed = 1;
nodes = (
"1212 1366 LINE",
"1212 1106 LINE",
"1487 1106 LINE",
"1487 1366 LINE"
);
},
{
closed = 1;
nodes = (
"987 1694 LINE",
"987 803 LINE",
"1294 803 LINE",
"1294 1694 LINE"
);
},
{
closed = 1;
nodes = (
"557 1612 LINE",
"557 1477 LINE SMOOTH",
"557 1223 OFFCURVE",
"432 1047 OFFCURVE",
"49 932 CURVE",
"201 694 LINE",
"686 856 OFFCURVE",
"893 1137 OFFCURVE",
"893 1612 CURVE"
);
},
{
closed = 1;
nodes = (
"150 1612 LINE",
"150 1354 LINE",
"690 1354 LINE",
"690 1612 LINE"
);
},
{
closed = 1;
nodes = (
"365 614 LINE",
"365 373 LINE",
"1743 373 LINE",
"1743 614 LINE"
);
},
{
closed = 1;
nodes = (
"700 338 OFFCURVE",
"494 244 OFFCURVE",
"494 70 CURVE SMOOTH",
"494 -102 OFFCURVE",
"700 -197 OFFCURVE",
"1055 -197 CURVE SMOOTH",
"1407 -197 OFFCURVE",
"1614 -102 OFFCURVE",
"1614 70 CURVE SMOOTH",
"1614 244 OFFCURVE",
"1407 338 OFFCURVE",
"1055 338 CURVE SMOOTH"
);
},
{
closed = 1;
nodes = (
"1233 117 OFFCURVE",
"1298 109 OFFCURVE",
"1298 70 CURVE SMOOTH",
"1298 31 OFFCURVE",
"1233 23 OFFCURVE",
"1055 23 CURVE SMOOTH",
"877 23 OFFCURVE",
"809 31 OFFCURVE",
"809 70 CURVE SMOOTH",
"809 109 OFFCURVE",
"877 117 OFFCURVE",
"1055 117 CURVE SMOOTH"
);
},
{
closed = 1;
nodes = (
"889 741 LINE",
"889 451 LINE",
"1219 451 LINE",
"1219 741 LINE"
);
}
);
width = 1884;
},
{
layerId = "35A15426-DDB1-4AC4-90C4-1762146010E5";
paths = (
{
closed = 1;
nodes = (
"1561 1669 LINE",
"1561 692 LINE",
"1626 692 LINE",
"1626 1669 LINE"
);
},
{
closed = 1;
nodes = (
"1202 1225 LINE",
"1202 1163 LINE",
"1599 1163 LINE",
"1599 1225 LINE"
);
},
{
closed = 1;
nodes = (
"1165 1634 LINE",
"1165 780 LINE",
"1233 780 LINE",
"1233 1634 LINE"
);
},
{
closed = 1;
nodes = (
"844 1540 LINE",
"844 1530 LINE SMOOTH",
"844 1161 OFFCURVE",
"582 874 OFFCURVE",
"162 713 CURVE",
"197 659 LINE",
"639 834 OFFCURVE",
"911 1145 OFFCURVE",
"911 1540 CURVE"
);
},
{
closed = 1;
nodes = (
"219 1540 LINE",
"219 1481 LINE",
"877 1481 LINE",
"877 1540 LINE"
);
},
{
closed = 1;
nodes = (
"401 528 LINE",
"401 467 LINE",
"1686 467 LINE",
"1686 528 LINE"
);
},
{
closed = 1;
nodes = (
"727 356 OFFCURVE",
"541 270 OFFCURVE",
"541 113 CURVE SMOOTH",
"541 -45 OFFCURVE",
"727 -131 OFFCURVE",
"1044 -131 CURVE SMOOTH",
"1362 -131 OFFCURVE",
"1548 -45 OFFCURVE",
"1548 113 CURVE SMOOTH",
"1548 270 OFFCURVE",
"1362 356 OFFCURVE",
"1044 356 CURVE SMOOTH"
);
},
{
closed = 1;
nodes = (
"1313 299 OFFCURVE",
"1483 229 OFFCURVE",
"1483 113 CURVE SMOOTH",
"1483 -4 OFFCURVE",
"1313 -74 OFFCURVE",
"1044 -74 CURVE SMOOTH",
"776 -74 OFFCURVE",
"606 -4 OFFCURVE",
"606 113 CURVE SMOOTH",
"606 229 OFFCURVE",
"776 299 OFFCURVE",
"1044 299 CURVE SMOOTH"
);
},
{
closed = 1;
nodes = (
"1014 735 LINE",
"1014 506 LINE",
"1079 506 LINE",
"1079 735 LINE"
);
}
);
width = 1884;
}
);
unicode = AC37;
}
{
color = 0;
glyphname = uniAC38;
layers = (
{
layerId = "99E75090-8A73-42EE-982D-99D4C12EA1BB";
paths = (
{
closed = 1;
nodes = (
"1507 1274 LINE",
"1507 1006 LINE",
"1837 1006 LINE",
"1837 1274 LINE"
);
},
{
closed = 1;
nodes = (
"1507 705 LINE",
"1507 434 LINE",
"1837 434 LINE",
"1837 705 LINE"
);
},
{
closed = 1;
nodes = (
"1262 1731 LINE",
"1262 -190 LINE",
"1593 -190 LINE",
"1593 1731 LINE"
);
},
{
closed = 1;
nodes = (
"750 1536 LINE",
"750 1477 LINE SMOOTH",
"750 950 OFFCURVE",
"526 627 OFFCURVE",
"37 371 CURVE",
"221 121 LINE",
"870 449 OFFCURVE",
"1073 942 OFFCURVE",
"1073 1536 CURVE"
);
},
{
closed = 1;
nodes = (
"152 1536 LINE",
"152 1272 LINE",
"920 1272 LINE",
"920 1536 LINE"
);
}
);
width = 1884;
},
{
layerId = "35A15426-DDB1-4AC4-90C4-1762146010E5";
paths = (
{
closed = 1;
nodes = (
"1458 1147 LINE",
"1458 1085 LINE",
"1808 1085 LINE",
"1808 1147 LINE"
);
},
{
closed = 1;
nodes = (
"1458 602 LINE",
"1458 541 LINE",
"1808 541 LINE",
"1808 602 LINE"
);
},
{
closed = 1;
nodes = (
"1415 1671 LINE",
"1415 -137 LINE",
"1483 -137 LINE",
"1483 1671 LINE"
);
},
{
closed = 1;
nodes = (
"967 1468 LINE",
"967 1462 LINE SMOOTH",
"967 995 OFFCURVE",
"688 553 OFFCURVE",
"162 293 CURVE",
"199 238 LINE",
"766 520 OFFCURVE",
"1032 985 OFFCURVE",
"1032 1468 CURVE"
);
},
{
closed = 1;
nodes = (
"229 1468 LINE",
"229 1407 LINE",
"1001 1407 LINE",
"1001 1468 LINE"
);
}
);
width = 1884;
}
);
unicode = AC38;
}
{
color = 0;
glyphname = uniAC39;
layers = (
{
layerId = "99E75090-8A73-42EE-982D-99D4C12EA1BB";
paths = (
{
closed = 1;
nodes = (
"1505 1499 LINE",
"1505 1237 LINE",
"1835 1237 LINE",
"1835 1499 LINE"
);
},
{
closed = 1;
nodes = (
"1505 1085 LINE",
"1505 823 LINE",
"1835 823 LINE",
"1835 1085 LINE"
);
},
{
closed = 1;
nodes = (
"1266 1729 LINE",
"1266 618 LINE",
"1595 618 LINE",
"1595 1729 LINE"
);
},
{
closed = 1;
nodes = (
"705 1628 LINE",
"705 1458 LINE SMOOTH",
"705 1202 OFFCURVE",
"496 973 OFFCURVE",
"35 862 CURVE",
"170 608 LINE",
"743 754 OFFCURVE",
"1055 1102 OFFCURVE",
"1055 1628 CURVE"
);
},
{
closed = 1;
nodes = (
"137 1628 LINE",
"137 1368 LINE",
"905 1368 LINE",
"905 1628 LINE"
);
},
{
closed = 1;
nodes = (
"295 543 LINE",
"295 285 LINE",
"1266 285 LINE",
"1266 -195 LINE",
"1595 -195 LINE",
"1595 543 LINE"
);
}
);
width = 1884;
},
{
layerId = "35A15426-DDB1-4AC4-90C4-1762146010E5";
paths = (
{
closed = 1;
nodes = (
"1485 1356 LINE",
"1485 1294 LINE",
"1798 1294 LINE",
"1798 1356 LINE"
);
},
{
closed = 1;
nodes = (
"1485 967 LINE",
"1485 905 LINE",
"1798 905 LINE",
"1798 967 LINE"
);
},
{
closed = 1;
nodes = (
"1436 1671 LINE",
"1436 600 LINE",
"1503 600 LINE",
"1503 1671 LINE"
);
},
{
closed = 1;
nodes = (
"954 1540 LINE",
"954 1526 LINE SMOOTH",
"954 1130 OFFCURVE",
"631 836 OFFCURVE",
"139 694 CURVE",
"168 637 LINE",
"688 784 OFFCURVE",
"1022 1110 OFFCURVE",
"1022 1540 CURVE"
);
},
{
closed = 1;
nodes = (
"211 1540 LINE",
"211 1481 LINE",
"981 1481 LINE",
"981 1540 LINE"
);
},
{
closed = 1;
nodes = (
"362 508 LINE",
"362 446 LINE",
"1436 446 LINE",
"1436 -137 LINE",
"1503 -137 LINE",
"1503 508 LINE"
);
}
);
width = 1884;
}
);
unicode = AC39;
}
{
color = 0;
glyphname = uniAC3B;
layers = (
{
layerId = "99E75090-8A73-42EE-982D-99D4C12EA1BB";
paths = (
{
closed = 1;
nodes = (
"1266 1729 LINE",
"1266 657 LINE",
"1595 657 LINE",
"1595 1729 LINE"
);
},
{
closed = 1;
nodes = (
"705 1628 LINE",
"705 1458 LINE SMOOTH",
"705 1202 OFFCURVE",
"496 973 OFFCURVE",
"35 862 CURVE",
"170 608 LINE",
"743 754 OFFCURVE",
"1055 1102 OFFCURVE",
"1055 1628 CURVE"
);
},
{
closed = 1;
nodes = (
"137 1628 LINE",
"137 1368 LINE",
"905 1368 LINE",
"905 1628 LINE"
);
},
{
closed = 1;
nodes = (
"1141 578 LINE",
"1141 475 LINE SMOOTH",
"1141 299 OFFCURVE",
"1063 141 OFFCURVE",
"838 63 CURVE",
"1006 -188 LINE",
"1294 -84 OFFCURVE",
"1395 174 OFFCURVE",
"1395 475 CURVE SMOOTH",
"1395 578 LINE"
);
},
{
closed = 1;
nodes = (
"1217 578 LINE",
"1217 475 LINE SMOOTH",
"1217 172 OFFCURVE",
"1315 -84 OFFCURVE",
"1604 -188 CURVE",
"1774 63 LINE",
"1548 139 OFFCURVE",
"1470 297 OFFCURVE",
"1470 475 CURVE SMOOTH",
"1470 578 LINE"
);
},
{
closed = 1;
nodes = (
"227 545 LINE",
"227 285 LINE",
"545 285 LINE",
"545 -186 LINE",
"870 -186 LINE",
"870 545 LINE"
);
},
{
closed = 1;
nodes = (
"1505 1530 LINE",
"1505 1270 LINE",
"1835 1270 LINE",
"1835 1530 LINE"
);
},
{
closed = 1;
nodes = (
"1505 1122 LINE",
"1505 862 LINE",
"1835 862 LINE",
"1835 1122 LINE"
);
}
);
width = 1884;
},
{
layerId = "35A15426-DDB1-4AC4-90C4-1762146010E5";
paths = (
{
closed = 1;
nodes = (
"1436 1671 LINE",
"1436 621 LINE",
"1503 621 LINE",
"1503 1671 LINE"
);
},
{
closed = 1;
nodes = (
"954 1540 LINE",
"954 1526 LINE SMOOTH",
"954 1130 OFFCURVE",
"631 836 OFFCURVE",
"139 694 CURVE",
"168 637 LINE",
"688 784 OFFCURVE",
"1022 1110 OFFCURVE",
"1022 1540 CURVE"
);
},
{
closed = 1;
nodes = (
"211 1540 LINE",
"211 1481 LINE",
"981 1481 LINE",
"981 1540 LINE"
);
},
{
closed = 1;
nodes = (
"1274 543 LINE",
"1274 385 LINE SMOOTH",
"1274 201 OFFCURVE",
"1135 -10 OFFCURVE",
"920 -96 CURVE",
"963 -147 LINE",
"1190 -49 OFFCURVE",
"1331 176 OFFCURVE",
"1331 385 CURVE SMOOTH",
"1331 543 LINE"
);
},
{
closed = 1;
nodes = (
"1282 543 LINE",
"1282 385 LINE SMOOTH",
"1282 176 OFFCURVE",
"1423 -49 OFFCURVE",
"1653 -147 CURVE",
"1694 -96 LINE",
"1479 -10 OFFCURVE",
"1339 201 OFFCURVE",
"1339 385 CURVE SMOOTH",
"1339 543 LINE"
);
},
{
closed = 1;
nodes = (
"307 524 LINE",
"307 463 LINE",
"807 463 LINE",
"807 -137 LINE",
"872 -137 LINE",
"872 524 LINE"
);
},
{
closed = 1;
nodes = (
"1485 1362 LINE",
"1485 1300 LINE",
"1798 1300 LINE",
"1798 1362 LINE"
);
},
{
closed = 1;
nodes = (
"1485 973 LINE",
"1485 911 LINE",
"1798 911 LINE",
"1798 973 LINE"
);
}
);
width = 1884;
}
);
unicode = AC3B;
}
{
color = 0;
glyphname = uniAC3C;
layers = (
{
layerId = "99E75090-8A73-42EE-982D-99D4C12EA1BB";
paths = (
{
closed = 1;
nodes = (
"1505 1427 LINE",
"1505 1161 LINE",
"1835 1161 LINE",
"1835 1427 LINE"
);
},
{
closed = 1;
nodes = (
"1505 967 LINE",
"1505 700 LINE",
"1835 700 LINE",
"1835 967 LINE"
);
},
{
closed = 1;
nodes = (
"1264 1726 LINE",
"1264 369 LINE",
"1595 369 LINE",
"1595 1726 LINE"
);
},
{
closed = 1;
nodes = (
"723 1587 LINE",
"723 1419 LINE SMOOTH",
"723 1149 OFFCURVE",
"512 913 OFFCURVE",
"49 795 CURVE",
"186 535 LINE",
"770 694 OFFCURVE",
"1075 1051 OFFCURVE",
"1075 1587 CURVE"
);
},
{
closed = 1;
nodes = (
"135 1587 LINE",
"135 1325 LINE",
"903 1325 LINE",
"903 1587 LINE"
);
},
{
closed = 1;
nodes = (
"330 96 LINE",
"330 -166 LINE",
"1651 -166 LINE",
"1651 96 LINE"
);
},
{
closed = 1;
nodes = (
"330 506 LINE",
"330 -25 LINE",
"662 -25 LINE",
"662 506 LINE"
);
}
);
width = 1884;
},
{
layerId = "35A15426-DDB1-4AC4-90C4-1762146010E5";
paths = (
{
closed = 1;
nodes = (
"1475 1290 LINE",
"1475 1231 LINE",
"1798 1231 LINE",
"1798 1290 LINE"
);
},
{
closed = 1;
nodes = (
"1475 840 LINE",
"1475 780 LINE",
"1798 780 LINE",
"1798 840 LINE"
);
},
{
closed = 1;
nodes = (
"1436 1671 LINE",
"1436 322 LINE",
"1503 322 LINE",
"1503 1671 LINE"
);
},
{
closed = 1;
nodes = (
"952 1526 LINE",
"952 1511 LINE SMOOTH",
"952 1102 OFFCURVE",
"608 782 OFFCURVE",
"139 621 CURVE",
"170 561 LINE",
"668 735 OFFCURVE",
"1022 1083 OFFCURVE",
"1022 1526 CURVE"
);
},
{
closed = 1;
nodes = (
"209 1526 LINE",
"209 1464 LINE",
"979 1464 LINE",
"979 1526 LINE"
);
},
{
closed = 1;
nodes = (
"420 -27 LINE",
"420 -88 LINE",
"1602 -88 LINE",
"1602 -27 LINE"
);
},
{
closed = 1;
nodes = (
"420 459 LINE",
"420 -41 LINE",
"485 -41 LINE",
"485 459 LINE"
);
}
);
width = 1884;
}
);
unicode = AC3C;
}
{
color = 0;
glyphname = uniAC40;
layers = (
{
layerId = "99E75090-8A73-42EE-982D-99D4C12EA1BB";
paths = (
{
closed = 1;
nodes = (
"1503 1563 LINE",
"1503 1305 LINE",
"1833 1305 LINE",
"1833 1563 LINE"
);
},
{
closed = 1;
nodes = (
"1503 1192 LINE",
"1503 932 LINE",
"1833 932 LINE",
"1833 1192 LINE"
);
},
{
closed = 1;
nodes = (
"1266 1729 LINE",
"1266 780 LINE",
"1595 780 LINE",
"1595 1729 LINE"
);
},
{
closed = 1;
nodes = (
"709 1669 LINE",
"709 1468 LINE SMOOTH",
"709 1272 OFFCURVE",
"537 1071 OFFCURVE",
"55 993 CURVE",
"172 725 LINE",
"764 836 OFFCURVE",
"1075 1141 OFFCURVE",
"1075 1669 CURVE"
);
},
{
closed = 1;
nodes = (
"156 1669 LINE",
"156 1409 LINE",
"924 1409 LINE",
"924 1669 LINE"
);
},
{
closed = 1;
nodes = (
"301 711 LINE",
"301 455 LINE",
"1270 455 LINE",
"1270 391 LINE",
"303 391 LINE",
"303 -45 LINE",
"631 -45 LINE",
"631 150 LINE",
"1595 150 LINE",
"1595 711 LINE"
);
},
{
closed = 1;
nodes = (
"303 82 LINE",
"303 -176 LINE",
"1645 -176 LINE",
"1645 82 LINE"
);
}
);
width = 1884;
},
{
layerId = "35A15426-DDB1-4AC4-90C4-1762146010E5";
paths = (
{
closed = 1;
nodes = (
"1485 1399 LINE",
"1485 1337 LINE",
"1798 1337 LINE",
"1798 1399 LINE"
);
},
{
closed = 1;
nodes = (
"1485 1038 LINE",
"1485 979 LINE",
"1798 979 LINE",
"1798 1038 LINE"
);
},
{
closed = 1;
nodes = (
"1436 1671 LINE",
"1436 733 LINE",
"1503 733 LINE",
"1503 1671 LINE"
);
},
{
closed = 1;
nodes = (
"948 1561 LINE",
"948 1542 LINE SMOOTH",
"948 1157 OFFCURVE",
"618 879 OFFCURVE",
"137 752 CURVE",
"168 692 LINE",
"670 829 OFFCURVE",
"1018 1135 OFFCURVE",
"1018 1561 CURVE"
);
},
{
closed = 1;
nodes = (
"205 1561 LINE",
"205 1499 LINE",
"975 1499 LINE",
"975 1561 LINE"
);
},
{
closed = 1;
nodes = (
"403 639 LINE",
"403 580 LINE",
"1438 580 LINE",
"1438 305 LINE",
"410 305 LINE",
"410 -102 LINE",
"473 -102 LINE",
"473 244 LINE",
"1503 244 LINE",
"1503 639 LINE"
);
},
{
closed = 1;
nodes = (
"410 -59 LINE",
"410 -119 LINE",
"1581 -119 LINE",
"1581 -59 LINE"
);
}
);
width = 1884;
}
);
unicode = AC40;
}
{
color = 0;
glyphname = uniAC43;
layers = (
{
layerId = "99E75090-8A73-42EE-982D-99D4C12EA1BB";
paths = (
{
closed = 1;
nodes = (
"1266 1729 LINE",
"1266 723 LINE",
"1595 723 LINE",
"1595 1729 LINE"
);
},
{
closed = 1;
nodes = (
"930 655 LINE",
"930 -176 LINE",
"1595 -176 LINE",
"1595 655 LINE",
"1303 655 LINE",
"1303 481 LINE",
"1223 481 LINE",
"1223 655 LINE"
);
},
{
closed = 1;
nodes = (
"1223 242 LINE",
"1303 242 LINE",
"1303 74 LINE",
"1223 74 LINE"
);
},
{
closed = 1;
nodes = (
"209 639 LINE",
"209 397 LINE",
"526 397 LINE",
"526 336 LINE",
"211 336 LINE",
"211 -45 LINE",
"530 -45 LINE",
"530 127 LINE",
"846 127 LINE",
"846 639 LINE"
);
},
{
closed = 1;
nodes = (
"211 57 LINE",
"211 -176 LINE",
"328 -176 LINE SMOOTH",
"602 -176 OFFCURVE",
"731 -176 OFFCURVE",
"891 -147 CURVE",
"870 86 LINE",
"715 59 OFFCURVE",
"592 57 OFFCURVE",
"328 57 CURVE SMOOTH"
);
},
{
closed = 1;
nodes = (
"707 1671 LINE",
"707 1468 LINE SMOOTH",
"707 1272 OFFCURVE",
"547 1075 OFFCURVE",
"55 997 CURVE",
"170 729 LINE",
"774 838 OFFCURVE",
"1077 1137 OFFCURVE",
"1077 1671 CURVE"
);
},
{
closed = 1;
nodes = (
"154 1671 LINE",
"154 1411 LINE",
"922 1411 LINE",
"922 1671 LINE"
);
},
{
closed = 1;
nodes = (
"1503 1548 LINE",
"1503 1290 LINE",
"1833 1290 LINE",
"1833 1548 LINE"
);
},
{
closed = 1;
nodes = (
"1503 1176 LINE",
"1503 915 LINE",
"1833 915 LINE",
"1833 1176 LINE"
);
}
);
width = 1884;
},
{
layerId = "35A15426-DDB1-4AC4-90C4-1762146010E5";
paths = (
{
closed = 1;
nodes = (
"1436 1671 LINE",
"1436 694 LINE",
"1503 694 LINE",
"1503 1671 LINE"
);
},
{
closed = 1;
nodes = (
"958 616 LINE",
"958 -109 LINE",
"1503 -109 LINE",
"1503 616 LINE",
"1436 616 LINE",
"1436 338 LINE",
"1024 338 LINE",
"1024 616 LINE"
);
},
{
closed = 1;
nodes = (
"1024 279 LINE",
"1436 279 LINE",
"1436 -47 LINE",
"1024 -47 LINE"
);
},
{
closed = 1;
nodes = (
"291 594 LINE",
"291 535 LINE",
"774 535 LINE",
"774 293 LINE",
"297 293 LINE",
"297 -76 LINE",
"362 -76 LINE",
"362 236 LINE",
"840 236 LINE",
"840 594 LINE"
);
},
{
closed = 1;
nodes = (
"297 -43 LINE",
"297 -106 LINE",
"379 -106 LINE SMOOTH",
"598 -106 OFFCURVE",
"725 -102 OFFCURVE",
"899 -66 CURVE",
"891 -4 LINE",
"723 -39 OFFCURVE",
"596 -43 OFFCURVE",
"379 -43 CURVE SMOOTH"
);
},
{
closed = 1;
nodes = (
"948 1565 LINE",
"948 1546 LINE SMOOTH",
"948 1161 OFFCURVE",
"618 883 OFFCURVE",
"137 756 CURVE",
"168 696 LINE",
"670 834 OFFCURVE",
"1018 1139 OFFCURVE",
"1018 1565 CURVE"
);
},
{
closed = 1;
nodes = (
"213 1565 LINE",
"213 1503 LINE",
"983 1503 LINE",
"983 1565 LINE"
);
},
{
closed = 1;
nodes = (
"1485 1380 LINE",
"1485 1321 LINE",
"1798 1321 LINE",
"1798 1380 LINE"
);
},
{
closed = 1;
nodes = (
"1485 1022 LINE",
"1485 961 LINE",
"1798 961 LINE",
"1798 1022 LINE"
);
}
);
width = 1884;
}
);
unicode = AC43;
}
{
color = 0;
glyphname = uniAC45;
layers = (
{
layerId = "99E75090-8A73-42EE-982D-99D4C12EA1BB";
paths = (
{
closed = 1;
nodes = (
"1266 1729 LINE",
"1266 723 LINE",
"1595 723 LINE",
"1595 1729 LINE"
);
},
{
closed = 1;
nodes = (
"707 1671 LINE",
"707 1468 LINE SMOOTH",
"707 1272 OFFCURVE",
"547 1075 OFFCURVE",
"55 997 CURVE",
"170 729 LINE",
"774 838 OFFCURVE",
"1077 1137 OFFCURVE",
"1077 1671 CURVE"
);
},
{
closed = 1;
nodes = (
"154 1671 LINE",
"154 1411 LINE",
"922 1411 LINE",
"922 1671 LINE"
);
},
{
closed = 1;
nodes = (
"207 655 LINE",
"207 418 LINE",
"549 418 LINE",
"549 350 LINE",
"209 350 LINE",
"209 -16 LINE",
"528 -16 LINE",
"528 129 LINE",
"868 129 LINE",
"868 655 LINE"
);
},
{
closed = 1;
nodes = (
"209 61 LINE",
"209 -176 LINE",
"330 -176 LINE SMOOTH",
"592 -176 OFFCURVE",
"735 -176 OFFCURVE",
"911 -147 CURVE",
"891 88 LINE",
"717 61 OFFCURVE",
"584 61 OFFCURVE",
"330 61 CURVE SMOOTH"
);
},
{
closed = 1;
nodes = (
"942 61 LINE",
"942 -176 LINE",
"1624 -176 LINE",
"1624 61 LINE"
);
},
{
closed = 1;
nodes = (
"942 655 LINE",
"942 -35 LINE",
"1262 -35 LINE",
"1262 418 LINE",
"1608 418 LINE",
"1608 655 LINE"
);
},
{
closed = 1;
nodes = (
"1157 354 LINE",
"1157 131 LINE",
"1591 131 LINE",
"1591 354 LINE"
);
},
{
closed = 1;
nodes = (
"1503 1548 LINE",
"1503 1290 LINE",
"1833 1290 LINE",
"1833 1548 LINE"
);
},
{
closed = 1;
nodes = (
"1503 1171 LINE",
"1503 911 LINE",
"1833 911 LINE",
"1833 1171 LINE"
);
}
);
width = 1884;
},
{
layerId = "35A15426-DDB1-4AC4-90C4-1762146010E5";
paths = (
{
closed = 1;
nodes = (
"1436 1671 LINE",
"1436 694 LINE",
"1503 694 LINE",
"1503 1671 LINE"
);
},
{
closed = 1;
nodes = (
"948 1565 LINE",
"948 1546 LINE SMOOTH",
"948 1161 OFFCURVE",
"618 883 OFFCURVE",
"137 756 CURVE",
"168 696 LINE",
"670 834 OFFCURVE",
"1018 1139 OFFCURVE",
"1018 1565 CURVE"
);
},
{
closed = 1;
nodes = (
"213 1565 LINE",
"213 1503 LINE",
"983 1503 LINE",
"983 1565 LINE"
);
},
{
closed = 1;
nodes = (
"293 602 LINE",
"293 541 LINE",
"784 541 LINE",
"784 297 LINE",
"299 297 LINE",
"299 -68 LINE",
"365 -68 LINE",
"365 238 LINE",
"850 238 LINE",
"850 602 LINE"
);
},
{
closed = 1;
nodes = (
"299 -47 LINE",
"299 -109 LINE",
"381 -109 LINE SMOOTH",
"604 -109 OFFCURVE",
"731 -106 OFFCURVE",
"909 -72 CURVE",
"899 -10 LINE",
"729 -43 OFFCURVE",
"602 -47 OFFCURVE",
"381 -47 CURVE SMOOTH"
);
},
{
closed = 1;
nodes = (
"973 -47 LINE",
"973 -109 LINE",
"1559 -109 LINE",
"1559 -47 LINE"
);
},
{
closed = 1;
nodes = (
"973 602 LINE",
"973 -74 LINE",
"1040 -74 LINE",
"1040 541 LINE",
"1532 541 LINE",
"1532 602 LINE"
);
},
{
closed = 1;
nodes = (
"1016 291 LINE",
"1016 231 LINE",
"1509 231 LINE",
"1509 291 LINE"
);
},
{
closed = 1;
nodes = (
"1485 1380 LINE",
"1485 1321 LINE",
"1798 1321 LINE",
"1798 1380 LINE"
);
},
{
closed = 1;
nodes = (
"1485 1022 LINE",
"1485 961 LINE",
"1798 961 LINE",
"1798 1022 LINE"
);
}
);
width = 1884;
}
);
unicode = AC45;
}
{
color = 0;
glyphname = uniAC47;
layers = (
{
layerId = "99E75090-8A73-42EE-982D-99D4C12EA1BB";
paths = (
{
closed = 1;
nodes = (
"1266 1729 LINE",
"1266 791 LINE",
"1595 791 LINE",
"1595 1729 LINE"
);
},
{
closed = 1;
nodes = (
"205 668 LINE",
"205 434 LINE",
"512 434 LINE",
"512 369 LINE",
"207 369 LINE",
"207 -10 LINE",
"520 -10 LINE",
"520 152 LINE",
"825 152 LINE",
"825 668 LINE"
);
},
{
closed = 1;
nodes = (
"207 76 LINE",
"207 -162 LINE",
"330 -162 LINE SMOOTH",
"618 -162 OFFCURVE",
"756 -160 OFFCURVE",
"918 -129 CURVE",
"891 104 LINE",
"733 78 OFFCURVE",
"606 76 OFFCURVE",
"330 76 CURVE SMOOTH"
);
},
{
closed = 1;
nodes = (
"879 612 LINE",
"879 381 LINE",
"1702 381 LINE",
"1702 612 LINE"
);
},
{
closed = 1;
nodes = (
"1090 354 OFFCURVE",
"940 244 OFFCURVE",
"940 78 CURVE SMOOTH",
"940 -88 OFFCURVE",
"1090 -197 OFFCURVE",
"1288 -197 CURVE SMOOTH",
"1487 -197 OFFCURVE",
"1634 -88 OFFCURVE",
"1634 78 CURVE SMOOTH",
"1634 244 OFFCURVE",
"1487 354 OFFCURVE",
"1288 354 CURVE SMOOTH"
);
},
{
closed = 1;
nodes = (
"1325 137 OFFCURVE",
"1360 123 OFFCURVE",
"1360 78 CURVE SMOOTH",
"1360 33 OFFCURVE",
"1325 18 OFFCURVE",
"1288 18 CURVE SMOOTH",
"1249 18 OFFCURVE",
"1214 33 OFFCURVE",
"1214 78 CURVE SMOOTH",
"1214 123 OFFCURVE",
"1249 137 OFFCURVE",
"1288 137 CURVE SMOOTH"
);
},
{
closed = 1;
nodes = (
"1130 739 LINE",
"1130 449 LINE",
"1450 449 LINE",
"1450 739 LINE"
);
},
{
closed = 1;
nodes = (
"707 1671 LINE",
"707 1468 LINE SMOOTH",
"707 1272 OFFCURVE",
"547 1075 OFFCURVE",
"55 997 CURVE",
"170 729 LINE",
"774 838 OFFCURVE",
"1077 1137 OFFCURVE",
"1077 1671 CURVE"
);
},
{
closed = 1;
nodes = (
"154 1671 LINE",
"154 1411 LINE",
"922 1411 LINE",
"922 1671 LINE"
);
},
{
closed = 1;
nodes = (
"1503 1548 LINE",
"1503 1290 LINE",
"1833 1290 LINE",
"1833 1548 LINE"
);
},
{
closed = 1;
nodes = (
"1503 1182 LINE",
"1503 922 LINE",
"1833 922 LINE",
"1833 1182 LINE"
);
}
);
width = 1884;
},
{
layerId = "35A15426-DDB1-4AC4-90C4-1762146010E5";
paths = (
{
closed = 1;
nodes = (
"1436 1671 LINE",
"1436 760 LINE",
"1503 760 LINE",
"1503 1671 LINE"
);
},
{
closed = 1;
nodes = (
"291 588 LINE",
"291 528 LINE",
"774 528 LINE",
"774 287 LINE",
"297 287 LINE",
"297 -88 LINE",
"362 -88 LINE",
"362 225 LINE",
"840 225 LINE",
"840 588 LINE"
);
},
{
closed = 1;
nodes = (
"297 -51 LINE",
"297 -113 LINE",
"379 -113 LINE SMOOTH",
"598 -113 OFFCURVE",
"725 -109 OFFCURVE",
"899 -74 CURVE",
"891 -10 LINE",
"723 -47 OFFCURVE",
"596 -51 OFFCURVE",
"379 -51 CURVE SMOOTH"
);
},
{
closed = 1;
nodes = (
"907 508 LINE",
"907 446 LINE",
"1651 446 LINE",
"1651 508 LINE"
);
},
{
closed = 1;
nodes = (
"1098 344 OFFCURVE",
"971 254 OFFCURVE",
"971 106 CURVE SMOOTH",
"971 -43 OFFCURVE",
"1098 -131 OFFCURVE",
"1268 -131 CURVE SMOOTH",
"1440 -131 OFFCURVE",
"1565 -43 OFFCURVE",
"1565 106 CURVE SMOOTH",
"1565 254 OFFCURVE",
"1440 344 OFFCURVE",
"1268 344 CURVE SMOOTH"
);
},
{
closed = 1;
nodes = (
"1413 289 OFFCURVE",
"1503 213 OFFCURVE",
"1503 106 CURVE SMOOTH",
"1503 -2 OFFCURVE",
"1413 -76 OFFCURVE",
"1268 -76 CURVE SMOOTH",
"1124 -76 OFFCURVE",
"1034 -2 OFFCURVE",
"1034 106 CURVE SMOOTH",
"1034 213 OFFCURVE",
"1124 289 OFFCURVE",
"1268 289 CURVE SMOOTH"
);
},
{
closed = 1;
nodes = (
"1237 700 LINE",
"1237 481 LINE",
"1305 481 LINE",
"1305 700 LINE"
);
},
{
closed = 1;
nodes = (
"948 1565 LINE",
"948 1546 LINE SMOOTH",
"948 1161 OFFCURVE",
"618 883 OFFCURVE",
"137 756 CURVE",
"168 696 LINE",
"670 834 OFFCURVE",
"1018 1139 OFFCURVE",
"1018 1565 CURVE"
);
},
{
closed = 1;
nodes = (
"213 1565 LINE",
"213 1503 LINE",
"983 1503 LINE",
"983 1565 LINE"
);
},
{
closed = 1;
nodes = (
"1485 1380 LINE",
"1485 1321 LINE",
"1798 1321 LINE",
"1798 1380 LINE"
);
},
{
closed = 1;
nodes = (
"1485 1022 LINE",
"1485 961 LINE",
"1798 961 LINE",
"1798 1022 LINE"
);
}
);
width = 1884;
}
);
unicode = AC47;
}
{
color = 0;
glyphname = uniAC49;
layers = (
{
layerId = "99E75090-8A73-42EE-982D-99D4C12EA1BB";
paths = (
{
closed = 1;
nodes = (
"1264 1729 LINE",
"1264 686 LINE",
"1595 686 LINE",
"1595 1729 LINE"
);
},
{
closed = 1;
nodes = (
"700 1634 LINE",
"700 1446 LINE SMOOTH",
"700 1225 OFFCURVE",
"530 1020 OFFCURVE",
"53 928 CURVE",
"174 664 LINE",
"766 791 OFFCURVE",
"1065 1106 OFFCURVE",
"1065 1634 CURVE"
);
},
{
closed = 1;
nodes = (
"162 1634 LINE",
"162 1374 LINE",
"930 1374 LINE",
"930 1634 LINE"
);
},
{
closed = 1;
nodes = (
"322 616 LINE",
"322 -176 LINE",
"1595 -176 LINE",
"1595 616 LINE",
"1268 616 LINE",
"1268 465 LINE",
"649 465 LINE",
"649 616 LINE"
);
},
{
closed = 1;
nodes = (
"649 213 LINE",
"1268 213 LINE",
"1268 86 LINE",
"649 86 LINE"
);
},
{
closed = 1;
nodes = (
"1505 1528 LINE",
"1505 1268 LINE",
"1835 1268 LINE",
"1835 1528 LINE"
);
},
{
closed = 1;
nodes = (
"1505 1114 LINE",
"1505 854 LINE",
"1835 854 LINE",
"1835 1114 LINE"
);
}
);
width = 1884;
},
{
layerId = "35A15426-DDB1-4AC4-90C4-1762146010E5";
paths = (
{
closed = 1;
nodes = (
"1436 1671 LINE",
"1436 694 LINE",
"1503 694 LINE",
"1503 1671 LINE"
);
},
{
closed = 1;
nodes = (
"952 1548 LINE",
"952 1530 LINE SMOOTH",
"952 1143 OFFCURVE",
"621 860 OFFCURVE",
"139 731 CURVE",
"168 672 LINE",
"678 809 OFFCURVE",
"1022 1122 OFFCURVE",
"1022 1548 CURVE"
);
},
{
closed = 1;
nodes = (
"205 1548 LINE",
"205 1487 LINE",
"975 1487 LINE",
"975 1548 LINE"
);
},
{
closed = 1;
nodes = (
"399 600 LINE",
"399 -109 LINE",
"1503 -109 LINE",
"1503 600 LINE",
"1436 600 LINE",
"1436 317 LINE",
"467 317 LINE",
"467 600 LINE"
);
},
{
closed = 1;
nodes = (
"467 258 LINE",
"1436 258 LINE",
"1436 -49 LINE",
"467 -49 LINE"
);
},
{
closed = 1;
nodes = (
"1485 1389 LINE",
"1485 1329 LINE",
"1798 1329 LINE",
"1798 1389 LINE"
);
},
{
closed = 1;
nodes = (
"1485 1034 LINE",
"1485 975 LINE",
"1798 975 LINE",
"1798 1034 LINE"
);
}
);
width = 1884;
}
);
unicode = AC49;
}
{
color = 0;
glyphname = uniAC4B;
layers = (
{
layerId = "99E75090-8A73-42EE-982D-99D4C12EA1BB";
paths = (
{
closed = 1;
nodes = (
"1501 1460 LINE",
"1501 1194 LINE",
"1831 1194 LINE",
"1831 1460 LINE"
);
},
{
closed = 1;
nodes = (
"1501 1014 LINE",
"1501 748 LINE",
"1831 748 LINE",
"1831 1014 LINE"
);
},
{
closed = 1;
nodes = (
"1266 1729 LINE",
"1266 467 LINE",
"1595 467 LINE",
"1595 1729 LINE"
);
},
{
closed = 1;
nodes = (
"721 1589 LINE",
"721 1421 LINE SMOOTH",
"721 1147 OFFCURVE",
"504 909 OFFCURVE",
"45 791 CURVE",
"180 526 LINE",
"764 688 OFFCURVE",
"1077 1051 OFFCURVE",
"1077 1589 CURVE"
);
},
{
closed = 1;
nodes = (
"158 1589 LINE",
"158 1327 LINE",
"926 1327 LINE",
"926 1589 LINE"
);
},
{
closed = 1;
nodes = (
"805 590 LINE",
"805 551 LINE SMOOTH",
"805 365 OFFCURVE",
"672 135 OFFCURVE",
"227 72 CURVE",
"356 -188 LINE",
"872 -106 OFFCURVE",
"1087 205 OFFCURVE",
"1087 551 CURVE SMOOTH",
"1087 590 LINE"
);
},
{
closed = 1;
nodes = (
"854 590 LINE",
"854 551 LINE SMOOTH",
"854 205 OFFCURVE",
"1069 -106 OFFCURVE",
"1585 -188 CURVE",
"1712 72 LINE",
"1270 135 OFFCURVE",
"1135 365 OFFCURVE",
"1135 551 CURVE SMOOTH",
"1135 590 LINE"
);
}
);
width = 1884;
},
{
layerId = "35A15426-DDB1-4AC4-90C4-1762146010E5";
paths = (
{
closed = 1;
nodes = (
"1487 1321 LINE",
"1487 1260 LINE",
"1800 1260 LINE",
"1800 1321 LINE"
);
},
{
closed = 1;
nodes = (
"1487 879 LINE",
"1487 817 LINE",
"1800 817 LINE",
"1800 879 LINE"
);
},
{
closed = 1;
nodes = (
"1436 1671 LINE",
"1436 461 LINE",
"1503 461 LINE",
"1503 1671 LINE"
);
},
{
closed = 1;
nodes = (
"954 1526 LINE",
"954 1511 LINE SMOOTH",
"954 1108 OFFCURVE",
"629 793 OFFCURVE",
"143 637 CURVE",
"174 582 LINE",
"686 748 OFFCURVE",
"1022 1087 OFFCURVE",
"1022 1526 CURVE"
);
},
{
closed = 1;
nodes = (
"211 1526 LINE",
"211 1464 LINE",
"981 1464 LINE",
"981 1526 LINE"
);
},
{
closed = 1;
nodes = (
"954 604 LINE",
"954 498 LINE SMOOTH",
"954 174 OFFCURVE",
"567 -18 OFFCURVE",
"311 -74 CURVE",
"342 -129 LINE",
"621 -59 OFFCURVE",
"1014 137 OFFCURVE",
"1014 498 CURVE SMOOTH",
"1014 604 LINE"
);
},
{
closed = 1;
nodes = (
"963 604 LINE",
"963 498 LINE SMOOTH",
"963 141 OFFCURVE",
"1350 -53 OFFCURVE",
"1622 -121 CURVE",
"1659 -68 LINE",
"1405 -10 OFFCURVE",
"1020 180 OFFCURVE",
"1020 498 CURVE SMOOTH",
"1020 604 LINE"
);
}
);
width = 1884;
}
);
unicode = AC4B;
}
{
color = 0;
glyphname = uniAC4D;
layers = (
{
layerId = "99E75090-8A73-42EE-982D-99D4C12EA1BB";
paths = (
{
closed = 1;
nodes = (
"1499 1495 LINE",
"1499 1227 LINE",
"1829 1227 LINE",
"1829 1495 LINE"
);
},
{
closed = 1;
nodes = (
"1499 1096 LINE",
"1499 827 LINE",
"1829 827 LINE",
"1829 1096 LINE"
);
},
{
closed = 1;
nodes = (
"1266 1729 LINE",
"1266 637 LINE",
"1595 637 LINE",
"1595 1729 LINE"
);
},
{
closed = 1;
nodes = (
"707 1612 LINE",
"707 1442 LINE SMOOTH",
"707 1180 OFFCURVE",
"498 948 OFFCURVE",
"49 831 CURVE",
"182 569 LINE",
"754 723 OFFCURVE",
"1063 1081 OFFCURVE",
"1063 1612 CURVE"
);
},
{
closed = 1;
nodes = (
"143 1612 LINE",
"143 1350 LINE",
"911 1350 LINE",
"911 1612 LINE"
);
},
{
closed = 1;
nodes = (
"571 610 OFFCURVE",
"305 453 OFFCURVE",
"305 207 CURVE SMOOTH",
"305 -41 OFFCURVE",
"571 -199 OFFCURVE",
"963 -199 CURVE SMOOTH",
"1354 -199 OFFCURVE",
"1618 -41 OFFCURVE",
"1618 207 CURVE SMOOTH",
"1618 453 OFFCURVE",
"1354 610 OFFCURVE",
"963 610 CURVE SMOOTH"
);
},
{
closed = 1;
nodes = (
"1174 356 OFFCURVE",
"1292 309 OFFCURVE",
"1292 207 CURVE SMOOTH",
"1292 102 OFFCURVE",
"1174 55 OFFCURVE",
"963 55 CURVE SMOOTH",
"752 55 OFFCURVE",
"633 102 OFFCURVE",
"633 207 CURVE SMOOTH",
"633 309 OFFCURVE",
"752 356 OFFCURVE",
"963 356 CURVE SMOOTH"
);
}
);
width = 1884;
},
{
layerId = "35A15426-DDB1-4AC4-90C4-1762146010E5";
paths = (
{
closed = 1;
nodes = (
"1485 1341 LINE",
"1485 1282 LINE",
"1798 1282 LINE",
"1798 1341 LINE"
);
},
{
closed = 1;
nodes = (
"1485 934 LINE",
"1485 874 LINE",
"1798 874 LINE",
"1798 934 LINE"
);
},
{
closed = 1;
nodes = (
"1436 1671 LINE",
"1436 553 LINE",
"1503 553 LINE",
"1503 1671 LINE"
);
},
{
closed = 1;
nodes = (
"954 1522 LINE",
"954 1505 LINE SMOOTH",
"954 1104 OFFCURVE",
"623 795 OFFCURVE",
"139 643 CURVE",
"170 586 LINE",
"682 745 OFFCURVE",
"1024 1083 OFFCURVE",
"1024 1522 CURVE"
);
},
{
closed = 1;
nodes = (
"211 1522 LINE",
"211 1460 LINE",
"981 1460 LINE",
"981 1522 LINE"
);
},
{
closed = 1;
nodes = (
"604 532 OFFCURVE",
"387 410 OFFCURVE",
"387 201 CURVE SMOOTH",
"387 -6 OFFCURVE",
"604 -127 OFFCURVE",
"956 -127 CURVE SMOOTH",
"1309 -127 OFFCURVE",
"1524 -6 OFFCURVE",
"1524 201 CURVE SMOOTH",
"1524 410 OFFCURVE",
"1309 532 OFFCURVE",
"956 532 CURVE SMOOTH"
);
},
{
closed = 1;
nodes = (
"1257 473 OFFCURVE",
"1460 365 OFFCURVE",
"1460 201 CURVE SMOOTH",
"1460 41 OFFCURVE",
"1257 -68 OFFCURVE",
"956 -68 CURVE SMOOTH",
"655 -68 OFFCURVE",
"453 41 OFFCURVE",
"453 201 CURVE SMOOTH",
"453 365 OFFCURVE",
"655 473 OFFCURVE",
"956 473 CURVE SMOOTH"
);
}
);
width = 1884;
}
);
unicode = AC4D;
}
{
color = 0;
glyphname = uniAC4E;
layers = (
{
layerId = "99E75090-8A73-42EE-982D-99D4C12EA1BB";
paths = (
{
closed = 1;
nodes = (
"1266 1729 LINE",
"1266 686 LINE",
"1595 686 LINE",
"1595 1729 LINE"
);
},
{
closed = 1;
nodes = (
"705 1628 LINE",
"705 1444 LINE SMOOTH",
"705 1214 OFFCURVE",
"524 1006 OFFCURVE",
"53 907 CURVE",
"174 643 LINE",
"762 776 OFFCURVE",
"1065 1100 OFFCURVE",
"1065 1628 CURVE"
);
},
{
closed = 1;
nodes = (
"150 1628 LINE",
"150 1368 LINE",
"918 1368 LINE",
"918 1628 LINE"
);
},
{
closed = 1;
nodes = (
"788 463 LINE",
"788 420 LINE SMOOTH",
"788 281 OFFCURVE",
"666 106 OFFCURVE",
"227 61 CURVE",
"344 -188 LINE",
"856 -129 OFFCURVE",
"1067 123 OFFCURVE",
"1067 420 CURVE SMOOTH",
"1067 463 LINE"
);
},
{
closed = 1;
nodes = (
"864 463 LINE",
"864 420 LINE SMOOTH",
"864 133 OFFCURVE",
"1075 -135 OFFCURVE",
"1587 -193 CURVE",
"1702 57 LINE",
"1272 106 OFFCURVE",
"1143 289 OFFCURVE",
"1143 420 CURVE SMOOTH",
"1143 463 LINE"
);
},
{
closed = 1;
nodes = (
"313 610 LINE",
"313 354 LINE",
"1616 354 LINE",
"1616 610 LINE"
);
},
{
closed = 1;
nodes = (
"1505 1528 LINE",
"1505 1268 LINE",
"1835 1268 LINE",
"1835 1528 LINE"
);
},
{
closed = 1;
nodes = (
"1505 1114 LINE",
"1505 854 LINE",
"1835 854 LINE",
"1835 1114 LINE"
);
}
);
width = 1884;
},
{
layerId = "35A15426-DDB1-4AC4-90C4-1762146010E5";
paths = (
{
closed = 1;
nodes = (
"1436 1675 LINE",
"1436 604 LINE",
"1503 604 LINE",
"1503 1675 LINE"
);
},
{
closed = 1;
nodes = (
"954 1540 LINE",
"954 1526 LINE SMOOTH",
"954 1130 OFFCURVE",
"633 834 OFFCURVE",
"139 690 CURVE",
"166 633 LINE",
"688 784 OFFCURVE",
"1022 1110 OFFCURVE",
"1022 1540 CURVE"
);
},
{
closed = 1;
nodes = (
"211 1540 LINE",
"211 1481 LINE",
"981 1481 LINE",
"981 1540 LINE"
);
},
{
closed = 1;
nodes = (
"932 485 LINE",
"932 420 LINE SMOOTH",
"932 164 OFFCURVE",
"569 -25 OFFCURVE",
"328 -78 CURVE",
"360 -133 LINE",
"625 -68 OFFCURVE",
"991 129 OFFCURVE",
"991 420 CURVE SMOOTH",
"991 485 LINE"
);
},
{
closed = 1;
nodes = (
"940 485 LINE",
"940 420 LINE SMOOTH",
"940 131 OFFCURVE",
"1307 -68 OFFCURVE",
"1571 -133 CURVE",
"1604 -78 LINE",
"1364 -25 OFFCURVE",
"999 166 OFFCURVE",
"999 420 CURVE SMOOTH",
"999 485 LINE"
);
},
{
closed = 1;
nodes = (
"387 502 LINE",
"387 440 LINE",
"1542 440 LINE",
"1542 502 LINE"
);
},
{
closed = 1;
nodes = (
"1485 1370 LINE",
"1485 1309 LINE",
"1798 1309 LINE",
"1798 1370 LINE"
);
},
{
closed = 1;
nodes = (
"1485 985 LINE",
"1485 926 LINE",
"1798 926 LINE",
"1798 985 LINE"
);
}
);
width = 1884;
}
);
unicode = AC4E;
}
{
color = 0;
glyphname = uniAC52;
layers = (
{
layerId = "99E75090-8A73-42EE-982D-99D4C12EA1BB";
paths = (
{
closed = 1;
nodes = (
"1266 1729 LINE",
"1266 705 LINE",
"1595 705 LINE",
"1595 1729 LINE"
);
},
{
closed = 1;
nodes = (
"709 1624 LINE",
"709 1430 LINE SMOOTH",
"709 1221 OFFCURVE",
"522 1012 OFFCURVE",
"51 926 CURVE",
"174 662 LINE",
"758 780 OFFCURVE",
"1073 1100 OFFCURVE",
"1073 1624 CURVE"
);
},
{
closed = 1;
nodes = (
"164 1624 LINE",
"164 1364 LINE",
"932 1364 LINE",
"932 1624 LINE"
);
},
{
closed = 1;
nodes = (
"324 631 LINE",
"324 375 LINE",
"1626 375 LINE",
"1626 631 LINE"
);
},
{
closed = 1;
nodes = (
"307 82 LINE",
"307 -176 LINE",
"1649 -176 LINE",
"1649 82 LINE"
);
},
{
closed = 1;
nodes = (
"535 535 LINE",
"535 -33 LINE",
"860 -33 LINE",
"860 535 LINE"
);
},
{
closed = 1;
nodes = (
"1092 535 LINE",
"1092 -33 LINE",
"1415 -33 LINE",
"1415 535 LINE"
);
},
{
closed = 1;
nodes = (
"1505 1544 LINE",
"1505 1284 LINE",
"1835 1284 LINE",
"1835 1544 LINE"
);
},
{
closed = 1;
nodes = (
"1505 1141 LINE",
"1505 881 LINE",
"1835 881 LINE",
"1835 1141 LINE"
);
}
);
width = 1884;
},
{
layerId = "35A15426-DDB1-4AC4-90C4-1762146010E5";
paths = (
{
closed = 1;
nodes = (
"1436 1669 LINE",
"1436 637 LINE",
"1503 637 LINE",
"1503 1669 LINE"
);
},
{
closed = 1;
nodes = (
"952 1538 LINE",
"952 1522 LINE SMOOTH",
"952 1128 OFFCURVE",
"596 838 OFFCURVE",
"139 702 CURVE",
"168 641 LINE",
"651 786 OFFCURVE",
"1024 1106 OFFCURVE",
"1024 1538 CURVE"
);
},
{
closed = 1;
nodes = (
"213 1538 LINE",
"213 1479 LINE",
"983 1479 LINE",
"983 1538 LINE"
);
},
{
closed = 1;
nodes = (
"381 535 LINE",
"381 473 LINE",
"1563 473 LINE",
"1563 535 LINE"
);
},
{
closed = 1;
nodes = (
"367 -35 LINE",
"367 -96 LINE",
"1585 -96 LINE",
"1585 -35 LINE"
);
},
{
closed = 1;
nodes = (
"668 508 LINE",
"668 -66 LINE",
"733 -66 LINE",
"733 508 LINE"
);
},
{
closed = 1;
nodes = (
"1214 508 LINE",
"1214 -66 LINE",
"1280 -66 LINE",
"1280 508 LINE"
);
},
{
closed = 1;
nodes = (
"1485 1370 LINE",
"1485 1309 LINE",
"1798 1309 LINE",
"1798 1370 LINE"
);
},
{
closed = 1;
nodes = (
"1485 985 LINE",
"1485 926 LINE",
"1798 926 LINE",
"1798 985 LINE"
);
}
);
width = 1884;
}
);
unicode = AC52;
}
{
color = 0;
glyphname = uniAC53;
layers = (
{
layerId = "99E75090-8A73-42EE-982D-99D4C12EA1BB";
paths = (
{
closed = 1;
nodes = (
"1505 1552 LINE",
"1505 1292 LINE",
"1835 1292 LINE",
"1835 1552 LINE"
);
},
{
closed = 1;
nodes = (
"1505 1174 LINE",
"1505 911 LINE",
"1835 911 LINE",
"1835 1174 LINE"
);
},
{
closed = 1;
nodes = (
"1266 1729 LINE",
"1266 741 LINE",
"1595 741 LINE",
"1595 1729 LINE"
);
},
{
closed = 1;
nodes = (
"700 1649 LINE",
"700 1456 LINE SMOOTH",
"700 1241 OFFCURVE",
"569 1051 OFFCURVE",
"55 967 CURVE",
"170 707 LINE",
"793 821 OFFCURVE",
"1063 1110 OFFCURVE",
"1063 1649 CURVE"
);
},
{
closed = 1;
nodes = (
"137 1649 LINE",
"137 1389 LINE",
"905 1389 LINE",
"905 1649 LINE"
);
},
{
closed = 1;
nodes = (
"270 653 LINE",
"270 408 LINE",
"1628 408 LINE",
"1628 653 LINE"
);
},
{
closed = 1;
nodes = (
"606 367 OFFCURVE",
"395 262 OFFCURVE",
"395 86 CURVE SMOOTH",
"395 -94 OFFCURVE",
"606 -197 OFFCURVE",
"948 -197 CURVE SMOOTH",
"1290 -197 OFFCURVE",
"1499 -94 OFFCURVE",
"1499 86 CURVE SMOOTH",
"1499 262 OFFCURVE",
"1290 367 OFFCURVE",
"948 367 CURVE SMOOTH"
);
},
{
closed = 1;
nodes = (
"1114 139 OFFCURVE",
"1190 127 OFFCURVE",
"1190 86 CURVE SMOOTH",
"1190 41 OFFCURVE",
"1114 31 OFFCURVE",
"948 31 CURVE SMOOTH",
"782 31 OFFCURVE",
"707 41 OFFCURVE",
"707 86 CURVE SMOOTH",
"707 127 OFFCURVE",
"782 139 OFFCURVE",
"948 139 CURVE SMOOTH"
);
},
{
closed = 1;
nodes = (
"784 815 LINE",
"784 524 LINE",
"1114 524 LINE",
"1114 815 LINE"
);
}
);
width = 1884;
},
{
layerId = "35A15426-DDB1-4AC4-90C4-1762146010E5";
paths = (
{
closed = 1;
nodes = (
"1485 1370 LINE",
"1485 1309 LINE",
"1798 1309 LINE",
"1798 1370 LINE"
);
},
{
closed = 1;
nodes = (
"1485 985 LINE",
"1485 926 LINE",
"1798 926 LINE",
"1798 985 LINE"
);
},
{
closed = 1;
nodes = (
"1436 1671 LINE",
"1436 702 LINE",
"1503 702 LINE",
"1503 1671 LINE"
);
},
{
closed = 1;
nodes = (
"952 1546 LINE",
"952 1530 LINE SMOOTH",
"952 1137 OFFCURVE",
"623 850 OFFCURVE",
"139 717 CURVE",
"168 655 LINE",
"680 799 OFFCURVE",
"1024 1118 OFFCURVE",
"1024 1546 CURVE"
);
},
{
closed = 1;
nodes = (
"211 1546 LINE",
"211 1485 LINE",
"981 1485 LINE",
"981 1546 LINE"
);
},
{
closed = 1;
nodes = (
"362 547 LINE",
"362 487 LINE",
"1610 487 LINE",
"1610 547 LINE"
);
},
{
closed = 1;
nodes = (
"678 373 OFFCURVE",
"494 283 OFFCURVE",
"494 121 CURVE SMOOTH",
"494 -41 OFFCURVE",
"678 -131 OFFCURVE",
"985 -131 CURVE SMOOTH",
"1292 -131 OFFCURVE",
"1477 -41 OFFCURVE",
"1477 121 CURVE SMOOTH",
"1477 283 OFFCURVE",
"1292 373 OFFCURVE",
"985 373 CURVE SMOOTH"
);
},
{
closed = 1;
nodes = (
"1245 315 OFFCURVE",
"1413 240 OFFCURVE",
"1413 121 CURVE SMOOTH",
"1413 0 OFFCURVE",
"1245 -74 OFFCURVE",
"985 -74 CURVE SMOOTH",
"725 -74 OFFCURVE",
"559 0 OFFCURVE",
"559 121 CURVE SMOOTH",
"559 240 OFFCURVE",
"725 315 OFFCURVE",
"985 315 CURVE SMOOTH"
);
},
{
closed = 1;
nodes = (
"952 797 LINE",
"952 512 LINE",
"1018 512 LINE",
"1018 797 LINE"
);
}
);
width = 1884;
}
);
unicode = AC53;
}
{
color = 0;
glyphname = uniAC54;
layers = (
{
layerId = "99E75090-8A73-42EE-982D-99D4C12EA1BB";
paths = (
{
closed = 1;
nodes = (
"1200 1284 LINE",
"1200 1022 LINE",
"1493 1022 LINE",
"1493 1284 LINE"
);
},
{
closed = 1;
nodes = (
"1200 748 LINE",
"1200 487 LINE",
"1493 487 LINE",
"1493 748 LINE"
);
},
{
closed = 1;
nodes = (
"1413 1729 LINE",
"1413 -193 LINE",
"1726 -193 LINE",
"1726 1729 LINE"
);
},
{
closed = 1;
nodes = (
"592 1499 LINE",
"592 1430 LINE SMOOTH",
"592 958 OFFCURVE",
"449 672 OFFCURVE",
"35 418 CURVE",
"225 190 LINE",
"756 506 OFFCURVE",
"907 932 OFFCURVE",
"907 1499 CURVE"
);
},
{
closed = 1;
nodes = (
"143 1499 LINE",
"143 1237 LINE",
"684 1237 LINE",
"684 1499 LINE"
);
},
{
closed = 1;
nodes = (
"987 1679 LINE",
"987 -117 LINE",
"1294 -117 LINE",
"1294 1679 LINE"
);
}
);
width = 1884;
},
{
layerId = "35A15426-DDB1-4AC4-90C4-1762146010E5";
paths = (
{
closed = 1;
nodes = (
"1204 1163 LINE",
"1204 1102 LINE",
"1602 1102 LINE",
"1602 1163 LINE"
);
},
{
closed = 1;
nodes = (
"1204 649 LINE",
"1204 588 LINE",
"1602 588 LINE",
"1602 649 LINE"
);
},
{
closed = 1;
nodes = (
"1569 1671 LINE",
"1569 -137 LINE",
"1636 -137 LINE",
"1636 1671 LINE"
);
},
{
closed = 1;
nodes = (
"819 1425 LINE",
"819 1419 LINE SMOOTH",
"819 1018 OFFCURVE",
"643 586 OFFCURVE",
"145 322 CURVE",
"186 268 LINE",
"713 555 OFFCURVE",
"885 1008 OFFCURVE",
"885 1425 CURVE"
);
},
{
closed = 1;
nodes = (
"193 1425 LINE",
"193 1364 LINE",
"852 1364 LINE",
"852 1425 LINE"
);
},
{
closed = 1;
nodes = (
"1167 1622 LINE",
"1167 -37 LINE",
"1235 -37 LINE",
"1235 1622 LINE"
);
}
);
width = 1884;
}
);
unicode = AC54;
}
{
color = 0;
glyphname = uniAC55;
layers = (
{
layerId = "99E75090-8A73-42EE-982D-99D4C12EA1BB";
paths = (
{
closed = 1;
nodes = (
"1407 1729 LINE",
"1407 608 LINE",
"1720 608 LINE",
"1720 1729 LINE"
);
},
{
closed = 1;
nodes = (
"987 1694 LINE",
"987 610 LINE",
"1294 610 LINE",
"1294 1694 LINE"
);
},
{
closed = 1;
nodes = (
"365 535 LINE",
"365 274 LINE",
"1391 274 LINE",
"1391 -195 LINE",
"1720 -195 LINE",
"1720 535 LINE"
);
},
{
closed = 1;
nodes = (
"571 1599 LINE",
"571 1473 LINE SMOOTH",
"571 1180 OFFCURVE",
"434 977 OFFCURVE",
"35 838 CURVE",
"186 600 LINE",
"692 788 OFFCURVE",
"901 1102 OFFCURVE",
"901 1599 CURVE"
);
},
{
closed = 1;
nodes = (
"135 1599 LINE",
"135 1339 LINE",
"676 1339 LINE",
"676 1599 LINE"
);
},
{
closed = 1;
nodes = (
"1212 1513 LINE",
"1212 1253 LINE",
"1487 1253 LINE",
"1487 1513 LINE"
);
},
{
closed = 1;
nodes = (
"1212 1085 LINE",
"1212 823 LINE",
"1487 823 LINE",
"1487 1085 LINE"
);
}
);
width = 1884;
},
{
layerId = "35A15426-DDB1-4AC4-90C4-1762146010E5";
paths = (
{
closed = 1;
nodes = (
"1561 1669 LINE",
"1561 598 LINE",
"1626 598 LINE",
"1626 1669 LINE"
);
},
{
closed = 1;
nodes = (
"1165 1634 LINE",
"1165 612 LINE",
"1233 612 LINE",
"1233 1634 LINE"
);
},
{
closed = 1;
nodes = (
"455 500 LINE",
"455 438 LINE",
"1561 438 LINE",
"1561 -137 LINE",
"1626 -137 LINE",
"1626 500 LINE"
);
},
{
closed = 1;
nodes = (
"842 1528 LINE",
"842 1516 LINE SMOOTH",
"842 1135 OFFCURVE",
"580 811 OFFCURVE",
"160 625 CURVE",
"201 571 LINE",
"643 774 OFFCURVE",
"911 1120 OFFCURVE",
"911 1528 CURVE"
);
},
{
closed = 1;
nodes = (
"217 1528 LINE",
"217 1466 LINE",
"874 1466 LINE",
"874 1528 LINE"
);
},
{
closed = 1;
nodes = (
"1202 1358 LINE",
"1202 1296 LINE",
"1599 1296 LINE",
"1599 1358 LINE"
);
},
{
closed = 1;
nodes = (
"1202 950 LINE",
"1202 889 LINE",
"1599 889 LINE",
"1599 950 LINE"
);
}
);
width = 1884;
}
);
unicode = AC55;
}
{
color = 0;
glyphname = uniAC56;
layers = (
{
layerId = "99E75090-8A73-42EE-982D-99D4C12EA1BB";
paths = (
{
closed = 1;
nodes = (
"317 551 LINE",
"317 293 LINE",
"653 293 LINE",
"653 -195 LINE",
"985 -195 LINE",
"985 551 LINE"
);
},
{
closed = 1;
nodes = (
"1063 551 LINE",
"1063 293 LINE",
"1391 293 LINE",
"1391 -195 LINE",
"1720 -195 LINE",
"1720 551 LINE"
);
},
{
closed = 1;
nodes = (
"1407 1729 LINE",
"1407 627 LINE",
"1720 627 LINE",
"1720 1729 LINE"
);
},
{
closed = 1;
nodes = (
"987 1694 LINE",
"987 639 LINE",
"1294 639 LINE",
"1294 1694 LINE"
);
},
{
closed = 1;
nodes = (
"571 1599 LINE",
"571 1473 LINE SMOOTH",
"571 1180 OFFCURVE",
"434 977 OFFCURVE",
"35 838 CURVE",
"186 600 LINE",
"692 788 OFFCURVE",
"901 1102 OFFCURVE",
"901 1599 CURVE"
);
},
{
closed = 1;
nodes = (
"135 1599 LINE",
"135 1339 LINE",
"676 1339 LINE",
"676 1599 LINE"
);
},
{
closed = 1;
nodes = (
"1212 1505 LINE",
"1212 1243 LINE",
"1487 1243 LINE",
"1487 1505 LINE"
);
},
{
closed = 1;
nodes = (
"1212 1096 LINE",
"1212 834 LINE",
"1487 834 LINE",
"1487 1096 LINE"
);
}
);
width = 1884;
},
{
layerId = "35A15426-DDB1-4AC4-90C4-1762146010E5";
paths = (
{
closed = 1;
nodes = (
"416 508 LINE",
"416 446 LINE",
"915 446 LINE",
"915 -137 LINE",
"981 -137 LINE",
"981 508 LINE"
);
},
{
closed = 1;
nodes = (
"1075 508 LINE",
"1075 446 LINE",
"1561 446 LINE",
"1561 -137 LINE",
"1626 -137 LINE",
"1626 508 LINE"
);
},
{
closed = 1;
nodes = (
"1561 1669 LINE",
"1561 637 LINE",
"1626 637 LINE",
"1626 1669 LINE"
);
},
{
closed = 1;
nodes = (
"1165 1634 LINE",
"1165 649 LINE",
"1233 649 LINE",
"1233 1634 LINE"
);
},
{
closed = 1;
nodes = (
"842 1528 LINE",
"842 1516 LINE SMOOTH",
"842 1139 OFFCURVE",
"569 834 OFFCURVE",
"162 659 CURVE",
"201 604 LINE",
"631 793 OFFCURVE",
"911 1124 OFFCURVE",
"911 1528 CURVE"
);
},
{
closed = 1;
nodes = (
"217 1528 LINE",
"217 1466 LINE",
"874 1466 LINE",
"874 1528 LINE"
);
},
{
closed = 1;
nodes = (
"1202 1366 LINE",
"1202 1305 LINE",
"1599 1305 LINE",
"1599 1366 LINE"
);
},
{
closed = 1;
nodes = (
"1202 979 LINE",
"1202 918 LINE",
"1599 918 LINE",
"1599 979 LINE"
);
}
);
width = 1884;
}
);
unicode = AC56;
}
{
color = 0;
glyphname = uniAC5C;
layers = (
{
layerId = "99E75090-8A73-42EE-982D-99D4C12EA1BB";
paths = (
{
closed = 1;
nodes = (
"1214 1532 LINE",
"1214 1286 LINE",
"1489 1286 LINE",
"1489 1532 LINE"
);
},
{
closed = 1;
nodes = (
"1214 1180 LINE",
"1214 932 LINE",
"1489 932 LINE",
"1489 1180 LINE"
);
},
{
closed = 1;
nodes = (
"1407 1729 LINE",
"1407 780 LINE",
"1720 780 LINE",
"1720 1729 LINE"
);
},
{
closed = 1;
nodes = (
"987 1694 LINE",
"987 793 LINE",
"1294 793 LINE",
"1294 1694 LINE"
);
},
{
closed = 1;
nodes = (
"557 1618 LINE",
"557 1483 LINE SMOOTH",
"557 1229 OFFCURVE",
"432 1053 OFFCURVE",
"49 938 CURVE",
"201 700 LINE",
"686 862 OFFCURVE",
"893 1143 OFFCURVE",
"893 1618 CURVE"
);
},
{
closed = 1;
nodes = (
"150 1618 LINE",
"150 1358 LINE",
"690 1358 LINE",
"690 1618 LINE"
);
},
{
closed = 1;
nodes = (
"393 709 LINE",
"393 457 LINE",
"1395 457 LINE",
"1395 389 LINE",
"395 389 LINE",
"395 -45 LINE",
"723 -45 LINE",
"723 152 LINE",
"1720 152 LINE",
"1720 709 LINE"
);
},
{
closed = 1;
nodes = (
"395 80 LINE",
"395 -176 LINE",
"1776 -176 LINE",
"1776 80 LINE"
);
}
);
width = 1884;
},
{
layerId = "35A15426-DDB1-4AC4-90C4-1762146010E5";
paths = (
{
closed = 1;
nodes = (
"1202 1380 LINE",
"1202 1321 LINE",
"1599 1321 LINE",
"1599 1380 LINE"
);
},
{
closed = 1;
nodes = (
"1202 1036 LINE",
"1202 977 LINE",
"1599 977 LINE",
"1599 1036 LINE"
);
},
{
closed = 1;
nodes = (
"1561 1669 LINE",
"1561 721 LINE",
"1626 721 LINE",
"1626 1669 LINE"
);
},
{
closed = 1;
nodes = (
"1165 1634 LINE",
"1165 735 LINE",
"1233 735 LINE",
"1233 1634 LINE"
);
},
{
closed = 1;
nodes = (
"844 1561 LINE",
"844 1548 LINE SMOOTH",
"844 1180 OFFCURVE",
"584 887 OFFCURVE",
"162 723 CURVE",
"197 670 LINE",
"641 846 OFFCURVE",
"911 1163 OFFCURVE",
"911 1561 CURVE"
);
},
{
closed = 1;
nodes = (
"219 1561 LINE",
"219 1499 LINE",
"877 1499 LINE",
"877 1561 LINE"
);
},
{
closed = 1;
nodes = (
"471 618 LINE",
"471 557 LINE",
"1563 557 LINE",
"1563 289 LINE",
"477 289 LINE",
"477 -106 LINE",
"543 -106 LINE",
"543 227 LINE",
"1626 227 LINE",
"1626 618 LINE"
);
},
{
closed = 1;
nodes = (
"477 -66 LINE",
"477 -127 LINE",
"1708 -127 LINE",
"1708 -66 LINE"
);
}
);
width = 1884;
}
);
unicode = AC5C;
}
{
color = 0;
glyphname = uniAC5F;
layers = (
{
layerId = "99E75090-8A73-42EE-982D-99D4C12EA1BB";
paths = (
{
closed = 1;
nodes = (
"1214 1538 LINE",
"1214 1292 LINE",
"1489 1292 LINE",
"1489 1538 LINE"
);
},
{
closed = 1;
nodes = (
"1214 1176 LINE",
"1214 928 LINE",
"1489 928 LINE",
"1489 1176 LINE"
);
},
{
closed = 1;
nodes = (
"1407 1729 LINE",
"1407 762 LINE",
"1720 762 LINE",
"1720 1729 LINE"
);
},
{
closed = 1;
nodes = (
"987 1694 LINE",
"987 774 LINE",
"1294 774 LINE",
"1294 1694 LINE"
);
},
{
closed = 1;
nodes = (
"557 1618 LINE",
"557 1483 LINE SMOOTH",
"557 1229 OFFCURVE",
"432 1053 OFFCURVE",
"49 938 CURVE",
"201 700 LINE",
"686 862 OFFCURVE",
"893 1143 OFFCURVE",
"893 1618 CURVE"
);
},
{
closed = 1;
nodes = (
"150 1618 LINE",
"150 1358 LINE",
"690 1358 LINE",
"690 1618 LINE"
);
},
{
closed = 1;
nodes = (
"1042 692 LINE",
"1042 -176 LINE",
"1720 -176 LINE",
"1720 692 LINE",
"1427 692 LINE",
"1427 504 LINE",
"1335 504 LINE",
"1335 692 LINE"
);
},
{
closed = 1;
nodes = (
"1335 262 LINE",
"1427 262 LINE",
"1427 76 LINE",
"1335 76 LINE"
);
},
{
closed = 1;
nodes = (
"295 672 LINE",
"295 430 LINE",
"637 430 LINE",
"637 369 LINE",
"297 369 LINE",
"297 -12 LINE",
"616 -12 LINE",
"616 143 LINE",
"956 143 LINE",
"956 672 LINE"
);
},
{
closed = 1;
nodes = (
"297 72 LINE",
"297 -176 LINE",
"420 -176 LINE SMOOTH",
"696 -176 OFFCURVE",
"836 -174 OFFCURVE",
"999 -143 CURVE",
"973 102 LINE",
"813 74 OFFCURVE",
"686 72 OFFCURVE",
"420 72 CURVE SMOOTH"
);
}
);
width = 1884;
},
{
layerId = "35A15426-DDB1-4AC4-90C4-1762146010E5";
paths = (
{
closed = 1;
nodes = (
"1202 1380 LINE",
"1202 1321 LINE",
"1599 1321 LINE",
"1599 1380 LINE"
);
},
{
closed = 1;
nodes = (
"1202 1034 LINE",
"1202 975 LINE",
"1599 975 LINE",
"1599 1034 LINE"
);
},
{
closed = 1;
nodes = (
"1561 1669 LINE",
"1561 721 LINE",
"1626 721 LINE",
"1626 1669 LINE"
);
},
{
closed = 1;
nodes = (
"1165 1634 LINE",
"1165 735 LINE",
"1233 735 LINE",
"1233 1634 LINE"
);
},
{
closed = 1;
nodes = (
"844 1561 LINE",
"844 1548 LINE SMOOTH",
"844 1180 OFFCURVE",
"584 887 OFFCURVE",
"162 723 CURVE",
"197 670 LINE",
"641 846 OFFCURVE",
"911 1163 OFFCURVE",
"911 1561 CURVE"
);
},
{
closed = 1;
nodes = (
"219 1561 LINE",
"219 1499 LINE",
"877 1499 LINE",
"877 1561 LINE"
);
},
{
closed = 1;
nodes = (
"1073 625 LINE",
"1073 -109 LINE",
"1626 -109 LINE",
"1626 625 LINE",
"1561 625 LINE",
"1561 342 LINE",
"1141 342 LINE",
"1141 625 LINE"
);
},
{
closed = 1;
nodes = (
"1141 283 LINE",
"1561 283 LINE",
"1561 -47 LINE",
"1141 -47 LINE"
);
},
{
closed = 1;
nodes = (
"375 598 LINE",
"375 537 LINE",
"874 537 LINE",
"874 301 LINE",
"381 301 LINE",
"381 -66 LINE",
"446 -66 LINE",
"446 240 LINE",
"940 240 LINE",
"940 598 LINE"
);
},
{
closed = 1;
nodes = (
"381 -47 LINE",
"381 -109 LINE",
"467 -109 LINE SMOOTH",
"692 -109 OFFCURVE",
"823 -106 OFFCURVE",
"1004 -70 CURVE",
"993 -10 LINE",
"821 -43 OFFCURVE",
"690 -47 OFFCURVE",
"467 -47 CURVE SMOOTH"
);
}
);
width = 1884;
}
);
unicode = AC5F;
}
{
color = 0;
glyphname = uniAC61;
layers = (
{
layerId = "99E75090-8A73-42EE-982D-99D4C12EA1BB";
paths = (
{
closed = 1;
nodes = (
"1214 1532 LINE",
"1214 1286 LINE",
"1489 1286 LINE",
"1489 1532 LINE"
);
},
{
closed = 1;
nodes = (
"1214 1165 LINE",
"1214 918 LINE",
"1489 918 LINE",
"1489 1165 LINE"
);
},
{
closed = 1;
nodes = (
"1049 72 LINE",
"1049 -176 LINE",
"1741 -176 LINE",
"1741 72 LINE"
);
},
{
closed = 1;
nodes = (
"1133 373 LINE",
"1133 139 LINE",
"1692 139 LINE",
"1692 373 LINE"
);
},
{
closed = 1;
nodes = (
"1049 682 LINE",
"1049 -74 LINE",
"1368 -74 LINE",
"1368 434 LINE",
"1731 434 LINE",
"1731 682 LINE"
);
},
{
closed = 1;
nodes = (
"1407 1729 LINE",
"1407 752 LINE",
"1718 752 LINE",
"1718 1729 LINE"
);
},
{
closed = 1;
nodes = (
"987 1694 LINE",
"987 764 LINE",
"1294 764 LINE",
"1294 1694 LINE"
);
},
{
closed = 1;
nodes = (
"557 1618 LINE",
"557 1483 LINE SMOOTH",
"557 1229 OFFCURVE",
"432 1053 OFFCURVE",
"49 938 CURVE",
"201 700 LINE",
"686 862 OFFCURVE",
"893 1143 OFFCURVE",
"893 1618 CURVE"
);
},
{
closed = 1;
nodes = (
"150 1618 LINE",
"150 1358 LINE",
"690 1358 LINE",
"690 1618 LINE"
);
},
{
closed = 1;
nodes = (
"295 682 LINE",
"295 440 LINE",
"637 440 LINE",
"637 377 LINE",
"297 377 LINE",
"297 -2 LINE",
"616 -2 LINE",
"616 152 LINE",
"956 152 LINE",
"956 682 LINE"
);
},
{
closed = 1;
nodes = (
"297 72 LINE",
"297 -176 LINE",
"420 -176 LINE SMOOTH",
"696 -176 OFFCURVE",
"836 -174 OFFCURVE",
"999 -143 CURVE",
"973 102 LINE",
"813 74 OFFCURVE",
"686 72 OFFCURVE",
"420 72 CURVE SMOOTH"
);
}
);
width = 1884;
},
{
layerId = "35A15426-DDB1-4AC4-90C4-1762146010E5";
paths = (
{
closed = 1;
nodes = (
"1202 1378 LINE",
"1202 1317 LINE",
"1599 1317 LINE",
"1599 1378 LINE"
);
},
{
closed = 1;
nodes = (
"1202 1024 LINE",
"1202 963 LINE",
"1599 963 LINE",
"1599 1024 LINE"
);
},
{
closed = 1;
nodes = (
"1071 -47 LINE",
"1071 -109 LINE",
"1675 -109 LINE",
"1675 -47 LINE"
);
},
{
closed = 1;
nodes = (
"1092 295 LINE",
"1092 236 LINE",
"1620 236 LINE",
"1620 295 LINE"
);
},
{
closed = 1;
nodes = (
"1071 598 LINE",
"1071 -94 LINE",
"1139 -94 LINE",
"1139 537 LINE",
"1647 537 LINE",
"1647 598 LINE"
);
},
{
closed = 1;
nodes = (
"1561 1669 LINE",
"1561 721 LINE",
"1626 721 LINE",
"1626 1669 LINE"
);
},
{
closed = 1;
nodes = (
"1165 1634 LINE",
"1165 735 LINE",
"1233 735 LINE",
"1233 1634 LINE"
);
},
{
closed = 1;
nodes = (
"844 1561 LINE",
"844 1548 LINE SMOOTH",
"844 1180 OFFCURVE",
"584 887 OFFCURVE",
"162 723 CURVE",
"197 670 LINE",
"641 846 OFFCURVE",
"911 1163 OFFCURVE",
"911 1561 CURVE"
);
},
{
closed = 1;
nodes = (
"219 1561 LINE",
"219 1499 LINE",
"877 1499 LINE",
"877 1561 LINE"
);
},
{
closed = 1;
nodes = (
"375 598 LINE",
"375 537 LINE",
"874 537 LINE",
"874 295 LINE",
"381 295 LINE",
"381 -78 LINE",
"446 -78 LINE",
"446 236 LINE",
"940 236 LINE",
"940 598 LINE"
);
},
{
closed = 1;
nodes = (
"381 -47 LINE",
"381 -109 LINE",
"467 -109 LINE SMOOTH",
"692 -109 OFFCURVE",
"823 -106 OFFCURVE",
"1004 -70 CURVE",
"993 -10 LINE",
"821 -43 OFFCURVE",
"690 -47 OFFCURVE",
"467 -47 CURVE SMOOTH"
);
}
);
width = 1884;
}
);
unicode = AC61;
}
{
color = 0;
glyphname = uniAC62;
layers = (
{
layerId = "99E75090-8A73-42EE-982D-99D4C12EA1BB";
paths = (
{
closed = 1;
nodes = (
"1214 1532 LINE",
"1214 1286 LINE",
"1489 1286 LINE",
"1489 1532 LINE"
);
},
{
closed = 1;
nodes = (
"1214 1169 LINE",
"1214 922 LINE",
"1489 922 LINE",
"1489 1169 LINE"
);
},
{
closed = 1;
nodes = (
"1020 680 LINE",
"1020 426 LINE",
"1741 426 LINE",
"1741 680 LINE"
);
},
{
closed = 1;
nodes = (
"1020 78 LINE",
"1020 -176 LINE",
"1741 -176 LINE",
"1741 78 LINE"
);
},
{
closed = 1;
nodes = (
"1087 510 LINE",
"1087 -57 LINE",
"1352 -57 LINE",
"1352 510 LINE"
);
},
{
closed = 1;
nodes = (
"1409 510 LINE",
"1409 -57 LINE",
"1675 -57 LINE",
"1675 510 LINE"
);
},
{
closed = 1;
nodes = (
"1407 1729 LINE",
"1407 752 LINE",
"1720 752 LINE",
"1720 1729 LINE"
);
},
{
closed = 1;
nodes = (
"987 1694 LINE",
"987 764 LINE",
"1294 764 LINE",
"1294 1694 LINE"
);
},
{
closed = 1;
nodes = (
"557 1618 LINE",
"557 1483 LINE SMOOTH",
"557 1229 OFFCURVE",
"432 1053 OFFCURVE",
"49 938 CURVE",
"201 700 LINE",
"686 862 OFFCURVE",
"893 1143 OFFCURVE",
"893 1618 CURVE"
);
},
{
closed = 1;
nodes = (
"150 1618 LINE",
"150 1358 LINE",
"690 1358 LINE",
"690 1618 LINE"
);
},
{
closed = 1;
nodes = (
"295 680 LINE",
"295 438 LINE",
"629 438 LINE",
"629 373 LINE",
"297 373 LINE",
"297 -4 LINE",
"616 -4 LINE",
"616 147 LINE",
"948 147 LINE",
"948 680 LINE"
);
},
{
closed = 1;
nodes = (
"297 72 LINE",
"297 -176 LINE",
"418 -176 LINE SMOOTH",
"688 -176 OFFCURVE",
"823 -174 OFFCURVE",
"985 -145 CURVE",
"956 100 LINE",
"799 74 OFFCURVE",
"676 72 OFFCURVE",
"418 72 CURVE SMOOTH"
);
}
);
width = 1884;
},
{
layerId = "35A15426-DDB1-4AC4-90C4-1762146010E5";
paths = (
{
closed = 1;
nodes = (
"1202 1380 LINE",
"1202 1321 LINE",
"1599 1321 LINE",
"1599 1380 LINE"
);
},
{
closed = 1;
nodes = (
"1202 1034 LINE",
"1202 975 LINE",
"1599 975 LINE",
"1599 1034 LINE"
);
},
{
closed = 1;
nodes = (
"1034 604 LINE",
"1034 543 LINE",
"1665 543 LINE",
"1665 604 LINE"
);
},
{
closed = 1;
nodes = (
"1020 -47 LINE",
"1020 -109 LINE",
"1679 -109 LINE",
"1679 -47 LINE"
);
},
{
closed = 1;
nodes = (
"1165 561 LINE",
"1165 -88 LINE",
"1231 -88 LINE",
"1231 561 LINE"
);
},
{
closed = 1;
nodes = (
"1468 561 LINE",
"1468 -88 LINE",
"1536 -88 LINE",
"1536 561 LINE"
);
},
{
closed = 1;
nodes = (
"1561 1669 LINE",
"1561 721 LINE",
"1626 721 LINE",
"1626 1669 LINE"
);
},
{
closed = 1;
nodes = (
"1165 1634 LINE",
"1165 735 LINE",
"1233 735 LINE",
"1233 1634 LINE"
);
},
{
closed = 1;
nodes = (
"844 1561 LINE",
"844 1548 LINE SMOOTH",
"844 1180 OFFCURVE",
"584 887 OFFCURVE",
"162 723 CURVE",
"197 670 LINE",
"641 846 OFFCURVE",
"911 1163 OFFCURVE",
"911 1561 CURVE"
);
},
{
closed = 1;
nodes = (
"219 1561 LINE",
"219 1499 LINE",
"877 1499 LINE",
"877 1561 LINE"
);
},
{
closed = 1;
nodes = (
"375 604 LINE",
"375 543 LINE",
"874 543 LINE",
"874 299 LINE",
"381 299 LINE",
"381 -78 LINE",
"446 -78 LINE",
"446 240 LINE",
"940 240 LINE",
"940 604 LINE"
);
},
{
closed = 1;
nodes = (
"381 -47 LINE",
"381 -109 LINE",
"465 -109 LINE SMOOTH",
"680 -109 OFFCURVE",
"809 -106 OFFCURVE",
"983 -72 CURVE",
"973 -10 LINE",
"807 -45 OFFCURVE",
"678 -47 OFFCURVE",
"465 -47 CURVE SMOOTH"
);
}
);
width = 1884;
}
);
unicode = AC62;
}
{
color = 0;
glyphname = uniAC65;
layers = (
{
layerId = "99E75090-8A73-42EE-982D-99D4C12EA1BB";
paths = (
{
closed = 1;
nodes = (
"1212 1522 LINE",
"1212 1262 LINE",
"1487 1262 LINE",
"1487 1522 LINE"
);
},
{
closed = 1;
nodes = (
"1212 1135 LINE",
"1212 874 LINE",
"1487 874 LINE",
"1487 1135 LINE"
);
},
{
closed = 1;
nodes = (
"1407 1729 LINE",
"1407 696 LINE",
"1720 696 LINE",
"1720 1729 LINE"
);
},
{
closed = 1;
nodes = (
"987 1694 LINE",
"987 707 LINE",
"1294 707 LINE",
"1294 1694 LINE"
);
},
{
closed = 1;
nodes = (
"565 1618 LINE",
"565 1499 LINE SMOOTH",
"565 1200 OFFCURVE",
"434 1001 OFFCURVE",
"51 856 CURVE",
"209 616 LINE",
"698 811 OFFCURVE",
"897 1124 OFFCURVE",
"897 1618 CURVE"
);
},
{
closed = 1;
nodes = (
"150 1618 LINE",
"150 1358 LINE",
"690 1358 LINE",
"690 1618 LINE"
);
},
{
closed = 1;
nodes = (
"395 621 LINE",
"395 -166 LINE",
"1720 -166 LINE",
"1720 621 LINE",
"1395 621 LINE",
"1395 475 LINE",
"723 475 LINE",
"723 621 LINE"
);
},
{
closed = 1;
nodes = (
"723 223 LINE",
"1395 223 LINE",
"1395 90 LINE",
"723 90 LINE"
);
}
);
width = 1884;
},
{
layerId = "35A15426-DDB1-4AC4-90C4-1762146010E5";
paths = (
{
closed = 1;
nodes = (
"1202 1376 LINE",
"1202 1315 LINE",
"1599 1315 LINE",
"1599 1376 LINE"
);
},
{
closed = 1;
nodes = (
"1202 1016 LINE",
"1202 954 LINE",
"1599 954 LINE",
"1599 1016 LINE"
);
},
{
closed = 1;
nodes = (
"1561 1669 LINE",
"1561 684 LINE",
"1626 684 LINE",
"1626 1669 LINE"
);
},
{
closed = 1;
nodes = (
"1165 1634 LINE",
"1165 696 LINE",
"1233 696 LINE",
"1233 1634 LINE"
);
},
{
closed = 1;
nodes = (
"842 1536 LINE",
"842 1526 LINE SMOOTH",
"842 1153 OFFCURVE",
"588 852 OFFCURVE",
"160 682 CURVE",
"199 627 LINE",
"649 811 OFFCURVE",
"911 1135 OFFCURVE",
"911 1536 CURVE"
);
},
{
closed = 1;
nodes = (
"219 1536 LINE",
"219 1477 LINE",
"877 1477 LINE",
"877 1536 LINE"
);
},
{
closed = 1;
nodes = (
"485 594 LINE",
"485 -109 LINE",
"1626 -109 LINE",
"1626 594 LINE",
"1563 594 LINE",
"1563 326 LINE",
"553 326 LINE",
"553 594 LINE"
);
},
{
closed = 1;
nodes = (
"553 264 LINE",
"1563 264 LINE",
"1563 -47 LINE",
"553 -47 LINE"
);
}
);
width = 1884;
}
);
unicode = AC65;
}
{
color = 0;
glyphname = uniAC68;
layers = (
{
layerId = "99E75090-8A73-42EE-982D-99D4C12EA1BB";
paths = (
{
closed = 1;
nodes = (
"1407 1729 LINE",
"1407 666 LINE",
"1720 666 LINE",
"1720 1729 LINE"
);
},
{
closed = 1;
nodes = (
"987 1694 LINE",
"987 668 LINE",
"1294 668 LINE",
"1294 1694 LINE"
);
},
{
closed = 1;
nodes = (
"567 1599 LINE",
"567 1473 LINE SMOOTH",
"567 1180 OFFCURVE",
"434 979 OFFCURVE",
"43 838 CURVE",
"199 598 LINE",
"698 788 OFFCURVE",
"901 1102 OFFCURVE",
"901 1599 CURVE"
);
},
{
closed = 1;
nodes = (
"143 1599 LINE",
"143 1337 LINE",
"684 1337 LINE",
"684 1599 LINE"
);
},
{
closed = 1;
nodes = (
"485 590 LINE",
"485 526 LINE SMOOTH",
"485 336 OFFCURVE",
"399 152 OFFCURVE",
"143 66 CURVE",
"303 -174 LINE",
"618 -63 OFFCURVE",
"731 211 OFFCURVE",
"731 526 CURVE SMOOTH",
"731 590 LINE"
);
},
{
closed = 1;
nodes = (
"571 590 LINE",
"571 526 LINE SMOOTH",
"571 225 OFFCURVE",
"674 -76 OFFCURVE",
"993 -193 CURVE",
"1126 47 LINE",
"887 147 OFFCURVE",
"805 342 OFFCURVE",
"805 526 CURVE SMOOTH",
"805 590 LINE"
);
},
{
closed = 1;
nodes = (
"1180 590 LINE",
"1180 526 LINE SMOOTH",
"1180 352 OFFCURVE",
"1096 156 OFFCURVE",
"858 47 CURVE",
"993 -193 LINE",
"1307 -72 OFFCURVE",
"1413 238 OFFCURVE",
"1413 526 CURVE SMOOTH",
"1413 590 LINE"
);
},
{
closed = 1;
nodes = (
"1260 590 LINE",
"1260 526 LINE SMOOTH",
"1260 201 OFFCURVE",
"1368 -68 OFFCURVE",
"1688 -174 CURVE",
"1847 66 LINE",
"1589 143 OFFCURVE",
"1505 326 OFFCURVE",
"1505 526 CURVE SMOOTH",
"1505 590 LINE"
);
},
{
closed = 1;
nodes = (
"1212 1507 LINE",
"1212 1245 LINE",
"1487 1245 LINE",
"1487 1507 LINE"
);
},
{
closed = 1;
nodes = (
"1212 1106 LINE",
"1212 844 LINE",
"1487 844 LINE",
"1487 1106 LINE"
);
}
);
width = 1884;
},
{
layerId = "35A15426-DDB1-4AC4-90C4-1762146010E5";
paths = (
{
closed = 1;
nodes = (
"1561 1669 LINE",
"1561 608 LINE",
"1626 608 LINE",
"1626 1669 LINE"
);
},
{
closed = 1;
nodes = (
"1165 1634 LINE",
"1165 623 LINE",
"1233 623 LINE",
"1233 1634 LINE"
);
},
{
closed = 1;
nodes = (
"842 1528 LINE",
"842 1516 LINE SMOOTH",
"842 1137 OFFCURVE",
"573 823 OFFCURVE",
"160 643 CURVE",
"201 588 LINE",
"637 784 OFFCURVE",
"911 1122 OFFCURVE",
"911 1528 CURVE"
);
},
{
closed = 1;
nodes = (
"219 1528 LINE",
"219 1466 LINE",
"877 1466 LINE",
"877 1528 LINE"
);
},
{
closed = 1;
nodes = (
"645 541 LINE",
"645 383 LINE SMOOTH",
"645 209 OFFCURVE",
"469 -2 OFFCURVE",
"254 -84 CURVE",
"289 -139 LINE",
"524 -43 OFFCURVE",
"702 184 OFFCURVE",
"702 383 CURVE SMOOTH",
"702 541 LINE"
);
},
{
closed = 1;
nodes = (
"651 541 LINE",
"651 383 LINE SMOOTH",
"651 170 OFFCURVE",
"778 -55 OFFCURVE",
"1014 -154 CURVE",
"1047 -98 LINE",
"834 -10 OFFCURVE",
"709 193 OFFCURVE",
"709 383 CURVE SMOOTH",
"709 541 LINE"
);
},
{
closed = 1;
nodes = (
"1317 541 LINE",
"1317 383 LINE SMOOTH",
"1317 231 OFFCURVE",
"1190 0 OFFCURVE",
"979 -98 CURVE",
"1014 -154 LINE",
"1245 -45 OFFCURVE",
"1374 209 OFFCURVE",
"1374 383 CURVE SMOOTH",
"1374 541 LINE"
);
},
{
closed = 1;
nodes = (
"1323 541 LINE",
"1323 383 LINE SMOOTH",
"1323 170 OFFCURVE",
"1499 -47 OFFCURVE",
"1737 -139 CURVE",
"1772 -84 LINE",
"1552 -6 OFFCURVE",
"1380 195 OFFCURVE",
"1380 383 CURVE SMOOTH",
"1380 541 LINE"
);
},
{
closed = 1;
nodes = (
"1202 1368 LINE",
"1202 1307 LINE",
"1599 1307 LINE",
"1599 1368 LINE"
);
},
{
closed = 1;
nodes = (
"1202 985 LINE",
"1202 926 LINE",
"1599 926 LINE",
"1599 985 LINE"
);
}
);
width = 1884;
}
);
unicode = AC68;
}
{
color = 0;
glyphname = uniAC69;
layers = (
{
layerId = "99E75090-8A73-42EE-982D-99D4C12EA1BB";
paths = (
{
closed = 1;
nodes = (
"1407 1729 LINE",
"1407 590 LINE",
"1720 590 LINE",
"1720 1729 LINE"
);
},
{
closed = 1;
nodes = (
"987 1694 LINE",
"987 649 LINE",
"1294 649 LINE",
"1294 1694 LINE"
);
},
{
closed = 1;
nodes = (
"571 1599 LINE",
"571 1479 LINE SMOOTH",
"571 1163 OFFCURVE",
"436 950 OFFCURVE",
"37 797 CURVE",
"195 555 LINE",
"707 762 OFFCURVE",
"905 1092 OFFCURVE",
"905 1599 CURVE"
);
},
{
closed = 1;
nodes = (
"154 1599 LINE",
"154 1337 LINE",
"692 1337 LINE",
"692 1599 LINE"
);
},
{
closed = 1;
nodes = (
"653 584 OFFCURVE",
"387 434 OFFCURVE",
"387 199 CURVE SMOOTH",
"387 -39 OFFCURVE",
"653 -188 OFFCURVE",
"1059 -188 CURVE SMOOTH",
"1464 -188 OFFCURVE",
"1731 -39 OFFCURVE",
"1731 199 CURVE SMOOTH",
"1731 434 OFFCURVE",
"1464 584 OFFCURVE",
"1059 584 CURVE SMOOTH"
);
},
{
closed = 1;
nodes = (
"1280 334 OFFCURVE",
"1399 293 OFFCURVE",
"1399 199 CURVE SMOOTH",
"1399 102 OFFCURVE",
"1280 61 OFFCURVE",
"1059 61 CURVE SMOOTH",
"838 61 OFFCURVE",
"717 102 OFFCURVE",
"717 199 CURVE SMOOTH",
"717 293 OFFCURVE",
"838 334 OFFCURVE",
"1059 334 CURVE SMOOTH"
);
},
{
closed = 1;
nodes = (
"1212 1507 LINE",
"1212 1245 LINE",
"1487 1245 LINE",
"1487 1507 LINE"
);
},
{
closed = 1;
nodes = (
"1212 1106 LINE",
"1212 844 LINE",
"1487 844 LINE",
"1487 1106 LINE"
);
}
);
width = 1884;
},
{
layerId = "35A15426-DDB1-4AC4-90C4-1762146010E5";
paths = (
{
closed = 1;
nodes = (
"1561 1669 LINE",
"1561 535 LINE",
"1626 535 LINE",
"1626 1669 LINE"
);
},
{
closed = 1;
nodes = (
"1165 1634 LINE",
"1165 602 LINE",
"1233 602 LINE",
"1233 1634 LINE"
);
},
{
closed = 1;
nodes = (
"842 1505 LINE",
"842 1493 LINE SMOOTH",
"842 1116 OFFCURVE",
"575 799 OFFCURVE",
"160 618 CURVE",
"201 565 LINE",
"637 760 OFFCURVE",
"911 1100 OFFCURVE",
"911 1505 CURVE"
);
},
{
closed = 1;
nodes = (
"217 1505 LINE",
"217 1444 LINE",
"874 1444 LINE",
"874 1505 LINE"
);
},
{
closed = 1;
nodes = (
"676 508 OFFCURVE",
"453 391 OFFCURVE",
"453 188 CURVE SMOOTH",
"453 -14 OFFCURVE",
"676 -129 OFFCURVE",
"1053 -129 CURVE SMOOTH",
"1427 -129 OFFCURVE",
"1653 -14 OFFCURVE",
"1653 188 CURVE SMOOTH",
"1653 391 OFFCURVE",
"1427 508 OFFCURVE",
"1053 508 CURVE SMOOTH"
);
},
{
closed = 1;
nodes = (
"1372 449 OFFCURVE",
"1585 346 OFFCURVE",
"1585 188 CURVE SMOOTH",
"1585 31 OFFCURVE",
"1372 -70 OFFCURVE",
"1053 -70 CURVE SMOOTH",
"731 -70 OFFCURVE",
"518 31 OFFCURVE",
"518 188 CURVE SMOOTH",
"518 346 OFFCURVE",
"731 449 OFFCURVE",
"1053 449 CURVE SMOOTH"
);
},
{
closed = 1;
nodes = (
"1202 1368 LINE",
"1202 1307 LINE",
"1599 1307 LINE",
"1599 1368 LINE"
);
},
{
closed = 1;
nodes = (
"1202 985 LINE",
"1202 926 LINE",
"1599 926 LINE",
"1599 985 LINE"
);
}
);
width = 1884;
}
);
unicode = AC69;
}
{
color = 0;
glyphname = uniAC6A;
layers = (
{
layerId = "99E75090-8A73-42EE-982D-99D4C12EA1BB";
paths = (
{
closed = 1;
nodes = (
"1407 1729 LINE",
"1407 647 LINE",
"1720 647 LINE",
"1720 1729 LINE"
);
},
{
closed = 1;
nodes = (
"987 1694 LINE",
"987 659 LINE",
"1294 659 LINE",
"1294 1694 LINE"
);
},
{
closed = 1;
nodes = (
"573 1599 LINE",
"573 1479 LINE SMOOTH",
"573 1174 OFFCURVE",
"457 971 OFFCURVE",
"53 819 CURVE",
"211 584 LINE",
"721 784 OFFCURVE",
"903 1096 OFFCURVE",
"903 1599 CURVE"
);
},
{
closed = 1;
nodes = (
"143 1599 LINE",
"143 1339 LINE",
"684 1339 LINE",
"684 1599 LINE"
);
},
{
closed = 1;
nodes = (
"893 412 LINE",
"893 371 LINE SMOOTH",
"893 246 OFFCURVE",
"772 92 OFFCURVE",
"324 55 CURVE",
"432 -188 LINE",
"952 -141 OFFCURVE",
"1169 90 OFFCURVE",
"1169 371 CURVE SMOOTH",
"1169 412 LINE"
);
},
{
closed = 1;
nodes = (
"975 412 LINE",
"975 371 LINE SMOOTH",
"975 102 OFFCURVE",
"1190 -141 OFFCURVE",
"1712 -188 CURVE",
"1819 55 LINE",
"1380 92 OFFCURVE",
"1251 254 OFFCURVE",
"1251 371 CURVE SMOOTH",
"1251 412 LINE"
);
},
{
closed = 1;
nodes = (
"410 575 LINE",
"410 317 LINE",
"1741 317 LINE",
"1741 575 LINE"
);
},
{
closed = 1;
nodes = (
"1212 1511 LINE",
"1212 1249 LINE",
"1487 1249 LINE",
"1487 1511 LINE"
);
},
{
closed = 1;
nodes = (
"1212 1110 LINE",
"1212 848 LINE",
"1487 848 LINE",
"1487 1110 LINE"
);
}
);
width = 1884;
},
{
layerId = "35A15426-DDB1-4AC4-90C4-1762146010E5";
paths = (
{
closed = 1;
nodes = (
"1561 1669 LINE",
"1561 627 LINE",
"1626 627 LINE",
"1626 1669 LINE"
);
},
{
closed = 1;
nodes = (
"1165 1634 LINE",
"1165 639 LINE",
"1233 639 LINE",
"1233 1634 LINE"
);
},
{
closed = 1;
nodes = (
"842 1528 LINE",
"842 1516 LINE SMOOTH",
"842 1137 OFFCURVE",
"573 823 OFFCURVE",
"160 643 CURVE",
"201 588 LINE",
"637 784 OFFCURVE",
"911 1122 OFFCURVE",
"911 1528 CURVE"
);
},
{
closed = 1;
nodes = (
"217 1528 LINE",
"217 1466 LINE",
"874 1466 LINE",
"874 1528 LINE"
);
},
{
closed = 1;
nodes = (
"1020 465 LINE",
"1020 424 LINE SMOOTH",
"1020 147 OFFCURVE",
"639 -27 OFFCURVE",
"391 -74 CURVE",
"420 -129 LINE",
"696 -70 OFFCURVE",
"1079 113 OFFCURVE",
"1079 424 CURVE SMOOTH",
"1079 465 LINE"
);
},
{
closed = 1;
nodes = (
"1028 465 LINE",
"1028 424 LINE SMOOTH",
"1028 113 OFFCURVE",
"1413 -70 OFFCURVE",
"1688 -129 CURVE",
"1716 -74 LINE",
"1468 -27 OFFCURVE",
"1087 150 OFFCURVE",
"1087 424 CURVE SMOOTH",
"1087 465 LINE"
);
},
{
closed = 1;
nodes = (
"455 516 LINE",
"455 455 LINE",
"1647 455 LINE",
"1647 516 LINE"
);
},
{
closed = 1;
nodes = (
"1202 1368 LINE",
"1202 1307 LINE",
"1599 1307 LINE",
"1599 1368 LINE"
);
},
{
closed = 1;
nodes = (
"1202 985 LINE",
"1202 926 LINE",
"1599 926 LINE",
"1599 985 LINE"
);
}
);
width = 1884;
}
);
unicode = AC6A;
}
